<?xml version="1.0" encoding="UTF-8" standalone="no"?>
<!DOCTYPE svg PUBLIC "-//W3C//DTD SVG 1.1//EN" "http://www.w3.org/Graphics/SVG/1.1/DTD/svg11.dtd">
<svg width="100%" height="100%" viewBox="0 0 43 42" version="1.1" xmlns="http://www.w3.org/2000/svg" xmlns:xlink="http://www.w3.org/1999/xlink" xml:space="preserve" xmlns:serif="http://www.serif.com/" style="fill-rule:evenodd;clip-rule:evenodd;stroke-linecap:round;stroke-linejoin:round;stroke-miterlimit:1.5;">
    <g transform="matrix(1,0,0,1,-532,-162)">
        <g id="jidlo-dobytek-4-a" transform="matrix(1,0,0,1,282.792,162.274)">
            <rect x="250" y="0" width="41.667" height="41.667" style="fill:none;"/>
            <clipPath id="_clip1">
                <rect x="250" y="0" width="41.667" height="41.667"/>
            </clipPath>
            <g clip-path="url(#_clip1)">
                <g transform="matrix(5.36956e-17,0.701622,0.701622,-5.36956e-17,239.861,-110.97)">
                    <path d="M187.744,14.562C200.087,20.643 211.245,31.801 217.326,44.144C211.245,56.488 200.087,67.646 187.744,73.727C175.4,67.646 164.243,56.488 158.162,44.144C164.243,31.801 175.4,20.643 187.744,14.562Z" style="fill:rgb(21,195,51);"/>
                </g>
                <g transform="matrix(1.84501,0,0,1.84501,-158.778,-225.957)">
                    <path d="M227.664,138.686C227.722,137.902 225.351,138.997 225.312,135.884C225.295,134.566 226.961,131.828 226.763,130.83C226.664,130.33 225.897,130.076 225.272,129.934C224.765,129.819 224.022,131.21 223.01,129.979C222.792,129.714 223.073,128.799 223.456,128.424C223.84,128.049 224.889,127.811 225.456,127.64C226.065,127.457 226.613,127.085 227.213,126.927C227.764,126.782 228.414,126.96 228.915,126.777C229.415,126.593 230.105,126.093 230.406,126.152C230.706,126.21 230.939,126.725 230.716,127.127C230.533,127.457 230.112,127.313 230.126,127.707C230.143,128.19 230.901,129.131 230.816,129.829C230.691,130.855 228.946,134.13 229.473,134.389C230.142,134.718 231.012,132.104 231.469,131.13C232.004,129.988 232.904,129.744 233.226,129.177C233.522,128.655 233.776,127.594 234.321,127.342C234.916,127.067 236.121,126.877 237.025,127.302C237.929,127.727 237.681,128.848 238.362,129.596C239.371,130.705 242.417,132.473 242.726,134.183C243.034,135.893 240.507,139.454 239.974,140.738C239.73,141.324 234.596,141.239 234.214,140.847C233.264,139.875 235.391,139.317 235.07,139.287C234.341,139.219 233.503,140.645 232.192,140.969C230.641,141.352 226.752,141.321 225.667,141.229C225.241,141.193 225.151,140.521 225.385,140.164C225.702,139.68 227.605,139.47 227.664,138.686Z" style="fill:white;stroke:black;stroke-width:0.23px;"/>
                </g>
                <g transform="matrix(2.51243,0,0,2.51243,-310.376,-311.28)">
                    <ellipse cx="227.138" cy="128.228" rx="0.275" ry="0.25"/>
                </g>
            </g>
        </g>
    </g>
</svg>
