<?xml version="1.0" encoding="UTF-8" standalone="no"?>
<!DOCTYPE svg PUBLIC "-//W3C//DTD SVG 1.1//EN" "http://www.w3.org/Graphics/SVG/1.1/DTD/svg11.dtd">
<svg width="100%" height="100%" viewBox="0 0 43 42" version="1.1" xmlns="http://www.w3.org/2000/svg" xmlns:xlink="http://www.w3.org/1999/xlink" xml:space="preserve" xmlns:serif="http://www.serif.com/" style="fill-rule:evenodd;clip-rule:evenodd;stroke-linejoin:round;stroke-miterlimit:2;">
    <g transform="matrix(1,0,0,1,-268,-353)">
        <g id="luxus-latka-3-b" transform="matrix(1,0,0,1,18.8213,353.051)">
            <rect x="250" y="0" width="41.667" height="41.667" style="fill:none;"/>
            <g transform="matrix(-0.362672,0.628167,0.628167,0.362672,311.193,-113.891)">
                <path d="M187.744,14.562C201.739,23.684 212.461,42.254 213.363,58.936C198.466,66.495 177.022,66.495 162.125,58.936C163.027,42.254 173.748,23.684 187.744,14.562Z" style="fill:rgb(253,191,51);"/>
            </g>
            <g transform="matrix(1.07565,0,0,1.07565,-43.6361,-432.754)">
                <path d="M295.626,417.317C295.665,417.316 295.704,417.316 295.743,417.316C297.275,417.346 298.721,418.66 298.33,420.382C298.15,421.172 297.322,421.776 296.4,422.134L296.402,422.144L286.631,427.853L281.113,426.359L280.615,423.447L284.14,419.322L294.76,417.467C295.035,417.378 295.324,417.328 295.616,417.318L295.626,417.316L295.626,417.317Z" style="stroke:white;stroke-width:0.39px;"/>
            </g>
            <g transform="matrix(1.07077,-0.102317,0.102317,1.07077,-79.1097,-399.058)">
                <path d="M295.626,417.317C295.665,417.316 295.704,417.316 295.743,417.316C297.275,417.346 298.721,418.66 298.33,420.382C298.15,421.172 297.322,421.776 296.4,422.134L296.402,422.144L286.631,427.853L281.113,426.359L280.615,423.447L284.14,419.322L294.76,417.467C295.035,417.378 295.324,417.328 295.616,417.318L295.626,417.316L295.626,417.317Z" style="stroke:white;stroke-width:0.39px;"/>
            </g>
            <g transform="matrix(0.792935,0.24841,-0.24841,0.792935,138.493,-391.509)">
                <path d="M295.626,417.317C295.665,417.316 295.704,417.316 295.743,417.316C297.275,417.346 298.721,418.66 298.33,420.382C298.15,421.172 297.322,421.776 296.4,422.134L296.402,422.144L286.631,427.853L281.113,426.359L280.615,423.447L284.14,419.322L294.76,417.467C295.035,417.378 295.324,417.328 295.616,417.318L295.626,417.316L295.626,417.317Z" style="stroke:white;stroke-width:0.5px;"/>
            </g>
            <g transform="matrix(0.792935,0.24841,-0.24841,0.792935,144.922,-392.127)">
                <path d="M295.626,417.317C295.665,417.316 295.704,417.316 295.743,417.316C297.275,417.346 298.721,418.66 298.33,420.382C298.15,421.172 297.322,421.776 296.4,422.134L296.402,422.144L286.631,427.853L281.113,426.359L280.615,423.447L284.14,419.322L294.76,417.467C295.035,417.378 295.324,417.328 295.616,417.318L295.626,417.316L295.626,417.317Z" style="stroke:white;stroke-width:0.5px;"/>
            </g>
            <g transform="matrix(1.07565,0,0,1.07565,-43.0604,-432.754)">
                <path d="M294.185,428.273L303.069,422.182C303.069,422.182 303.463,421.774 303.873,422.029C304.144,422.197 304.015,422.465 303.873,422.585C302.387,423.849 294.52,429.975 294.52,429.975L294.185,428.273Z" style="stroke:white;stroke-width:0.39px;stroke-linecap:round;stroke-miterlimit:1.5;"/>
            </g>
            <g transform="matrix(0.403326,-0.470577,0.433995,0.371972,-39.3753,-7.95088)">
                <path d="M285.337,415.841C287.384,415.885 289.445,416.994 290.647,418.735C291.582,420.089 291.997,421.826 291.484,423.742C290.499,427.415 286.472,430.009 283.498,427.471C282.564,426.673 281.297,425.078 280.976,423.7C280.546,421.849 281.42,420.162 283.247,419.157C284.438,418.503 286.876,418.406 287.962,419.446C288.91,420.353 289.645,421.587 288.857,423.846C288.625,424.513 288.147,425.378 286.73,425.835C285.839,426.122 284.972,425.274 284.407,424.66C283.425,423.596 284.297,421.561 286.041,422.175C285.392,421.578 284.195,422.334 284.104,423.361C284.004,424.488 284.851,425.528 285.859,425.8C288.499,426.51 290.698,421.538 287.962,419.446C285.413,417.498 280.7,419.165 280.918,423.222C281.022,425.166 282.793,426.729 282.795,427.934C282.796,429.181 281.257,429.793 280.126,428.233C279.743,427.705 279.418,427.129 279.157,426.52C278.17,424.219 278.1,421.386 279.333,419.247C280.587,417.074 282.945,415.822 285.337,415.841Z" style="stroke:white;stroke-width:0.7px;"/>
            </g>
            <g transform="matrix(-0.0429305,0.618282,-0.570217,-0.0395931,519.073,-144.816)">
                <path d="M285.337,415.841C287.384,415.885 289.445,416.994 290.647,418.735C291.582,420.089 291.997,421.826 291.484,423.742C290.499,427.415 286.472,430.009 283.498,427.471C282.564,426.673 281.297,425.078 280.976,423.7C280.546,421.849 281.42,420.162 283.247,419.157C284.438,418.503 286.876,418.406 287.962,419.446C288.91,420.353 289.645,421.587 288.857,423.846C288.625,424.513 288.147,425.378 286.73,425.835C285.839,426.122 284.972,425.274 284.407,424.66C283.425,423.596 284.297,421.561 286.041,422.175C285.392,421.578 284.195,422.334 284.104,423.361C284.004,424.488 284.851,425.528 285.859,425.8C288.499,426.51 290.698,421.538 287.962,419.446C285.413,417.498 280.7,419.165 280.918,423.222C281.022,425.166 282.793,426.729 282.795,427.934C282.796,429.181 281.257,429.793 280.126,428.233C279.743,427.705 279.418,427.129 279.157,426.52C278.17,424.219 278.1,421.386 279.333,419.247C280.587,417.074 282.945,415.822 285.337,415.841Z" style="stroke:white;stroke-width:0.7px;"/>
            </g>
            <g transform="matrix(0.763332,0.261545,-0.241213,0.703992,146.401,-348.433)">
                <path d="M285.337,415.841C287.384,415.885 289.445,416.994 290.647,418.735C291.582,420.089 291.997,421.826 291.484,423.742C290.499,427.415 286.472,430.009 283.498,427.471C282.564,426.673 281.297,425.078 280.976,423.7C280.546,421.849 281.42,420.162 283.247,419.157C284.438,418.503 286.876,418.406 287.962,419.446C288.91,420.353 289.645,421.587 288.857,423.846C288.625,424.513 288.147,425.378 286.73,425.835C285.839,426.122 284.972,425.274 284.407,424.66C283.425,423.596 284.297,421.561 286.041,422.175C285.392,421.578 284.195,422.334 284.104,423.361C284.004,424.488 284.851,425.528 285.859,425.8C288.499,426.51 290.698,421.538 287.962,419.446C285.413,417.498 280.7,419.165 280.918,423.222C281.022,425.166 282.793,426.729 282.795,427.934C282.796,429.181 281.257,429.793 280.126,428.233C279.743,427.705 279.418,427.129 279.157,426.52C278.17,424.219 278.1,421.386 279.333,419.247C280.587,417.074 282.945,415.822 285.337,415.841Z" style="stroke:white;stroke-width:0.54px;"/>
            </g>
            <g transform="matrix(0.078575,-0.803062,0.740633,0.0724667,-65.7827,224.007)">
                <path d="M285.337,415.841C287.384,415.885 289.445,416.994 290.647,418.735C291.582,420.089 291.997,421.826 291.484,423.742C290.499,427.415 286.472,430.009 283.498,427.471C282.564,426.673 281.297,425.078 280.976,423.7C280.546,421.849 281.42,420.162 283.247,419.157C284.438,418.503 286.876,418.406 287.962,419.446C288.91,420.353 289.645,421.587 288.857,423.846C288.625,424.513 288.147,425.378 286.73,425.835C285.839,426.122 284.972,425.274 284.407,424.66C283.425,423.596 284.297,421.561 286.041,422.175C285.392,421.578 284.195,422.334 284.104,423.361C284.004,424.488 284.851,425.528 285.859,425.8C288.499,426.51 290.698,421.538 287.962,419.446C285.413,417.498 280.7,419.165 280.918,423.222C281.022,425.166 282.793,426.729 282.795,427.934C282.796,429.181 281.257,429.793 280.126,428.233C279.743,427.705 279.418,427.129 279.157,426.52C278.17,424.219 278.1,421.386 279.333,419.247C280.587,417.074 282.945,415.822 285.337,415.841Z" style="stroke:white;stroke-width:0.54px;"/>
            </g>
            <g transform="matrix(0.55244,0,0,0.55244,114.721,-214.465)">
                <ellipse cx="306.148" cy="427.583" rx="0.69" ry="0.705" style="stroke:white;stroke-width:0.75px;stroke-linecap:round;stroke-miterlimit:1.5;"/>
            </g>
            <g transform="matrix(0.55244,0,0,0.55244,114.029,-213.806)">
                <ellipse cx="306.148" cy="427.583" rx="0.69" ry="0.705" style="stroke:white;stroke-width:0.75px;stroke-linecap:round;stroke-miterlimit:1.5;"/>
            </g>
            <g transform="matrix(0.608318,0,0,0.608318,96.036,-236.926)">
                <ellipse cx="306.148" cy="427.583" rx="0.69" ry="0.705" style="stroke:white;stroke-width:0.68px;stroke-linecap:round;stroke-miterlimit:1.5;"/>
            </g>
            <g transform="matrix(0.608318,0,0,0.608318,95.1128,-236.333)">
                <ellipse cx="306.148" cy="427.583" rx="0.69" ry="0.705" style="stroke:white;stroke-width:0.68px;stroke-linecap:round;stroke-miterlimit:1.5;"/>
            </g>
            <g transform="matrix(0.647237,0,0,0.647237,82.2145,-252.188)">
                <ellipse cx="306.148" cy="427.583" rx="0.69" ry="0.705" style="stroke:white;stroke-width:0.64px;stroke-linecap:round;stroke-miterlimit:1.5;"/>
            </g>
            <g transform="matrix(0.647237,0,0,0.647237,81.3268,-251.528)">
                <ellipse cx="306.148" cy="427.583" rx="0.69" ry="0.705" style="stroke:white;stroke-width:0.64px;stroke-linecap:round;stroke-miterlimit:1.5;"/>
            </g>
            <g transform="matrix(0.695525,0,0,0.695525,65.5611,-271.482)">
                <ellipse cx="306.148" cy="427.583" rx="0.69" ry="0.705" style="stroke:white;stroke-width:0.6px;stroke-linecap:round;stroke-miterlimit:1.5;"/>
            </g>
            <g transform="matrix(0.771014,0,0,0.771014,41.38,-302.998)">
                <ellipse cx="306.148" cy="427.583" rx="0.69" ry="0.705" style="stroke:white;stroke-width:0.54px;stroke-linecap:round;stroke-miterlimit:1.5;"/>
            </g>
            <g transform="matrix(0.934921,0,0,0.934921,-9.99289,-372.181)">
                <ellipse cx="306.148" cy="427.583" rx="0.69" ry="0.705" style="stroke:white;stroke-width:0.45px;stroke-linecap:round;stroke-miterlimit:1.5;"/>
            </g>
            <g transform="matrix(0.27622,-0.478427,0.478427,0.27622,-6.19542,51.8234)">
                <path d="M309.644,428.288C309.363,428.288 308.8,429.657 308.8,430.243C308.8,430.709 309.178,431.087 309.644,431.087C310.11,431.087 310.488,430.709 310.488,430.243C310.488,429.657 309.925,428.288 309.644,428.288Z" style="stroke:white;stroke-width:0.75px;stroke-linecap:round;stroke-miterlimit:1.5;"/>
            </g>
            <g transform="matrix(0.27622,-0.478427,0.478427,0.27622,-6.88783,52.4828)">
                <path d="M309.644,428.288C309.363,428.288 308.8,429.657 308.8,430.243C308.8,430.709 309.178,431.087 309.644,431.087C310.11,431.087 310.488,430.709 310.488,430.243C310.488,429.657 309.925,428.288 309.644,428.288Z" style="stroke:white;stroke-width:0.75px;stroke-linecap:round;stroke-miterlimit:1.5;"/>
            </g>
            <g transform="matrix(0.304159,-0.526819,0.526819,0.304159,-37.1113,56.2967)">
                <path d="M309.644,428.288C309.363,428.288 308.8,429.657 308.8,430.243C308.8,430.709 309.178,431.087 309.644,431.087C310.11,431.087 310.488,430.709 310.488,430.243C310.488,429.657 309.925,428.288 309.644,428.288Z" style="stroke:white;stroke-width:0.68px;stroke-linecap:round;stroke-miterlimit:1.5;"/>
            </g>
            <g transform="matrix(0.304159,-0.526819,0.526819,0.304159,-38.0345,56.8902)">
                <path d="M309.644,428.288C309.363,428.288 308.8,429.657 308.8,430.243C308.8,430.709 309.178,431.087 309.644,431.087C310.11,431.087 310.488,430.709 310.488,430.243C310.488,429.657 309.925,428.288 309.644,428.288Z" style="stroke:white;stroke-width:0.68px;stroke-linecap:round;stroke-miterlimit:1.5;"/>
            </g>
            <g transform="matrix(0.323618,-0.560523,0.560523,0.323618,-59.4513,59.7947)">
                <path d="M309.644,428.288C309.363,428.288 308.8,429.657 308.8,430.243C308.8,430.709 309.178,431.087 309.644,431.087C310.11,431.087 310.488,430.709 310.488,430.243C310.488,429.657 309.925,428.288 309.644,428.288Z" style="stroke:white;stroke-width:0.64px;stroke-linecap:round;stroke-miterlimit:1.5;"/>
            </g>
            <g transform="matrix(0.323618,-0.560523,0.560523,0.323618,-60.339,60.4543)">
                <path d="M309.644,428.288C309.363,428.288 308.8,429.657 308.8,430.243C308.8,430.709 309.178,431.087 309.644,431.087C310.11,431.087 310.488,430.709 310.488,430.243C310.488,429.657 309.925,428.288 309.644,428.288Z" style="stroke:white;stroke-width:0.64px;stroke-linecap:round;stroke-miterlimit:1.5;"/>
            </g>
            <g transform="matrix(0.347762,-0.602342,0.602342,0.347762,-86.6739,63.7766)">
                <path d="M309.644,428.288C309.363,428.288 308.8,429.657 308.8,430.243C308.8,430.709 309.178,431.087 309.644,431.087C310.11,431.087 310.488,430.709 310.488,430.243C310.488,429.657 309.925,428.288 309.644,428.288Z" style="stroke:white;stroke-width:0.6px;stroke-linecap:round;stroke-miterlimit:1.5;"/>
            </g>
            <g transform="matrix(0.385507,-0.667717,0.667717,0.385507,-127.378,68.6481)">
                <path d="M309.644,428.288C309.363,428.288 308.8,429.657 308.8,430.243C308.8,430.709 309.178,431.087 309.644,431.087C310.11,431.087 310.488,430.709 310.488,430.243C310.488,429.657 309.925,428.288 309.644,428.288Z" style="stroke:white;stroke-width:0.54px;stroke-linecap:round;stroke-miterlimit:1.5;"/>
            </g>
            <g transform="matrix(0.467461,-0.809665,0.809665,0.467461,-214.627,78.4724)">
                <path d="M309.644,428.288C309.363,428.288 308.8,429.657 308.8,430.243C308.8,430.709 309.178,431.087 309.644,431.087C310.11,431.087 310.488,430.709 310.488,430.243C310.488,429.657 309.925,428.288 309.644,428.288Z" style="stroke:white;stroke-width:0.45px;stroke-linecap:round;stroke-miterlimit:1.5;"/>
            </g>
            <g transform="matrix(1.07565,0,0,1.07565,-54.3622,-431.244)">
                <ellipse cx="306.148" cy="427.583" rx="0.69" ry="0.705" style="stroke:white;stroke-width:0.39px;stroke-linecap:round;stroke-miterlimit:1.5;"/>
            </g>
            <g transform="matrix(0.537824,-0.931538,0.931538,0.537824,-289.798,87.2427)">
                <path d="M309.644,428.288C309.363,428.288 308.8,429.657 308.8,430.243C308.8,430.709 309.178,431.087 309.644,431.087C310.11,431.087 310.488,430.709 310.488,430.243C310.488,429.657 309.925,428.288 309.644,428.288Z" style="stroke:white;stroke-width:0.39px;stroke-linecap:round;stroke-miterlimit:1.5;"/>
            </g>
        </g>
    </g>
</svg>
