<?xml version="1.0" encoding="UTF-8" standalone="no"?>
<!DOCTYPE svg PUBLIC "-//W3C//DTD SVG 1.1//EN" "http://www.w3.org/Graphics/SVG/1.1/DTD/svg11.dtd">
<svg width="100%" height="100%" viewBox="0 0 43 42" version="1.1" xmlns="http://www.w3.org/2000/svg" xmlns:xlink="http://www.w3.org/1999/xlink" xml:space="preserve" xmlns:serif="http://www.serif.com/" style="fill-rule:evenodd;clip-rule:evenodd;stroke-linejoin:round;stroke-miterlimit:2;">
    <g transform="matrix(5.36956e-17,0.701622,0.701622,-5.36956e-17,-9.347,-110.696)">
        <path d="M187.744,14.562C200.087,20.643 211.245,31.801 217.326,44.144C211.245,56.488 200.087,67.646 187.744,73.727C175.4,67.646 164.243,56.488 158.162,44.144C164.243,31.801 175.4,20.643 187.744,14.562Z" style="fill:rgb(40,50,226);"/>
    </g>
    <g transform="matrix(0.297326,0,0,0.297326,5.63063,4.49799)">
        <path d="M86.77,63.77C90.41,59.45 96.5,46.77 97.39,45.08C97.519,44.611 97.546,44.12 97.47,43.64C97.394,43.16 97.01,43.49 96.9,43.64C96.09,44.46 91.49,50.15 86.12,56.01L86.12,45.44C86.13,45.389 86.135,45.337 86.135,45.285C86.135,44.84 85.769,44.475 85.325,44.475C84.881,44.475 84.515,44.84 84.515,45.285C84.515,45.337 84.52,45.389 84.53,45.44L84.53,57.68C81.604,60.899 78.452,63.907 75.1,66.68C74.85,66.9 74.32,66.68 73.92,66.68L73.92,62.74C73.92,61.15 73.92,59.56 74,57.97C74.039,57.632 73.998,57.289 73.88,56.97L73.88,54.97C74.73,53.35 75.55,53.14 75.52,52.76C75.52,52.23 74.41,51.85 74.02,51.76C73.97,51.76 73.92,51.7 73.88,51.6L73.88,28.6C75.114,26.774 76.553,25.097 78.17,23.6C78.4,23.4 79.1,22.66 78.17,22.78C76.697,23.323 75.266,23.975 73.89,24.73L73.89,4.51C73.89,2.92 73.53,2.51 73.09,2.51C72.615,2.552 72.256,2.974 72.29,3.45L72.29,3.57C71.672,3.933 70.995,4.183 70.29,4.31C68.48,4.44 67.7,3.11 65.86,4.69C63.13,7.03 62.44,3.78 58.86,6.91C58.46,7.26 59.69,8.75 59.95,10.41C60.009,12.195 59.838,13.979 59.44,15.72C62.57,14.05 63.71,16.32 66.54,13.66C67.75,12.52 70.93,13.77 72.29,14.4L72.29,25.56C69.013,27.282 65.985,29.442 63.29,31.98C57.09,37.69 50.07,46.27 48.72,47.2C48.075,47.549 47.354,47.734 46.62,47.74C46.52,47.74 46.55,42.07 46.39,40.65C46.1,38.13 47.28,37.23 48.32,35.65C48.52,35.35 48.78,34.25 48.51,34.26C47.78,34.26 46.97,35.26 46.34,34.26C46.011,33.56 45.853,32.793 45.88,32.02C45.81,30.89 45.88,29.4 45.88,27.35C45.88,26.81 48.33,27.44 48.99,27.11C49.45,26.88 48.99,26.23 48.82,26.17C48.39,26 46.82,26.27 46.38,26.07C45.8,25.79 45.96,25.22 45.88,24.76C45.66,23.45 46.14,14.76 46.09,14.44C46.01,13.93 46.2,13.54 45.76,13.44C45.32,13.34 45.37,15.73 44.91,15.73C41.32,15.75 43,18 37,18.6C36.26,18.68 37.47,19.31 37.25,20.78C37.09,21.89 36.68,22.95 37.44,22.97C41.67,23.06 42.16,21.37 43.92,21.49C44.11,21.49 44.37,21.36 44.42,22.49C44.42,23.15 44.61,25.79 44.03,25.95C42.85,26.28 41.73,25.81 40.6,26.35C40.29,26.49 40.55,27.24 40.86,27.21C41.4,27.16 44.03,27.08 44.12,27.4C44.39,28.29 44.73,35.16 43.6,35.78C42.33,37.01 35.18,41.68 34.6,49.94C34.1,57.59 38.52,61.28 38.49,61.84C37.246,63.252 36.234,64.852 35.49,66.58C33.3,71.5 35.22,77.29 35.54,77.33C37.04,77.54 38.54,77.99 40.06,78.23C41.71,78.49 43.63,79.49 43.28,81.69C43.28,81.94 42.28,81.4 42.08,81.54C41.169,81.018 40.231,80.544 39.27,80.12C38.27,79.91 22.12,79.49 20.43,79.22C19.56,79.08 19.33,78.42 19.8,77.57C19.849,77.118 19.784,76.66 19.61,76.24C19.082,75.005 18.474,73.806 17.79,72.65C17.434,72.19 17.228,71.631 17.2,71.05C17.2,70.18 18.03,70.7 18.09,70.73C18.86,71.11 26.85,75.73 30.43,77.19C30.56,77.24 31.05,76.1 30.67,75.9C21.118,70.911 12.129,64.91 3.86,58C3.483,57.813 3.078,57.691 2.66,57.64C2.66,57.93 2.44,58.38 2.53,58.48C3.94,60 7.68,63.05 16.11,69.48C16.605,69.812 16.903,70.37 16.903,70.967C16.903,71.426 16.726,71.867 16.41,72.2C16.153,72.725 16.124,73.333 16.33,73.88C16.676,74.635 17.077,75.364 17.53,76.06C18.42,77.6 19.53,78.06 19.08,78.58C18.63,79.1 14.23,77.58 13.08,77.25C11.93,76.92 11.08,76.13 10.79,77.33C10.762,77.877 11.015,78.401 11.46,78.72C17.001,81.387 21.355,86.023 23.67,91.72C24.691,93.773 26.042,95.645 27.67,97.26C28.17,97.79 77.3,97.26 82.37,97.26C83.614,97.39 84.814,96.73 85.37,95.61C86.53,93.31 89.46,86.68 90.05,85.94C90.42,85.47 91.29,85.59 91.74,85.16C94.9,82 96.82,69.83 96.74,69.03C96.24,69.1 89.91,70.92 88.09,71.31C87.26,71.48 86.09,70.64 86.19,69.97C86.32,68.38 86.33,66.79 86.43,65.2C86.435,64.704 86.551,64.215 86.77,63.77ZM71.12,8.77C71.122,7.225 71.521,5.706 72.28,4.36L72.28,13.36C71.61,11.898 71.216,10.325 71.12,8.72L71.12,8.77ZM68.66,41.77C68.81,38.052 69.867,34.426 71.74,31.21C71.81,31.08 72.09,31.45 72.27,31.87L72.27,50.08C71.95,50.76 71.27,51.44 70.08,50.08C68.69,48.37 68.57,44 68.66,41.7L68.66,41.77ZM72.19,80.15C72.07,80.83 71.98,83.79 71.51,84.09C70.51,84.75 49.96,84.29 47.87,84.35C46.34,84.45 46.45,80.95 46.41,80.27C46.41,79.85 48.52,80.11 48.02,79.27C47.24,78.239 46.69,77.052 46.41,75.79C46.134,74.647 45.997,73.476 46,72.3C46.146,70.613 46.43,68.941 46.85,67.3C47.78,62.89 52.16,60.48 52.27,60.01C52.27,59.8 51.86,59.73 51.64,59.74C50.75,59.74 47.89,60.74 47.01,60.68C46.31,60.68 46.21,52.9 46.69,51.01C47.138,49.759 47.867,48.626 48.82,47.7C50.92,45.7 59.45,36.3 60.14,35.7C58.32,38.82 56.06,43.26 56.14,45.89C56.31,54.36 62.43,54.72 60.66,57.08C58.7,60.297 57.135,63.738 56,67.33C53.87,76.5 56.09,80.54 57.07,82.33C58.05,84.12 70.44,79.07 71.77,78.91C72,78.88 72.28,79.78 72.22,80.15L72.19,80.15ZM71.77,71C71.16,71.43 70.4,66.32 70.57,65C71.07,61.37 71.69,60.23 71.93,59.91C72.05,60 72.17,60.08 72.28,60.18L72.28,70.37C72.191,70.634 72.01,70.858 71.77,71ZM84.35,67.2C84.304,68.461 84.099,69.711 83.74,70.92C83.58,71.38 81.65,71.92 81.05,71.92C79.78,72.02 79.12,73.09 78.77,74.53C78.48,75.74 76.89,77.47 75.77,77.43C75.364,77.031 74.983,76.607 74.63,76.16C74.334,75.714 74.067,75.25 73.83,74.77L73.83,70.77C79.37,67.54 81.31,67.49 83.99,65.77C84.219,66.212 84.342,66.702 84.35,67.2ZM10.83,60.95C15.1,59.36 31.15,46.95 34.33,43.2C34.79,42.66 35.09,43.2 35.07,43.2C28.4,53.6 25.75,68.35 24.28,68.35C24.16,68.35 17.79,63.62 10.91,61.44C10.83,61.4 10.75,61 10.83,60.95Z" style="fill:white;fill-rule:nonzero;"/>
        <path d="M70.795,2.43C70.57,2.517 70.338,2.585 70.101,2.634C69.393,2.663 68.895,2.394 68.388,2.302C67.335,2.11 66.252,2.137 64.764,3.414C64.026,4.047 63.545,3.927 63.028,3.854C62.739,3.814 62.444,3.778 62.132,3.769C61.025,3.738 59.68,3.959 57.753,5.644C57.753,5.644 57.753,5.644 57.753,5.644C57.285,6.053 56.971,6.671 57.144,7.568C57.198,7.849 57.332,8.221 57.527,8.649C57.761,9.162 58.131,9.834 58.269,10.56C58.317,12.18 58.158,13.782 57.801,15.345C57.654,15.987 57.895,16.656 58.419,17.056C58.942,17.456 59.651,17.514 60.232,17.204C61.437,16.561 62.267,16.722 63.06,16.742C64.435,16.777 65.771,16.675 67.652,14.922C67.688,14.913 67.784,14.891 67.843,14.886C68.039,14.869 68.252,14.884 68.473,14.913C69.188,15.009 69.959,15.257 70.607,15.509C70.608,15.51 70.608,24.558 70.608,24.558C67.544,26.264 64.701,28.343 62.144,30.749C56.551,35.902 50.304,43.431 48.239,45.407C48.207,43.636 48.149,41.242 48.061,40.462C48.061,40.46 48.061,40.459 48.061,40.458C47.921,39.248 48.291,38.586 48.761,37.924C49.064,37.497 49.398,37.07 49.72,36.582C49.894,36.32 50.13,35.741 50.235,35.196C50.328,34.719 50.315,34.269 50.253,33.998C50.142,33.513 49.889,33.189 49.633,32.979C49.319,32.721 48.947,32.574 48.504,32.579C48.271,32.58 47.926,32.668 47.612,32.767C47.57,32.541 47.553,32.31 47.561,32.078C47.563,32.024 47.562,31.97 47.558,31.916C47.509,31.112 47.533,30.121 47.55,28.868C47.806,28.882 48.06,28.892 48.253,28.893C48.886,28.897 49.415,28.778 49.742,28.614C50.275,28.348 50.568,27.959 50.731,27.544C50.919,27.063 50.916,26.491 50.705,25.957C50.427,25.256 49.755,24.741 49.423,24.601C49.136,24.498 48.739,24.428 48.265,24.429C48.073,24.429 47.794,24.435 47.533,24.442C47.326,23.046 47.801,14.497 47.751,14.18C47.751,14.18 47.751,14.18 47.751,14.179C47.693,13.805 47.729,13.485 47.67,13.261C47.49,12.575 47.124,12.025 46.133,11.8C45.401,11.634 44.616,11.813 44.103,12.764C43.987,12.979 43.87,13.309 43.788,13.703C43.763,13.82 43.733,13.974 43.703,14.133C42.507,14.312 41.87,14.758 41.238,15.275C40.519,15.863 39.817,16.628 36.833,16.927C36.828,16.927 36.824,16.928 36.819,16.928C35.636,17.056 35.307,17.727 35.155,18.225C35.073,18.492 35.043,18.8 35.118,19.151C35.154,19.322 35.229,19.538 35.355,19.786C35.432,19.935 35.642,20.165 35.587,20.531C35.586,20.534 35.586,20.537 35.586,20.54C35.501,21.124 35.359,21.696 35.325,22.129C35.291,22.565 35.341,22.938 35.439,23.232C35.714,24.055 36.269,24.621 37.396,24.651C37.399,24.651 37.401,24.651 37.404,24.651C39.892,24.704 41.277,24.216 42.302,23.75C42.45,23.682 42.589,23.615 42.722,23.55L42.705,24.414C42.442,24.407 42.182,24.385 41.924,24.39C41.237,24.403 40.559,24.506 39.875,24.833C39.067,25.197 38.544,26.268 38.897,27.361C39.227,28.382 40.236,28.96 41.022,28.884C41.226,28.865 42.008,28.874 42.636,28.886C42.696,29.73 42.727,30.949 42.695,32.101C42.67,33.024 42.457,34.273 42.399,34.601C41.495,35.458 38.226,37.782 35.77,41.573C35.508,41.415 35.192,41.3 34.837,41.281C34.367,41.256 33.709,41.336 33.05,42.11C33.049,42.11 33.048,42.111 33.047,42.112C29.959,45.754 14.39,57.83 10.243,59.374C10.137,59.414 10.035,59.464 9.939,59.524C9.738,59.65 9.483,59.882 9.312,60.225C7.832,59.082 6.374,57.909 4.938,56.71C4.837,56.625 4.726,56.553 4.608,56.494C4.061,56.222 3.471,56.045 2.864,55.971C2.386,55.912 1.906,56.062 1.545,56.381C1.207,56.68 1.005,57.102 0.981,57.55C0.947,57.762 0.822,58.568 0.863,58.773C0.934,59.122 1.089,59.393 1.28,59.605C1.286,59.611 1.291,59.617 1.297,59.624C2.73,61.169 6.522,64.281 15.09,70.817C15.117,70.838 15.145,70.858 15.173,70.877C15.203,70.897 15.221,70.93 15.221,70.967C15.221,70.994 15.21,71.021 15.191,71.041C15.073,71.165 14.975,71.307 14.9,71.46C14.439,72.401 14.387,73.492 14.756,74.473L15.7,76.298C14.785,76.023 13.955,75.752 13.544,75.634C12.934,75.458 12.4,75.17 11.983,75.076C11.282,74.917 10.69,75.033 10.195,75.353C9.791,75.614 9.367,76.059 9.155,76.935C9.131,77.037 9.116,77.14 9.11,77.245C9.054,78.362 9.571,79.435 10.48,80.087C10.559,80.143 10.643,80.193 10.731,80.235C15.895,82.721 19.954,87.043 22.112,92.353C22.128,92.392 22.145,92.431 22.164,92.469C23.264,94.681 24.719,96.698 26.471,98.439C26.598,98.57 26.805,98.745 27.147,98.864C27.323,98.925 28.009,99.029 29.126,99.069C37.453,99.368 77.307,98.947 82.282,98.942C84.199,99.101 86.024,98.076 86.876,96.358C87.927,94.275 90.461,88.469 91.238,87.179C91.407,87.135 91.674,87.061 91.832,87.007C92.239,86.866 92.603,86.661 92.902,86.376C92.911,86.367 92.92,86.358 92.929,86.349C94.334,84.944 95.594,81.973 96.504,78.813C97.814,74.265 98.465,69.375 98.413,68.863C98.368,68.407 98.139,67.99 97.779,67.708C97.419,67.425 96.96,67.301 96.507,67.365C96.014,67.434 89.934,69.17 87.902,69.628C88,68.187 88.018,66.746 88.108,65.306C88.11,65.276 88.111,65.247 88.112,65.217C88.113,65.029 88.148,64.843 88.213,64.667L88.213,64.664C91.93,60.102 97.986,47.558 98.878,45.864C98.934,45.756 98.979,45.643 99.011,45.526C99.204,44.826 99.245,44.093 99.131,43.376C98.97,42.366 98.395,42.013 97.957,41.838C97.545,41.674 97.076,41.655 96.604,41.83C96.276,41.952 95.93,42.222 95.702,42.46C95.038,43.133 91.861,47.032 87.8,51.626C87.802,51.625 87.802,45.556 87.802,45.556C87.811,45.478 87.817,45.382 87.817,45.285C87.817,43.918 86.692,42.793 85.325,42.793C83.958,42.793 82.833,43.918 82.833,45.285C82.833,45.379 82.839,45.472 82.849,45.565C82.848,45.556 82.848,57.026 82.848,57.026C80.565,59.502 78.146,61.847 75.602,64.051L75.602,62.74C75.602,61.2 75.601,59.661 75.676,58.121C75.724,57.631 75.683,57.159 75.56,56.706C75.562,56.714 75.562,55.41 75.562,55.41C76.107,54.515 76.617,54.221 76.795,53.98C77.117,53.544 77.224,53.122 77.2,52.682L77.202,52.74C77.196,52.139 76.928,51.531 76.361,51.048C76.141,50.86 75.854,50.691 75.562,50.55L75.562,29.124C76.65,27.577 77.895,26.151 79.278,24.866C79.61,24.56 80.133,23.89 80.254,23.436C80.391,22.924 80.312,22.466 80.114,22.088C79.897,21.672 79.387,20.927 77.955,21.112C77.83,21.128 77.707,21.158 77.589,21.202C76.908,21.453 76.235,21.726 75.573,22.021C75.572,22.021 75.572,4.51 75.572,4.51C75.572,1.233 73.997,0.828 73.09,0.828C73.04,0.828 72.991,0.831 72.941,0.835C71.958,0.922 71.146,1.567 70.795,2.43ZM86.77,63.77C90.41,59.45 96.5,46.77 97.39,45.08C97.519,44.611 97.546,44.12 97.47,43.64C97.394,43.16 97.01,43.49 96.9,43.64C96.09,44.46 91.49,50.15 86.12,56.01L86.12,45.44C86.13,45.389 86.135,45.337 86.135,45.285C86.135,44.84 85.769,44.475 85.325,44.475C84.881,44.475 84.515,44.84 84.515,45.285C84.515,45.337 84.52,45.389 84.53,45.44L84.53,57.68C81.604,60.899 78.452,63.907 75.1,66.68C74.85,66.9 74.32,66.68 73.92,66.68L73.92,62.74C73.92,61.15 73.92,59.56 74,57.97C74.039,57.632 73.998,57.289 73.88,56.97L73.88,54.97C74.73,53.35 75.55,53.14 75.52,52.76C75.52,52.23 74.41,51.85 74.02,51.76C73.97,51.76 73.92,51.7 73.88,51.6L73.88,28.6C75.114,26.774 76.553,25.097 78.17,23.6C78.4,23.4 79.1,22.66 78.17,22.78C76.697,23.323 75.266,23.975 73.89,24.73L73.89,4.51C73.89,2.92 73.53,2.51 73.09,2.51C72.615,2.552 72.256,2.974 72.29,3.45L72.29,3.57C71.672,3.933 70.995,4.183 70.29,4.31C68.48,4.44 67.7,3.11 65.86,4.69C63.13,7.03 62.44,3.78 58.86,6.91C58.46,7.26 59.69,8.75 59.95,10.41C60.009,12.195 59.838,13.979 59.44,15.72C62.57,14.05 63.71,16.32 66.54,13.66C67.75,12.52 70.93,13.77 72.29,14.4L72.29,25.56C69.013,27.282 65.985,29.442 63.29,31.98C57.09,37.69 50.07,46.27 48.72,47.2C48.075,47.549 47.354,47.734 46.62,47.74C46.52,47.74 46.55,42.07 46.39,40.65C46.1,38.13 47.28,37.23 48.32,35.65C48.52,35.35 48.78,34.25 48.51,34.26C47.78,34.26 46.97,35.26 46.34,34.26C46.011,33.56 45.853,32.793 45.88,32.02C45.81,30.89 45.88,29.4 45.88,27.35C45.88,26.81 48.33,27.44 48.99,27.11C49.45,26.88 48.99,26.23 48.82,26.17C48.39,26 46.82,26.27 46.38,26.07C45.8,25.79 45.96,25.22 45.88,24.76C45.66,23.45 46.14,14.76 46.09,14.44C46.01,13.93 46.2,13.54 45.76,13.44C45.32,13.34 45.37,15.73 44.91,15.73C41.32,15.75 43,18 37,18.6C36.26,18.68 37.47,19.31 37.25,20.78C37.09,21.89 36.68,22.95 37.44,22.97C41.67,23.06 42.16,21.37 43.92,21.49C44.11,21.49 44.37,21.36 44.42,22.49C44.42,23.15 44.61,25.79 44.03,25.95C42.85,26.28 41.73,25.81 40.6,26.35C40.29,26.49 40.55,27.24 40.86,27.21C41.4,27.16 44.03,27.08 44.12,27.4C44.39,28.29 44.73,35.16 43.6,35.78C42.33,37.01 35.18,41.68 34.6,49.94C34.1,57.59 38.52,61.28 38.49,61.84C37.246,63.252 36.234,64.852 35.49,66.58C33.3,71.5 35.22,77.29 35.54,77.33C37.04,77.54 38.54,77.99 40.06,78.23C41.71,78.49 43.63,79.49 43.28,81.69C43.28,81.94 42.28,81.4 42.08,81.54C41.169,81.018 40.231,80.544 39.27,80.12C38.27,79.91 22.12,79.49 20.43,79.22C19.56,79.08 19.33,78.42 19.8,77.57C19.849,77.118 19.784,76.66 19.61,76.24C19.082,75.005 18.474,73.806 17.79,72.65C17.434,72.19 17.228,71.631 17.2,71.05C17.2,70.18 18.03,70.7 18.09,70.73C18.86,71.11 26.85,75.73 30.43,77.19C30.56,77.24 31.05,76.1 30.67,75.9C21.118,70.911 12.129,64.91 3.86,58C3.483,57.813 3.078,57.691 2.66,57.64C2.66,57.93 2.44,58.38 2.53,58.48C3.94,60 7.68,63.05 16.11,69.48C16.605,69.812 16.903,70.37 16.903,70.967C16.903,71.426 16.726,71.867 16.41,72.2C16.153,72.725 16.124,73.333 16.33,73.88C16.676,74.635 17.077,75.364 17.53,76.06C18.42,77.6 19.53,78.06 19.08,78.58C18.63,79.1 14.23,77.58 13.08,77.25C11.93,76.92 11.08,76.13 10.79,77.33C10.762,77.877 11.015,78.401 11.46,78.72C17.001,81.387 21.355,86.023 23.67,91.72C24.691,93.773 26.042,95.645 27.67,97.26C28.17,97.79 77.3,97.26 82.37,97.26C83.614,97.39 84.814,96.73 85.37,95.61C86.53,93.31 89.46,86.68 90.05,85.94C90.42,85.47 91.29,85.59 91.74,85.16C94.9,82 96.82,69.83 96.74,69.03C96.24,69.1 89.91,70.92 88.09,71.31C87.26,71.48 86.09,70.64 86.19,69.97C86.32,68.38 86.33,66.79 86.43,65.2C86.435,64.704 86.551,64.215 86.77,63.77ZM72.026,81.823C71.93,82.83 71.785,83.915 71.51,84.09C70.51,84.75 49.96,84.29 47.87,84.35C46.34,84.45 46.45,80.95 46.41,80.27C46.41,79.85 48.52,80.11 48.02,79.27C47.24,78.239 46.69,77.052 46.41,75.79C46.134,74.647 45.997,73.476 46,72.3C46.146,70.613 46.43,68.941 46.85,67.3C47.78,62.89 52.16,60.48 52.27,60.01C52.27,59.8 51.86,59.73 51.64,59.74C50.75,59.74 47.89,60.74 47.01,60.68C46.31,60.68 46.21,52.9 46.69,51.01C47.138,49.759 47.867,48.626 48.82,47.7C50.92,45.7 59.45,36.3 60.14,35.7C58.32,38.82 56.06,43.26 56.14,45.89C56.31,54.36 62.43,54.72 60.66,57.08C58.7,60.297 57.135,63.738 56,67.33C53.87,76.5 56.09,80.54 57.07,82.33C58.05,84.12 70.44,79.07 71.77,78.91C72,78.88 72.28,79.78 72.22,80.15L72.19,80.15C72.14,80.432 72.096,81.106 72.027,81.82C71.606,81.772 71.217,81.566 70.939,81.24C70.858,81.144 70.788,81.041 70.731,80.932L70.706,80.94C70.76,81.043 70.826,81.14 70.902,81.231C71.186,81.57 71.59,81.781 72.026,81.823ZM70.423,81.035C70.382,81.541 70.331,82.112 70.255,82.589C69.851,82.624 69.317,82.665 68.804,82.684C67.824,82.722 66.628,82.745 65.309,82.757C67.254,82.131 69.137,81.464 70.423,81.035ZM59.179,56.279C57.169,59.59 55.564,63.13 54.397,66.823C54.383,66.865 54.372,66.907 54.362,66.95C52.212,76.205 54.235,80.614 55.372,82.728C52.271,82.699 49.604,82.662 48.374,82.664L48.228,81.45C48.586,81.334 48.881,81.166 49.092,80.983C49.498,80.634 49.72,80.198 49.769,79.691C49.804,79.337 49.759,78.904 49.465,78.41C49.433,78.356 49.398,78.305 49.361,78.255C48.726,77.417 48.28,76.452 48.052,75.425C48.049,75.415 48.047,75.406 48.045,75.396C47.808,74.414 47.686,73.409 47.682,72.399C47.821,70.803 48.088,69.245 48.479,67.717C48.485,67.694 48.491,67.67 48.495,67.647C49.141,64.585 51.777,62.688 52.825,61.821C53.566,61.208 53.853,60.624 53.907,60.393C53.937,60.268 53.952,60.139 53.952,60.01C53.952,59.397 53.686,58.853 53.125,58.469C52.749,58.212 52.086,58.055 51.632,58.058C51.104,58.061 49.998,58.32 48.9,58.605C48.67,58.664 48.442,58.728 48.226,58.787C48.198,58.552 48.172,58.303 48.156,58.065C48.009,55.86 48.038,52.707 48.297,51.52C48.666,50.519 49.243,49.634 49.992,48.906C50.838,48.098 52.705,46.114 54.682,43.989C54.524,44.704 54.442,45.364 54.459,45.941C54.556,50.757 56.373,53.268 57.891,54.916C58.293,55.352 58.673,55.72 58.985,56.053C59.046,56.119 59.117,56.203 59.179,56.279ZM32.885,50.872C29.889,57.54 28.091,64.35 26.888,67.358C26.489,68.353 26.089,69.025 25.775,69.355C25.274,69.881 24.735,70.032 24.28,70.032C24.223,70.032 23.757,70.032 23.131,69.616C22.487,69.187 20.437,67.762 17.698,66.258C22.128,69.217 26.718,71.939 31.448,74.409C31.45,74.41 31.452,74.411 31.453,74.412C32.028,74.714 32.438,75.272 32.489,76.071C32.528,76.698 32.212,77.616 31.945,78.02L31.892,78.096L34.06,78.181C34.008,78.104 33.957,78.019 33.909,77.926C33.312,76.776 31.713,70.944 33.948,65.908C34.588,64.423 35.409,63.026 36.392,61.747C35.265,60.167 32.858,56.167 32.885,50.872ZM20.39,73.92L21.164,75.598C21.431,76.243 21.539,76.941 21.483,77.636C22.778,77.73 25.276,77.838 28.016,77.946C25.679,76.824 22.637,75.165 20.39,73.92ZM84.35,67.2C84.304,68.461 84.099,69.711 83.74,70.92C83.58,71.38 81.65,71.92 81.05,71.92C79.78,72.02 79.12,73.09 78.77,74.53C78.48,75.74 76.89,77.47 75.77,77.43C75.364,77.031 74.983,76.607 74.63,76.16C74.334,75.714 74.067,75.25 73.83,74.77L73.83,70.77C79.37,67.54 81.31,67.49 83.99,65.77C84.219,66.212 84.342,66.702 84.35,67.2ZM82.56,68.42C82.495,68.911 82.401,69.399 82.281,69.88C81.904,70.017 81.259,70.238 81.05,70.238C81.006,70.238 80.962,70.24 80.918,70.244C78.93,70.4 77.684,71.879 77.136,74.133C77.135,74.135 77.135,74.136 77.135,74.138C77.033,74.563 76.632,75.066 76.208,75.433C76.14,75.353 76.074,75.272 76.008,75.191C75.822,74.91 75.662,74.642 75.514,74.367C75.512,74.363 75.512,71.745 75.512,71.745C78.895,69.84 80.846,69.176 82.56,68.42ZM71.77,71C71.16,71.43 70.4,66.32 70.57,65C71.07,61.37 71.69,60.23 71.93,59.91C72.05,60 72.17,60.08 72.28,60.18L72.28,70.37C72.191,70.634 72.01,70.858 71.77,71ZM10.83,60.95C15.1,59.36 31.15,46.95 34.33,43.2C34.79,42.66 35.09,43.2 35.07,43.2C28.4,53.6 25.75,68.35 24.28,68.35C24.16,68.35 17.79,63.62 10.91,61.44C10.83,61.4 10.75,61 10.83,60.95ZM47.125,59.002L47.01,58.998C47.048,58.998 47.087,59 47.125,59.002ZM68.66,41.77C68.81,38.052 69.867,34.426 71.74,31.21C71.81,31.08 72.09,31.45 72.27,31.87L72.27,50.08C71.95,50.76 71.27,51.44 70.08,50.08C68.69,48.37 68.57,44 68.66,41.7L68.66,41.77ZM74.712,50.21C74.591,50.171 74.484,50.141 74.398,50.121C74.274,50.093 74.147,50.078 74.02,50.078C74.206,50.078 74.461,50.102 74.712,50.21ZM70.588,39.354C70.457,40.174 70.374,41.004 70.34,41.838L70.336,41.897C70.293,43.152 70.314,44.995 70.588,46.631L70.588,39.354ZM33.58,42.41L33.654,42.292C33.964,41.81 34.497,41.518 35.07,41.518C34.397,41.518 33.878,41.79 33.58,42.41ZM48.448,32.579L48.51,32.578L48.448,32.579ZM71.121,8.73C71.129,7.198 71.528,5.694 72.28,4.36L72.28,13.36C71.611,11.901 71.218,10.331 71.121,8.73ZM71.121,8.73L71.12,8.77L71.12,8.72L71.121,8.73Z"/>
    </g>
</svg>
