<?xml version="1.0" encoding="UTF-8" standalone="no"?>
<!DOCTYPE svg PUBLIC "-//W3C//DTD SVG 1.1//EN" "http://www.w3.org/Graphics/SVG/1.1/DTD/svg11.dtd">
<svg width="100%" height="100%" viewBox="0 0 43 43" version="1.1" xmlns="http://www.w3.org/2000/svg" xmlns:xlink="http://www.w3.org/1999/xlink" xml:space="preserve" xmlns:serif="http://www.serif.com/" style="fill-rule:evenodd;clip-rule:evenodd;stroke-linejoin:round;stroke-miterlimit:2;">
    <g transform="matrix(0.709365,-1.08521e-17,-1.08521e-17,-0.709365,-111.36,51.0135)">
        <path d="M187.744,14.562C197.775,20.081 207.53,27.168 215.878,35.003C213.729,46.249 210.003,57.716 205.132,68.077C193.772,69.508 181.715,69.508 170.356,68.077C165.484,57.716 161.759,46.249 159.61,35.003C167.958,27.168 177.713,20.081 187.744,14.562Z" style="fill:rgb(40,50,226);"/>
    </g>
    <g transform="matrix(0.483596,0,0,0.483596,5.05773,0.0577217)">
        <path d="M54.148,46.938C50.138,46.938 46.88,50.206 46.88,54.216C46.88,58.226 50.138,61.483 54.148,61.483C58.158,61.483 61.426,58.226 61.426,54.216C61.426,50.206 58.158,46.938 54.148,46.938ZM54.672,48.008C55.994,48.12 57.206,48.645 58.166,49.456L54.672,52.951L54.672,48.008ZM53.628,52.951L50.135,49.458C51.091,48.645 52.304,48.119 53.628,48.008L53.628,52.951ZM52.89,53.689L47.951,53.689C48.063,52.363 48.588,51.157 49.399,50.198L52.89,53.689ZM52.89,54.733L49.399,58.224C48.587,57.263 48.061,56.056 47.951,54.733L52.89,54.733ZM53.628,55.472L53.628,60.413C52.304,60.302 51.092,59.776 50.136,58.964L53.628,55.472ZM54.672,55.472L58.165,58.966C57.205,59.776 55.994,60.301 54.672,60.413L54.672,55.472ZM55.41,54.733L60.356,54.733C60.245,56.058 59.719,57.267 58.904,58.228L55.41,54.733ZM55.41,53.689L58.905,50.194C59.718,51.154 60.244,52.361 60.355,53.689L55.41,53.689Z" style="fill-rule:nonzero;stroke:white;stroke-width:0.41px;"/>
        <path d="M37.942,46.938C33.932,46.938 30.674,50.206 30.674,54.216C30.674,58.226 33.932,61.483 37.942,61.483C41.952,61.483 45.22,58.226 45.22,54.216C45.22,50.206 41.952,46.938 37.942,46.938ZM38.466,48.008C39.788,48.12 40.999,48.645 41.96,49.456L38.466,52.951L38.466,48.008ZM37.422,52.951L33.929,49.458C34.885,48.645 36.097,48.119 37.422,48.008L37.422,52.951ZM36.683,53.689L31.745,53.689C31.856,52.363 32.381,51.157 33.192,50.198L36.683,53.689ZM36.683,54.733L33.193,58.224C32.38,57.263 31.855,56.056 31.745,54.733L36.683,54.733ZM37.422,55.472L37.422,60.413C36.098,60.302 34.885,59.776 33.93,58.964L37.422,55.472ZM38.466,55.472L41.959,58.966C40.999,59.776 39.787,60.301 38.466,60.413L38.466,55.472ZM39.204,54.733L44.15,54.733C44.039,56.058 43.512,57.267 42.698,58.228L39.204,54.733ZM39.204,53.689L42.699,50.194C43.511,51.154 44.038,52.361 44.149,53.689L39.204,53.689Z" style="fill-rule:nonzero;stroke:white;stroke-width:0.41px;"/>
        <path d="M21.736,46.938C17.726,46.938 14.468,50.206 14.468,54.216C14.468,58.226 17.726,61.483 21.736,61.483C25.745,61.483 29.014,58.226 29.014,54.216C29.014,50.206 25.745,46.938 21.736,46.938ZM22.26,48.008C23.581,48.12 24.793,48.645 25.754,49.456L22.26,52.951L22.26,48.008ZM21.215,52.951L17.723,49.458C18.678,48.645 19.891,48.119 21.215,48.008L21.215,52.951ZM20.477,53.689L15.539,53.689C15.65,52.363 16.175,51.157 16.986,50.198L20.477,53.689ZM20.477,54.733L16.987,58.224C16.174,57.264 15.649,56.056 15.538,54.733L20.477,54.733ZM21.215,55.472L21.215,60.413C19.892,60.302 18.679,59.776 17.724,58.964L21.215,55.472ZM22.26,55.472L25.753,58.966C24.792,59.776 23.581,60.301 22.26,60.413L22.26,55.472ZM22.998,54.733L27.943,54.733C27.833,56.058 27.306,57.267 26.492,58.228L22.998,54.733ZM22.998,53.689L26.492,50.194C27.305,51.154 27.832,52.361 27.943,53.689L22.998,53.689Z" style="fill-rule:nonzero;stroke:white;stroke-width:0.41px;"/>
        <path d="M43.643,41.466L43.643,34.543L14.426,34.543C13.34,34.543 12.463,35.42 12.463,36.506L12.463,41.988L43.121,41.988C43.414,41.988 43.643,41.748 43.643,41.466Z" style="fill-rule:nonzero;stroke:white;stroke-width:0.41px;"/>
        <path d="M11.419,47.564L11.419,37.091C11.032,37.185 10.677,37.383 10.385,37.665C9.978,38.083 9.759,38.636 9.759,39.221L9.759,47.783C9.759,48.18 9.863,48.577 10.072,48.911L11.419,47.564Z" style="fill-rule:nonzero;stroke:white;stroke-width:0.41px;"/>
        <path d="M8.714,46.509L8.714,40.495C8.015,40.714 7.513,41.361 7.513,42.134L7.513,44.86C7.513,45.632 8.015,46.28 8.714,46.509Z" style="fill-rule:nonzero;stroke:white;stroke-width:0.41px;"/>
        <path d="M17.162,26.617L17.162,33.498L21.965,33.498L21.965,26.617C21.965,25.698 22.383,24.79 23.166,23.975C23.344,23.787 23.448,23.537 23.448,23.276C23.448,22.701 22.989,22.242 22.414,22.242L16.713,22.242C16.139,22.242 15.679,22.701 15.679,23.276C15.679,23.537 15.784,23.787 15.961,23.975C16.744,24.79 17.162,25.698 17.162,26.617Z" style="fill-rule:nonzero;stroke:white;stroke-width:0.41px;"/>
        <rect x="44.688" y="16.989" width="16.791" height="1.88" style="stroke:white;stroke-width:0.41px;"/>
        <path d="M28.44,29.959L28.44,33.498L31.269,33.498L31.269,29.959C31.269,29.186 30.632,28.549 29.86,28.549C29.077,28.549 28.44,29.186 28.44,29.959Z" style="fill-rule:nonzero;stroke:white;stroke-width:0.41px;"/>
        <path d="M4.569,58.466L12.494,50.54L12.494,47.971L2,58.466L4.569,58.466Z" style="fill-rule:nonzero;stroke:white;stroke-width:0.41px;"/>
        <path d="M62.001,49.955C61.708,49.955 61.479,49.715 61.479,49.433L61.479,26.753C61.479,25.615 62.272,24.654 63.348,24.424L63.348,19.913L42.818,19.913L42.818,24.424C43.894,24.664 44.688,25.615 44.688,26.753L44.688,41.466C44.688,42.322 43.988,43.032 43.121,43.032L12.463,43.032L12.463,46.52L12.641,46.342C12.797,46.196 13.016,46.154 13.215,46.227C13.403,46.311 13.539,46.499 13.539,46.708L13.539,52.242C13.58,52.263 13.612,52.273 13.653,52.294C14.51,48.629 17.809,45.893 21.736,45.893C25.672,45.893 28.993,48.65 29.849,52.336C30.695,48.65 34.005,45.893 37.942,45.893C41.879,45.893 45.199,48.65 46.055,52.336C46.901,48.65 50.211,45.893 54.148,45.893C58.127,45.893 61.468,48.702 62.283,52.451L66,52.451L66,49.955L62.001,49.955ZM51.506,39.064L46.891,39.064L46.891,29.771C46.891,28.497 47.925,27.463 49.199,27.463C50.473,27.463 51.506,28.497 51.506,29.771L51.506,39.064ZM59.275,39.064L54.66,39.064L54.66,29.771C54.66,28.497 55.694,27.463 56.968,27.463C58.241,27.463 59.275,28.497 59.275,29.771L59.275,39.064Z" style="fill-rule:nonzero;stroke:white;stroke-width:0.41px;"/>
        <path d="M8.62,58.466L12.494,54.592L12.494,52.023L6.041,58.466L8.62,58.466Z" style="fill-rule:nonzero;stroke:white;stroke-width:0.41px;"/>
        <path d="M12.494,58.466L12.494,56.074L10.093,58.466L12.494,58.466Z" style="fill-rule:nonzero;stroke:white;stroke-width:0.41px;"/>
        <path d="M46.076,52.451C46.066,52.42 46.055,52.378 46.055,52.336C46.045,52.378 46.035,52.42 46.024,52.451L46.076,52.451Z" style="fill-rule:nonzero;stroke:white;stroke-width:0.41px;"/>
        <path d="M29.87,52.451C29.86,52.42 29.849,52.378 29.849,52.336C29.839,52.378 29.828,52.42 29.818,52.451L29.87,52.451Z" style="fill-rule:nonzero;stroke:white;stroke-width:0.41px;"/>
        <path d="M17.298,17.25C16.663,20.003 21.025,20.514 21.109,17.71C21.37,17.553 21.61,17.344 21.809,17.104C22.781,17.59 23.793,17.553 24.9,17.292C26.063,19.177 28.829,19.091 29.891,17.167C31.141,17.877 32.778,17.731 33.494,16.102C35.38,16.708 37.697,15.286 37.388,12.666C38.328,12.144 38.934,11.131 38.934,10.025C38.934,7.36 35.756,5.97 33.796,7.821C32.687,6.209 30.363,6.067 29.045,7.529C27.596,5.945 24.968,6.361 24.075,8.322C22.487,7.393 20.204,8.319 19.992,10.306C17.766,9.606 15.75,11.863 16.661,14.003C16.226,15.09 16.437,16.374 17.298,17.25Z" style="fill-rule:nonzero;stroke:white;stroke-width:0.41px;"/>
    </g>
</svg>
