<?xml version="1.0" encoding="UTF-8" standalone="no"?>
<!DOCTYPE svg PUBLIC "-//W3C//DTD SVG 1.1//EN" "http://www.w3.org/Graphics/SVG/1.1/DTD/svg11.dtd">
<svg width="100%" height="100%" viewBox="0 0 43 42" version="1.1" xmlns="http://www.w3.org/2000/svg" xmlns:xlink="http://www.w3.org/1999/xlink" xml:space="preserve" xmlns:serif="http://www.serif.com/" style="fill-rule:evenodd;clip-rule:evenodd;stroke-linecap:round;stroke-linejoin:round;stroke-miterlimit:1.5;">
    <g transform="matrix(1,0,0,1,-529,-946)">
        <g id="palivo-nafta-6-a" transform="matrix(1,0,0,1,279.399,946.016)">
            <rect x="250" y="0" width="41.667" height="41.667" style="fill:none;"/>
            <g transform="matrix(0.704252,-1.07739e-17,-1.07739e-17,-0.704252,138.018,51.9221)">
                <path d="M187.744,14.562C196.527,18.901 205.214,23.916 213.363,29.353C213.997,39.129 213.997,49.16 213.363,58.936C205.214,64.373 196.527,69.388 187.744,73.727C178.961,69.388 170.274,64.373 162.125,58.936C161.491,49.16 161.491,39.129 162.125,29.353C170.274,23.916 178.961,18.901 187.744,14.562Z" style="fill:rgb(38,38,38);"/>
            </g>
            <g transform="matrix(1.26579,0,0,1.26579,-76.5052,-1264.52)">
                <path d="M279.852,1006.39C275.906,1007.74 271.96,1007.67 268.014,1006.39L268.014,1013.54C271.96,1015.25 275.906,1015.45 279.852,1013.54L279.852,1006.39Z" style="fill:white;stroke:black;stroke-width:0.33px;"/>
            </g>
            <g transform="matrix(1.26579,0,0,1.26579,-76.5052,-1256.16)">
                <path d="M279.852,1006.39C276.247,1008.11 272.274,1007.95 268.014,1006.39L268.014,1013.54C271.96,1015.25 275.906,1015.45 279.852,1013.54L279.852,1006.39Z" style="fill:white;stroke:black;stroke-width:0.33px;"/>
            </g>
            <g transform="matrix(1.67405,0,0,0.508327,-194.351,-495.306)">
                <circle cx="277.523" cy="992.802" r="4.476" style="fill:white;stroke:black;stroke-width:0.34px;"/>
            </g>
            <g transform="matrix(1.64212,0,0,1.64212,-179.595,-1643.25)">
                <path d="M269.381,1020.23C269.375,1020.23 269.371,1020.23 269.37,1020.23L269.37,1016.42C272.491,1017.45 275.543,1017.54 278.496,1016.42L278.496,1020.43C278.495,1020.43 278.491,1020.43 278.485,1020.43C278.322,1021.17 276.345,1021.75 273.933,1021.75C271.415,1021.75 269.37,1021.11 269.37,1020.33C269.37,1020.3 269.374,1020.27 269.381,1020.23Z" style="fill:white;stroke:black;stroke-width:0.25px;"/>
            </g>
            <g transform="matrix(1,0,0,1,42.7576,-995.806)">
                <ellipse cx="230.359" cy="1005.7" rx="1.026" ry="0.527" style="fill:white;stroke:black;stroke-width:0.42px;"/>
            </g>
        </g>
    </g>
</svg>
