<?xml version="1.0" encoding="UTF-8" standalone="no"?>
<!DOCTYPE svg PUBLIC "-//W3C//DTD SVG 1.1//EN" "http://www.w3.org/Graphics/SVG/1.1/DTD/svg11.dtd">
<svg width="100%" height="100%" viewBox="0 0 43 42" version="1.1" xmlns="http://www.w3.org/2000/svg" xmlns:xlink="http://www.w3.org/1999/xlink" xml:space="preserve" xmlns:serif="http://www.serif.com/" style="fill-rule:evenodd;clip-rule:evenodd;stroke-linecap:round;stroke-linejoin:round;stroke-miterlimit:1.5;">
    <g transform="matrix(1,0,0,1,-421,-1094)">
        <g id="stavivo-tramy-4-b" transform="matrix(1,0,0,1,421.763,1094.32)">
            <rect x="0" y="0" width="41.667" height="41.667" style="fill:none;"/>
            <clipPath id="_clip1">
                <rect x="0" y="0" width="41.667" height="41.667"/>
            </clipPath>
            <g clip-path="url(#_clip1)">
                <g transform="matrix(5.36956e-17,0.701622,0.701622,-5.36956e-17,-10.3744,-110.814)">
                    <path d="M187.744,14.562C200.087,20.643 211.245,31.801 217.326,44.144C211.245,56.488 200.087,67.646 187.744,73.727C175.4,67.646 164.243,56.488 158.162,44.144C164.243,31.801 175.4,20.643 187.744,14.562Z" style="fill:rgb(226,46,40);"/>
                </g>
                <g transform="matrix(1,0,0,1,-146.008,-1199.83)">
                    <rect x="149.954" y="1215.51" width="30.984" height="6.383" style="stroke:white;stroke-width:0.42px;"/>
                    <g transform="matrix(1,0,-0.363426,0.289388,444.067,861.907)">
                        <rect x="149.954" y="1215.51" width="30.984" height="6.383" style="stroke:white;stroke-width:0.84px;"/>
                    </g>
                    <path d="M183.23,1213.76L183.258,1213.66L183.258,1220.04L180.938,1221.89L180.938,1215.59L183.23,1213.76Z" style="stroke:white;stroke-width:0.42px;"/>
                </g>
                <g transform="matrix(1,0,0,1,-146.008,-1191.6)">
                    <rect x="149.954" y="1215.51" width="30.984" height="6.383" style="stroke:white;stroke-width:0.42px;"/>
                    <g transform="matrix(1,0,-0.363426,0.289388,444.067,861.907)">
                        <rect x="149.954" y="1215.51" width="30.984" height="6.383" style="stroke:white;stroke-width:0.84px;"/>
                    </g>
                    <path d="M183.23,1213.76L183.258,1213.66L183.258,1220.04L180.938,1221.89L180.938,1215.59L183.23,1213.76Z" style="stroke:white;stroke-width:0.42px;"/>
                </g>
                <g transform="matrix(1,0,0,1,-147.703,-1193.97)">
                    <rect x="149.954" y="1215.51" width="30.984" height="6.383" style="stroke:white;stroke-width:0.42px;"/>
                    <g transform="matrix(1,0,-0.363426,0.289388,444.067,861.907)">
                        <rect x="149.954" y="1215.51" width="30.984" height="6.383" style="stroke:white;stroke-width:0.84px;"/>
                    </g>
                    <path d="M183.23,1213.76L183.258,1213.66L183.258,1220.04L180.938,1221.89L180.938,1215.59L183.23,1213.76Z" style="stroke:white;stroke-width:0.42px;"/>
                </g>
            </g>
        </g>
    </g>
</svg>
