<?xml version="1.0" encoding="UTF-8" standalone="no"?>
<!DOCTYPE svg PUBLIC "-//W3C//DTD SVG 1.1//EN" "http://www.w3.org/Graphics/SVG/1.1/DTD/svg11.dtd">
<svg width="100%" height="100%" viewBox="0 0 43 42" version="1.1" xmlns="http://www.w3.org/2000/svg" xmlns:xlink="http://www.w3.org/1999/xlink" xml:space="preserve" xmlns:serif="http://www.serif.com/" style="fill-rule:evenodd;clip-rule:evenodd;stroke-linecap:round;stroke-linejoin:round;stroke-miterlimit:1.5;">
    <g transform="matrix(1,0,0,1,-371,-1094)">
        <g id="stavivo-kamen-3-b" transform="matrix(1,0,0,1,371.905,1094.17)">
            <rect x="0" y="0" width="41.667" height="41.667" style="fill:none;"/>
            <g transform="matrix(-0.362672,0.628167,0.628167,0.362672,61.1928,-113.735)">
                <path d="M187.744,14.562C201.739,23.684 212.461,42.254 213.363,58.936C198.466,66.495 177.022,66.495 162.125,58.936C163.027,42.254 173.748,23.684 187.744,14.562Z" style="fill:rgb(226,46,40);"/>
            </g>
            <g transform="matrix(1.21489,0,0,1.21489,-123.479,-1453.46)">
                <path d="M109.693,1209.48L119.189,1204.17L129.548,1209.48L127.944,1219.59L120.915,1225.02L109.446,1220.94L107.967,1214.78L109.693,1209.48Z" style="stroke:white;stroke-width:0.34px;"/>
            </g>
            <g transform="matrix(12.3514,0,0,1.06414,-1451.7,-1271.91)">
                <path d="M119.268,1204.25L119.741,1215.06" style="fill:none;stroke:white;stroke-width:0.05px;"/>
            </g>
            <g transform="matrix(0.332196,0,0,0.449343,-9.0764,-527.562)">
                <path d="M129.607,1209.46L109.402,1220.98" style="fill:none;stroke:white;stroke-width:1.05px;"/>
            </g>
            <g transform="matrix(1.20009,0,0,1.21489,-121.882,-1453.46)">
                <path d="M107.967,1215.06L113.506,1213.72L120.925,1225.02" style="stroke:white;stroke-width:0.35px;"/>
            </g>
            <g transform="matrix(1.21489,0,0,1.21489,-123.479,-1453.46)">
                <path d="M113.664,1213.72L116.19,1205.98L121.675,1215.61L124.082,1213.72L128.028,1217.85L124.082,1222.57L120.215,1219.37L121.675,1215.61" style="stroke:white;stroke-width:0.34px;"/>
            </g>
            <g transform="matrix(1.21489,0,0,1.21489,-123.479,-1453.46)">
                <path d="M120.215,1219.37L117.768,1220.19" style="fill:none;stroke:white;stroke-width:0.34px;"/>
            </g>
        </g>
    </g>
</svg>
