<?xml version="1.0" encoding="UTF-8" standalone="no"?>
<!DOCTYPE svg PUBLIC "-//W3C//DTD SVG 1.1//EN" "http://www.w3.org/Graphics/SVG/1.1/DTD/svg11.dtd">
<svg width="100%" height="100%" viewBox="0 0 42 42" version="1.1" xmlns="http://www.w3.org/2000/svg" xmlns:xlink="http://www.w3.org/1999/xlink" xml:space="preserve" xmlns:serif="http://www.serif.com/" style="fill-rule:evenodd;clip-rule:evenodd;stroke-linecap:round;stroke-linejoin:round;stroke-miterlimit:1.5;">
    <g transform="matrix(1,0,0,1,-322,-110)">
        <g id="jidlo-bobule-2-b" transform="matrix(1,0,0,1,322.156,110.138)">
            <rect x="0" y="0" width="41.667" height="41.667" style="fill:none;"/>
            <clipPath id="_clip1">
                <rect x="0" y="0" width="41.667" height="41.667"/>
            </clipPath>
            <g clip-path="url(#_clip1)">
                <g transform="matrix(2.40201,0,0,1.85595,66.4142,-1.54243)">
                    <path d="M-23.076,11.879C-23.092,11.735 -23.1,11.587 -23.1,11.438C-23.1,4.391 -18.976,0.831 -18.976,0.831C-18.976,0.831 -14.853,4.391 -14.853,11.438C-14.853,11.587 -14.86,11.735 -14.876,11.879C-14.86,12.024 -14.853,12.171 -14.853,12.32C-14.853,19.368 -18.976,22.928 -18.976,22.928C-18.976,22.928 -23.1,19.368 -23.1,12.32C-23.1,12.171 -23.092,12.024 -23.076,11.879Z" style="fill:rgb(21,195,51);"/>
                </g>
                <g transform="matrix(1.35654,0,0,1.35654,-7.42795,-7.42795)">
                    <g transform="matrix(1,0,0,1,-1.67993,-0.220214)">
                        <path d="M15.159,11.446C14.891,11.124 14.66,10.746 14.538,10.381C14.303,9.676 14.54,8.912 14.54,8.912C14.54,8.912 15.259,9.938 15.632,10.262C15.957,10.544 16.779,10.854 16.779,10.854C16.779,10.854 16.158,9.328 16.352,8.397C16.556,7.421 18.253,5.696 18.253,5.696C18.253,5.696 18.023,6.841 18.097,7.796C18.171,8.744 18.652,10.032 18.652,10.032C18.652,10.032 19.03,9.72 19.516,9.406C19.925,9.142 21.086,9.039 21.315,8.81C21.815,8.31 22.601,7.063 22.601,7.063C22.601,7.063 22.898,8.331 22.435,9.62C22.197,10.282 20.931,11.541 20.931,11.541C20.931,11.541 22.783,11.249 23.384,11C23.99,10.749 25.297,10.032 25.297,10.032C25.297,10.032 24.454,11.541 23.795,12C23.372,12.294 22.787,12.536 22.177,12.679C20.821,12.054 19.385,11.766 18.33,11.649C17.465,11.553 16.341,11.409 15.159,11.446Z" style="stroke:white;stroke-width:0.31px;"/>
                    </g>
                    <g transform="matrix(1,0,0,1,-1.67993,-0.220214)">
                        <path d="M21.32,27.102C21.32,27.102 20.672,28.522 20.615,28.514C20.44,28.491 20.205,28.564 20.182,28.739L20.324,29.496C19.112,30.843 17.884,31.735 16.895,31.702C12.394,31.551 7.695,22.139 8.475,17.555C9.679,10.478 15.442,11.328 18.33,11.649C21.217,11.97 26.963,13.572 26.105,19.86C26.069,20.126 25.967,20.48 25.81,20.899C25.439,19.615 24.293,19.232 24.293,19.232C24.293,19.232 24.935,20.702 24.882,21.468C24.814,22.437 24.435,22.72 24.435,22.72C24.435,22.72 24.326,21.612 23.938,21.154C23.182,20.261 22.707,19.939 22.707,19.939C22.707,19.939 23.452,21.726 23.393,22.509C23.327,23.381 22.848,24.25 22.848,24.25C22.848,24.25 22.21,24.492 21.4,24.443C20.047,24.36 19.225,23.898 19.225,23.898C19.225,23.898 19.604,24.563 20.239,25.13C20.845,25.671 22.14,25.569 22.14,25.569C22.14,25.569 21.241,26.241 20.893,26.361C20.495,26.498 19.183,26.518 19.183,26.518C19.761,26.82 20.414,27.063 21.32,27.102Z" style="stroke:white;stroke-width:0.31px;"/>
                    </g>
                    <g transform="matrix(1,0,0,1,-1.67993,-0.220214)">
                        <path d="M24.297,19.234C24.374,19.261 25.602,19.713 25.872,21.16L25.876,21.187L25.88,21.219L25.883,21.248L25.885,21.271L25.887,21.302L25.888,21.323L25.889,21.35L25.889,21.375L25.889,21.377C25.889,21.385 25.889,21.393 25.889,21.401L25.889,21.402L25.889,21.404L25.889,21.415L25.888,21.43L25.888,21.43L25.888,21.43L25.888,21.43L25.888,21.431L25.888,21.459L25.888,21.46L25.888,21.462L25.887,21.47L25.887,21.488L25.887,21.491L25.886,21.494L25.886,21.503L25.885,21.517L25.885,21.522L25.885,21.526L25.884,21.535L25.884,21.547L25.883,21.554L25.883,21.56L25.882,21.568L25.882,21.578L25.881,21.587L25.881,21.594L25.88,21.601L25.879,21.609L25.878,21.62L25.878,21.628L25.877,21.634L25.877,21.64L25.876,21.654L25.875,21.663L25.874,21.667L25.874,21.672L25.872,21.689L25.871,21.698L25.871,21.701L25.871,21.705L25.869,21.727L25.868,21.734L25.868,21.735C25.865,21.759 25.863,21.782 25.86,21.806L25.86,21.807L25.859,21.814L25.856,21.837L25.855,21.841L25.855,21.844L25.854,21.852L25.852,21.871L25.851,21.877L25.85,21.881L25.849,21.889L25.847,21.904L25.846,21.913L25.845,21.919L25.844,21.926L25.842,21.939L25.841,21.95L25.84,21.956L25.839,21.962L25.838,21.973L25.835,21.987L25.834,21.994L25.834,21.998L25.832,22.007L25.83,22.026L25.829,22.032L25.828,22.035L25.827,22.042L25.823,22.066L25.823,22.07L25.823,22.071C25.762,22.455 25.674,22.851 25.614,23.103C25.438,23.847 24.898,24.73 24.361,25.46C23.92,26.059 22.605,27.017 21.871,27.091C21.694,27.109 21.516,27.112 21.341,27.103L21.314,27.102L21.314,27.102L21.312,27.102L21.301,27.101L21.288,27.101L21.285,27.1L21.281,27.1L21.271,27.1L21.261,27.099L21.256,27.099L21.25,27.098L21.242,27.098L21.235,27.097L21.227,27.096L21.22,27.096L21.213,27.095L21.208,27.095L21.198,27.094L21.189,27.093L21.185,27.093L21.182,27.093L21.169,27.092L21.159,27.091L21.156,27.091L21.155,27.09L21.134,27.088L21.128,27.088L21.119,27.087L21.103,27.085L21.101,27.085L21.098,27.085L21.088,27.084L21.077,27.082L21.073,27.082L21.068,27.082L21.059,27.081L21.051,27.08L21.044,27.079L21.038,27.078L21.031,27.077L21.025,27.076L21.016,27.075L21.008,27.074L21.003,27.074L20.999,27.073L20.988,27.072L20.978,27.071L20.975,27.07L20.973,27.07L20.958,27.068L20.948,27.067L20.947,27.066C20.938,27.065 20.929,27.064 20.92,27.063L20.919,27.062L20.909,27.061L20.896,27.059L20.893,27.059L20.889,27.058L20.88,27.057L20.87,27.055L20.865,27.054L20.86,27.053L20.852,27.052L20.845,27.051L20.838,27.05L20.83,27.049L20.825,27.048L20.819,27.047L20.81,27.045L20.801,27.044L20.797,27.043L20.794,27.043L20.782,27.041L20.772,27.039L20.77,27.039L20.769,27.038L20.747,27.035L20.743,27.034L20.735,27.032L20.719,27.029L20.717,27.029L20.715,27.028L20.705,27.027L20.694,27.025L20.69,27.024L20.686,27.023L20.678,27.021L20.669,27.02L20.663,27.019L20.657,27.017L20.651,27.016L20.645,27.015L20.637,27.013L20.629,27.012L20.624,27.011L20.62,27.01L20.609,27.008L20.601,27.006L20.598,27.005L20.596,27.005L20.581,27.002L20.573,27L20.572,27C20.563,26.998 20.555,26.996 20.546,26.994L20.545,26.994L20.536,26.992L20.523,26.989L20.521,26.988L20.517,26.988L20.509,26.986L20.499,26.984L20.495,26.983L20.49,26.981L20.483,26.98L20.476,26.978L20.469,26.977L20.462,26.975L20.457,26.974L20.452,26.973L20.443,26.97L20.435,26.969L20.432,26.968L20.428,26.967L20.425,26.966C20.396,26.959 20.368,26.952 20.339,26.945L20.336,26.944L20.334,26.943C20.32,26.94 20.307,26.936 20.293,26.932L20.29,26.932L20.287,26.931C20.273,26.927 20.26,26.923 20.247,26.92L20.245,26.919L20.242,26.919L20.225,26.914L20.203,26.907L20.201,26.907L20.201,26.907C20.187,26.903 20.174,26.899 20.161,26.895L20.158,26.894L20.155,26.894C20.142,26.89 20.13,26.886 20.117,26.882L20.115,26.882L20.111,26.881C20.099,26.877 20.086,26.873 20.074,26.869C20.059,26.865 20.044,26.86 20.029,26.855L20.027,26.855L20.017,26.851L19.99,26.843L19.985,26.841L19.981,26.84L19.969,26.836L19.95,26.83L19.942,26.827L19.935,26.825L19.924,26.821L19.911,26.817L19.899,26.813L19.89,26.809L19.882,26.807L19.872,26.803L19.857,26.798L19.846,26.794L19.841,26.792L19.835,26.79L19.814,26.783L19.803,26.779L19.801,26.778C19.788,26.774 19.775,26.769 19.762,26.764L19.762,26.764L19.76,26.763L19.727,26.751L19.724,26.75L19.721,26.749L19.711,26.746L19.693,26.739L19.687,26.736L19.682,26.735L19.673,26.731L19.659,26.726L19.651,26.723L19.644,26.72L19.637,26.717L19.627,26.713L19.616,26.709L19.608,26.706L19.602,26.704L19.596,26.701L19.581,26.695L19.572,26.692L19.569,26.69L19.565,26.689L19.545,26.681L19.538,26.678L19.537,26.677C19.527,26.673 19.516,26.669 19.506,26.665L19.505,26.664L19.499,26.662L19.48,26.654L19.477,26.653L19.474,26.651L19.466,26.648L19.454,26.643L19.448,26.641L19.444,26.639L19.437,26.636L19.429,26.632L19.421,26.629L19.416,26.626L19.411,26.624L19.405,26.622L19.395,26.617L19.389,26.615L19.385,26.613L19.382,26.612L19.369,26.606L19.363,26.603L19.362,26.603L19.36,26.602L19.357,26.601L19.339,26.593L19.322,26.585L19.32,26.584L19.319,26.583C19.308,26.578 19.297,26.573 19.287,26.569L19.284,26.567L19.282,26.566L19.277,26.564L19.268,26.56L19.254,26.553L19.248,26.55L19.244,26.548L19.237,26.545L19.229,26.541L19.222,26.538L19.217,26.535L19.213,26.533L19.209,26.531L19.202,26.528L19.198,26.526L19.197,26.525C19.188,26.521 19.183,26.518 19.183,26.518C19.183,26.518 20.495,26.498 20.893,26.361C21.241,26.241 22.14,25.569 22.14,25.569C22.14,25.569 22.049,25.576 21.903,25.577L21.877,25.577C21.466,25.576 20.674,25.519 20.239,25.13C19.604,24.563 19.225,23.898 19.225,23.898L19.235,23.903C19.33,23.954 20.132,24.365 21.4,24.443C21.476,24.447 21.55,24.45 21.623,24.449L21.659,24.449C22.342,24.442 22.848,24.25 22.848,24.25C22.848,24.25 23.327,23.381 23.393,22.509C23.452,21.726 22.707,19.939 22.707,19.939L22.713,19.943C22.768,19.982 23.229,20.317 23.938,21.154C24.326,21.612 24.435,22.72 24.435,22.72L24.439,22.717C24.481,22.682 24.818,22.376 24.882,21.468C24.932,20.75 24.371,19.413 24.301,19.249L24.293,19.232L24.297,19.234Z" style="stroke:white;stroke-width:0.31px;"/>
                    </g>
                    <g transform="matrix(1,0,0,1,-1.67993,-0.220214)">
                        <path d="M20.24,25.131C20.368,25.245 20.528,25.331 20.7,25.395C20.572,25.642 20.418,25.877 20.418,25.877C20.418,25.877 20.283,25.454 20.24,25.131Z" style="stroke:white;stroke-width:0.31px;"/>
                    </g>
                    <g transform="matrix(1,0,0,1,-1.67993,-0.220214)">
                        <path d="M29.966,36.393C27.156,36.347 24.271,36.112 22.74,34.842C19.292,31.984 20.088,29.184 21.341,27.103L21.341,27.103C21.516,27.112 21.694,27.109 21.871,27.091C22.605,27.017 23.92,26.059 24.361,25.46C24.898,24.73 25.438,23.847 25.614,23.103C25.666,22.884 25.739,22.557 25.797,22.223C27.475,21.251 29.603,20.951 31.972,22.787C32.583,23.26 34.036,25.538 35.164,27.987C35.052,27.961 34.949,28.005 34.883,28.094C34.777,28.235 34.806,28.435 34.947,28.541L35.468,28.715L36.055,30.121C36.4,31.099 36.909,34.13 36.462,34.847L36.361,34.967L36.011,34.462C35.87,34.356 35.67,34.384 35.564,34.525C35.458,34.666 35.486,34.867 35.627,34.973L36.196,35.163C35.157,36.339 33.025,36.43 30.708,36.401L30.356,35.892C30.215,35.786 30.014,35.814 29.908,35.955C29.822,36.07 29.825,36.224 29.966,36.393Z" style="stroke:white;stroke-width:0.31px;"/>
                    </g>
                    <g id="zrnka" transform="matrix(1,0,0,1,-1.67993,-0.220214)">
                        <g transform="matrix(-0.633337,-0.0863015,0.0863015,-0.633337,10.5708,24.2672)">
                            <path d="M-6.5,12C-6.5,12 -7,13.05 -7,13.5C-7,13.776 -6.776,14 -6.5,14C-6.224,14 -6,13.776 -6,13.5C-6,13.05 -6.5,12 -6.5,12Z" style="fill:white;stroke:white;stroke-width:0.33px;"/>
                        </g>
                        <g transform="matrix(-0.383949,0.511025,-0.511025,-0.383949,26.8636,37.9094)">
                            <path d="M-6.5,12C-6.5,12 -7,13.05 -7,13.5C-7,13.776 -6.776,14 -6.5,14C-6.224,14 -6,13.776 -6,13.5C-6,13.05 -6.5,12 -6.5,12Z" style="fill:white;stroke:white;stroke-width:0.33px;"/>
                        </g>
                        <g transform="matrix(-0.383949,0.511025,-0.511025,-0.383949,33.3741,39.0764)">
                            <path d="M-6.5,12C-6.5,12 -7,13.05 -7,13.5C-7,13.776 -6.776,14 -6.5,14C-6.224,14 -6,13.776 -6,13.5C-6,13.05 -6.5,12 -6.5,12Z" style="fill:white;stroke:white;stroke-width:0.33px;"/>
                        </g>
                        <g transform="matrix(-0.383949,0.511025,-0.511025,-0.383949,30.7638,42.9458)">
                            <path d="M-6.5,12C-6.5,12 -7,13.05 -7,13.5C-7,13.776 -6.776,14 -6.5,14C-6.224,14 -6,13.776 -6,13.5C-6,13.05 -6.5,12 -6.5,12Z" style="fill:white;stroke:white;stroke-width:0.33px;"/>
                        </g>
                        <g transform="matrix(-0.383949,0.511025,-0.511025,-0.383949,37.7963,43.8671)">
                            <path d="M-6.5,12C-6.5,12 -7,13.05 -7,13.5C-7,13.776 -6.776,14 -6.5,14C-6.224,14 -6,13.776 -6,13.5C-6,13.05 -6.5,12 -6.5,12Z" style="fill:white;stroke:white;stroke-width:0.33px;"/>
                        </g>
                        <g transform="matrix(-0.383949,0.511025,-0.511025,-0.383949,36.1994,34.8691)">
                            <path d="M-6.5,12C-6.5,12 -7,13.05 -7,13.5C-7,13.776 -6.776,14 -6.5,14C-6.224,14 -6,13.776 -6,13.5C-6,13.05 -6.5,12 -6.5,12Z" style="fill:white;stroke:white;stroke-width:0.33px;"/>
                        </g>
                        <g transform="matrix(-0.383949,0.511025,-0.511025,-0.383949,29.6582,33.7021)">
                            <path d="M-6.5,12C-6.5,12 -7,13.05 -7,13.5C-7,13.776 -6.776,14 -6.5,14C-6.224,14 -6,13.776 -6,13.5C-6,13.05 -6.5,12 -6.5,12Z" style="fill:white;stroke:white;stroke-width:0.33px;"/>
                        </g>
                        <g transform="matrix(-0.633337,-0.0863015,0.0863015,-0.633337,10.5708,20.2135)">
                            <path d="M-6.5,12C-6.5,12 -7,13.05 -7,13.5C-7,13.776 -6.776,14 -6.5,14C-6.224,14 -6,13.776 -6,13.5C-6,13.05 -6.5,12 -6.5,12Z" style="fill:white;stroke:white;stroke-width:0.33px;"/>
                        </g>
                        <g transform="matrix(-0.633337,-0.0863015,0.0863015,-0.633337,10.2249,32.5702)">
                            <path d="M-6.5,12C-6.5,12 -7,13.05 -7,13.5C-7,13.776 -6.776,14 -6.5,14C-6.224,14 -6,13.776 -6,13.5C-6,13.05 -6.5,12 -6.5,12Z" style="fill:white;stroke:white;stroke-width:0.33px;"/>
                        </g>
                        <g transform="matrix(-0.633337,-0.0863015,0.0863015,-0.633337,10.5214,28.1222)">
                            <path d="M-6.5,12C-6.5,12 -7,13.05 -7,13.5C-7,13.776 -6.776,14 -6.5,14C-6.224,14 -6,13.776 -6,13.5C-6,13.05 -6.5,12 -6.5,12Z" style="fill:white;stroke:white;stroke-width:0.33px;"/>
                        </g>
                        <g transform="matrix(-0.383949,0.511025,-0.511025,-0.383949,30.2059,39.8308)">
                            <path d="M-6.5,12C-6.5,12 -7,13.05 -7,13.5C-7,13.776 -6.776,14 -6.5,14C-6.224,14 -6,13.776 -6,13.5C-6,13.05 -6.5,12 -6.5,12Z" style="fill:white;stroke:white;stroke-width:0.33px;"/>
                        </g>
                        <g transform="matrix(-0.383949,0.511025,-0.511025,-0.383949,36.7164,40.9978)">
                            <path d="M-6.5,12C-6.5,12 -7,13.05 -7,13.5C-7,13.776 -6.776,14 -6.5,14C-6.224,14 -6,13.776 -6,13.5C-6,13.05 -6.5,12 -6.5,12Z" style="fill:white;stroke:white;stroke-width:0.33px;"/>
                        </g>
                        <g transform="matrix(-0.383949,0.511025,-0.511025,-0.383949,28.0562,43.4853)">
                            <path d="M-6.5,12C-6.5,12 -7,13.05 -7,13.5C-7,13.776 -6.776,14 -6.5,14C-6.224,14 -6,13.776 -6,13.5C-6,13.05 -6.5,12 -6.5,12Z" style="fill:white;stroke:white;stroke-width:0.33px;"/>
                        </g>
                        <g transform="matrix(-0.383949,0.511025,-0.511025,-0.383949,33.0005,35.6236)">
                            <path d="M-6.5,12C-6.5,12 -7,13.05 -7,13.5C-7,13.776 -6.776,14 -6.5,14C-6.224,14 -6,13.776 -6,13.5C-6,13.05 -6.5,12 -6.5,12Z" style="fill:white;stroke:white;stroke-width:0.33px;"/>
                        </g>
                        <g transform="matrix(-0.383949,0.511025,-0.511025,-0.383949,35.7337,31.3549)">
                            <path d="M-6.5,12C-6.5,12 -7,13.05 -7,13.5C-7,13.776 -6.776,14 -6.5,14C-6.224,14 -6,13.776 -6,13.5C-6,13.05 -6.5,12 -6.5,12Z" style="fill:white;stroke:white;stroke-width:0.33px;"/>
                        </g>
                        <g transform="matrix(-0.633337,-0.0863015,0.0863015,-0.633337,10.1754,36.4251)">
                            <path d="M-6.5,12C-6.5,12 -7,13.05 -7,13.5C-7,13.776 -6.776,14 -6.5,14C-6.224,14 -6,13.776 -6,13.5C-6,13.05 -6.5,12 -6.5,12Z" style="fill:white;stroke:white;stroke-width:0.33px;"/>
                        </g>
                        <g transform="matrix(-0.633337,-0.0863015,0.0863015,-0.633337,15.6119,24.6132)">
                            <path d="M-6.5,12C-6.5,12 -7,13.05 -7,13.5C-7,13.776 -6.776,14 -6.5,14C-6.224,14 -6,13.776 -6,13.5C-6,13.05 -6.5,12 -6.5,12Z" style="fill:white;stroke:white;stroke-width:0.33px;"/>
                        </g>
                        <g transform="matrix(-0.633337,-0.0863015,0.0863015,-0.633337,15.6119,20.5595)">
                            <path d="M-6.5,12C-6.5,12 -7,13.05 -7,13.5C-7,13.776 -6.776,14 -6.5,14C-6.224,14 -6,13.776 -6,13.5C-6,13.05 -6.5,12 -6.5,12Z" style="fill:white;stroke:white;stroke-width:0.33px;"/>
                        </g>
                        <g transform="matrix(-0.633337,-0.0863015,0.0863015,-0.633337,15.5625,28.4681)">
                            <path d="M-6.5,12C-6.5,12 -7,13.05 -7,13.5C-7,13.776 -6.776,14 -6.5,14C-6.224,14 -6,13.776 -6,13.5C-6,13.05 -6.5,12 -6.5,12Z" style="fill:white;stroke:white;stroke-width:0.33px;"/>
                        </g>
                        <g transform="matrix(-0.633337,-0.0863015,0.0863015,-0.633337,20.307,24.9591)">
                            <path d="M-6.5,12C-6.5,12 -7,13.05 -7,13.5C-7,13.776 -6.776,14 -6.5,14C-6.224,14 -6,13.776 -6,13.5C-6,13.05 -6.5,12 -6.5,12Z" style="fill:white;stroke:white;stroke-width:0.33px;"/>
                        </g>
                        <g transform="matrix(-0.633337,-0.0863015,0.0863015,-0.633337,8.04974,21.838)">
                            <path d="M-6.5,12C-6.5,12 -7,13.05 -7,13.5C-7,13.776 -6.776,14 -6.5,14C-6.224,14 -6,13.776 -6,13.5C-6,13.05 -6.5,12 -6.5,12Z" style="fill:white;stroke:white;stroke-width:0.33px;"/>
                        </g>
                        <g transform="matrix(-0.633337,-0.0863015,0.0863015,-0.633337,7.70378,30.141)">
                            <path d="M-6.5,12C-6.5,12 -7,13.05 -7,13.5C-7,13.776 -6.776,14 -6.5,14C-6.224,14 -6,13.776 -6,13.5C-6,13.05 -6.5,12 -6.5,12Z" style="fill:white;stroke:white;stroke-width:0.33px;"/>
                        </g>
                        <g transform="matrix(-0.633337,-0.0863015,0.0863015,-0.633337,8.00032,25.693)">
                            <path d="M-6.5,12C-6.5,12 -7,13.05 -7,13.5C-7,13.776 -6.776,14 -6.5,14C-6.224,14 -6,13.776 -6,13.5C-6,13.05 -6.5,12 -6.5,12Z" style="fill:white;stroke:white;stroke-width:0.33px;"/>
                        </g>
                        <g transform="matrix(-0.383949,0.511025,-0.511025,-0.383949,26.8562,40.8488)">
                            <path d="M-6.5,12C-6.5,12 -7,13.05 -7,13.5C-7,13.776 -6.776,14 -6.5,14C-6.224,14 -6,13.776 -6,13.5C-6,13.05 -6.5,12 -6.5,12Z" style="fill:white;stroke:white;stroke-width:0.33px;"/>
                        </g>
                        <g transform="matrix(-0.383949,0.511025,-0.511025,-0.383949,33.3667,42.0158)">
                            <path d="M-6.5,12C-6.5,12 -7,13.05 -7,13.5C-7,13.776 -6.776,14 -6.5,14C-6.224,14 -6,13.776 -6,13.5C-6,13.05 -6.5,12 -6.5,12Z" style="fill:white;stroke:white;stroke-width:0.33px;"/>
                        </g>
                        <g transform="matrix(-0.383949,0.511025,-0.511025,-0.383949,36.192,37.8085)">
                            <path d="M-6.5,12C-6.5,12 -7,13.05 -7,13.5C-7,13.776 -6.776,14 -6.5,14C-6.224,14 -6,13.776 -6,13.5C-6,13.05 -6.5,12 -6.5,12Z" style="fill:white;stroke:white;stroke-width:0.33px;"/>
                        </g>
                        <g transform="matrix(-0.383949,0.511025,-0.511025,-0.383949,39.693,40.3882)">
                            <path d="M-6.5,12C-6.5,12 -7,13.05 -7,13.5C-7,13.776 -6.776,14 -6.5,14C-6.224,14 -6,13.776 -6,13.5C-6,13.05 -6.5,12 -6.5,12Z" style="fill:white;stroke:white;stroke-width:0.33px;"/>
                        </g>
                        <g transform="matrix(-0.383949,0.511025,-0.511025,-0.383949,29.6508,36.6415)">
                            <path d="M-6.5,12C-6.5,12 -7,13.05 -7,13.5C-7,13.776 -6.776,14 -6.5,14C-6.224,14 -6,13.776 -6,13.5C-6,13.05 -6.5,12 -6.5,12Z" style="fill:white;stroke:white;stroke-width:0.33px;"/>
                        </g>
                        <g transform="matrix(-0.383949,0.511025,-0.511025,-0.383949,32.384,32.3729)">
                            <path d="M-6.5,12C-6.5,12 -7,13.05 -7,13.5C-7,13.776 -6.776,14 -6.5,14C-6.224,14 -6,13.776 -6,13.5C-6,13.05 -6.5,12 -6.5,12Z" style="fill:white;stroke:white;stroke-width:0.33px;"/>
                        </g>
                        <g transform="matrix(-0.633337,-0.0863015,0.0863015,-0.633337,7.65436,33.9959)">
                            <path d="M-6.5,12C-6.5,12 -7,13.05 -7,13.5C-7,13.776 -6.776,14 -6.5,14C-6.224,14 -6,13.776 -6,13.5C-6,13.05 -6.5,12 -6.5,12Z" style="fill:white;stroke:white;stroke-width:0.33px;"/>
                        </g>
                        <g transform="matrix(-0.633337,-0.0863015,0.0863015,-0.633337,13.0908,22.184)">
                            <path d="M-6.5,12C-6.5,12 -7,13.05 -7,13.5C-7,13.776 -6.776,14 -6.5,14C-6.224,14 -6,13.776 -6,13.5C-6,13.05 -6.5,12 -6.5,12Z" style="fill:white;stroke:white;stroke-width:0.33px;"/>
                        </g>
                        <g transform="matrix(-0.633337,-0.0863015,0.0863015,-0.633337,12.7448,30.4869)">
                            <path d="M-6.5,12C-6.5,12 -7,13.05 -7,13.5C-7,13.776 -6.776,14 -6.5,14C-6.224,14 -6,13.776 -6,13.5C-6,13.05 -6.5,12 -6.5,12Z" style="fill:white;stroke:white;stroke-width:0.33px;"/>
                        </g>
                        <g transform="matrix(-0.633337,-0.0863015,0.0863015,-0.633337,12.3495,38.4933)">
                            <path d="M-6.5,12C-6.5,12 -7,13.05 -7,13.5C-7,13.776 -6.776,14 -6.5,14C-6.224,14 -6,13.776 -6,13.5C-6,13.05 -6.5,12 -6.5,12Z" style="fill:white;stroke:white;stroke-width:0.33px;"/>
                        </g>
                        <g transform="matrix(-0.633337,-0.0863015,0.0863015,-0.633337,13.0414,26.0389)">
                            <path d="M-6.5,12C-6.5,12 -7,13.05 -7,13.5C-7,13.776 -6.776,14 -6.5,14C-6.224,14 -6,13.776 -6,13.5C-6,13.05 -6.5,12 -6.5,12Z" style="fill:white;stroke:white;stroke-width:0.33px;"/>
                        </g>
                        <g transform="matrix(-0.633337,-0.0863015,0.0863015,-0.633337,12.6954,34.3419)">
                            <path d="M-6.5,12C-6.5,12 -7,13.05 -7,13.5C-7,13.776 -6.776,14 -6.5,14C-6.224,14 -6,13.776 -6,13.5C-6,13.05 -6.5,12 -6.5,12Z" style="fill:white;stroke:white;stroke-width:0.33px;"/>
                        </g>
                        <g transform="matrix(-0.633337,-0.0863015,0.0863015,-0.633337,17.7859,22.5299)">
                            <path d="M-6.5,12C-6.5,12 -7,13.05 -7,13.5C-7,13.776 -6.776,14 -6.5,14C-6.224,14 -6,13.776 -6,13.5C-6,13.05 -6.5,12 -6.5,12Z" style="fill:white;stroke:white;stroke-width:0.33px;"/>
                        </g>
                        <g transform="matrix(-0.633337,-0.0863015,0.0863015,-0.633337,17.44,30.8329)">
                            <path d="M-6.5,12C-6.5,12 -7,13.05 -7,13.5C-7,13.776 -6.776,14 -6.5,14C-6.224,14 -6,13.776 -6,13.5C-6,13.05 -6.5,12 -6.5,12Z" style="fill:white;stroke:white;stroke-width:0.33px;"/>
                        </g>
                        <g transform="matrix(-0.633337,-0.0863015,0.0863015,-0.633337,17.7365,26.3849)">
                            <path d="M-6.5,12C-6.5,12 -7,13.05 -7,13.5C-7,13.776 -6.776,14 -6.5,14C-6.224,14 -6,13.776 -6,13.5C-6,13.05 -6.5,12 -6.5,12Z" style="fill:white;stroke:white;stroke-width:0.33px;"/>
                        </g>
                        <g transform="matrix(-0.633337,-0.0863015,0.0863015,-0.633337,5.54019,23.9106)">
                            <path d="M-6.5,12C-6.5,12 -7,13.05 -7,13.5C-7,13.776 -6.776,14 -6.5,14C-6.224,14 -6,13.776 -6,13.5C-6,13.05 -6.5,12 -6.5,12Z" style="fill:white;stroke:white;stroke-width:0.33px;"/>
                        </g>
                        <g transform="matrix(-0.633337,-0.0863015,0.0863015,-0.633337,5.19423,32.2135)">
                            <path d="M-6.5,12C-6.5,12 -7,13.05 -7,13.5C-7,13.776 -6.776,14 -6.5,14C-6.224,14 -6,13.776 -6,13.5C-6,13.05 -6.5,12 -6.5,12Z" style="fill:white;stroke:white;stroke-width:0.33px;"/>
                        </g>
                        <g transform="matrix(-0.633337,-0.0863015,0.0863015,-0.633337,5.49077,27.7655)">
                            <path d="M-6.5,12C-6.5,12 -7,13.05 -7,13.5C-7,13.776 -6.776,14 -6.5,14C-6.224,14 -6,13.776 -6,13.5C-6,13.05 -6.5,12 -6.5,12Z" style="fill:white;stroke:white;stroke-width:0.33px;"/>
                        </g>
                        <path d="M36.196,35.163L35.627,34.973C35.486,34.867 35.458,34.666 35.564,34.525C35.67,34.384 35.87,34.356 36.011,34.462L36.361,34.967L36.196,35.163Z" style="fill:white;stroke:white;stroke-width:0.21px;"/>
                        <path d="M35.164,27.987L35.468,28.715L34.947,28.541C34.806,28.435 34.777,28.235 34.883,28.094C34.949,28.005 35.052,27.961 35.164,27.987Z" style="fill:white;stroke:white;stroke-width:0.21px;"/>
                        <path d="M29.966,36.393C29.825,36.224 29.822,36.07 29.908,35.955C30.014,35.814 30.215,35.786 30.356,35.892L30.708,36.401L30.241,36.403L29.966,36.393Z" style="fill:white;stroke:white;stroke-width:0.21px;"/>
                    </g>
                </g>
            </g>
        </g>
    </g>
</svg>
