<?xml version="1.0" encoding="UTF-8" standalone="no"?>
<!DOCTYPE svg PUBLIC "-//W3C//DTD SVG 1.1//EN" "http://www.w3.org/Graphics/SVG/1.1/DTD/svg11.dtd">
<svg width="100%" height="100%" viewBox="0 0 43 42" version="1.1" xmlns="http://www.w3.org/2000/svg" xmlns:xlink="http://www.w3.org/1999/xlink" xml:space="preserve" xmlns:serif="http://www.serif.com/" style="fill-rule:evenodd;clip-rule:evenodd;stroke-linecap:round;stroke-linejoin:round;stroke-miterlimit:1.5;">
    <g transform="matrix(1,0,0,1,-430,-162)">
        <g id="jidlo-obili-2-a" transform="matrix(1,0,0,1,180.852,162.138)">
            <rect x="250" y="0" width="41.667" height="41.667" style="fill:none;"/>
            <g transform="matrix(2.38877,0,0,1.84571,316.16,-0.651254)">
                <path d="M-23.076,11.879C-23.092,11.735 -23.1,11.587 -23.1,11.438C-23.1,4.391 -18.976,0.831 -18.976,0.831C-18.976,0.831 -14.853,4.391 -14.853,11.438C-14.853,11.587 -14.86,11.735 -14.876,11.879C-14.86,12.024 -14.853,12.171 -14.853,12.32C-14.853,19.368 -18.976,22.928 -18.976,22.928C-18.976,22.928 -23.1,19.368 -23.1,12.32C-23.1,12.171 -23.092,12.024 -23.076,11.879Z" style="fill:rgb(21,195,51);"/>
            </g>
            <g transform="matrix(1.35256,0.0982726,-0.104432,1.43733,101.485,-91.1848)">
                <path d="M130.701,72.219C130.701,72.219 130.142,69.142 128.464,67.372C126.908,65.731 123.524,65.415 123.524,65.415C123.524,65.415 124.078,68.126 125.854,70.077C127.462,71.844 130.701,72.219 130.701,72.219Z" style="fill:white;stroke:black;stroke-width:0.3px;"/>
            </g>
            <g transform="matrix(-1.35109,0.0981658,0.104318,1.43577,439.888,-91.0641)">
                <path d="M130.701,72.219C130.701,72.219 130.142,69.142 128.464,67.372C126.908,65.731 123.524,65.415 123.524,65.415C123.524,65.415 124.078,68.126 125.854,70.077C127.462,71.844 130.701,72.219 130.701,72.219Z" style="fill:white;stroke:black;stroke-width:0.3px;"/>
            </g>
            <g transform="matrix(1.43817,0.0161639,-0.017177,1.52831,84.0801,-80.2987)">
                <path d="M130.701,72.219C130.701,72.219 130.142,69.142 128.464,67.372C126.908,65.731 123.524,65.415 123.524,65.415C123.524,65.415 124.078,68.126 125.854,70.077C127.462,71.844 130.701,72.219 130.701,72.219Z" style="fill:white;stroke:black;stroke-width:0.28px;"/>
            </g>
            <g transform="matrix(-1.43817,0.0161639,0.017177,1.52831,457.562,-80.2987)">
                <path d="M130.701,72.219C130.701,72.219 130.142,69.142 128.464,67.372C126.908,65.731 123.524,65.415 123.524,65.415C123.524,65.415 124.078,68.126 125.854,70.077C127.462,71.844 130.701,72.219 130.701,72.219Z" style="fill:white;stroke:black;stroke-width:0.28px;"/>
            </g>
            <g transform="matrix(1.14082,0.141467,-0.150333,1.21232,132.449,-87.2444)">
                <path d="M130.701,72.219C130.701,72.219 130.142,69.142 128.464,67.372C126.908,65.731 123.524,65.415 123.524,65.415C123.524,65.415 124.078,68.126 125.854,70.077C127.462,71.844 130.701,72.219 130.701,72.219Z" style="fill:white;stroke:black;stroke-width:0.35px;"/>
            </g>
            <g transform="matrix(-1.14082,0.141467,0.150333,1.21232,409.082,-87.2444)">
                <path d="M130.701,72.219C130.701,72.219 130.142,69.142 128.464,67.372C126.908,65.731 123.524,65.415 123.524,65.415C123.524,65.415 124.078,68.126 125.854,70.077C127.462,71.844 130.701,72.219 130.701,72.219Z" style="fill:white;stroke:black;stroke-width:0.35px;"/>
            </g>
            <g transform="matrix(1.18007,-0.0199308,0.02118,1.25403,115.052,-49.6172)">
                <path d="M130.701,72.219C130.701,72.219 130.142,69.142 128.464,67.372C126.908,65.731 123.524,65.415 123.524,65.415C123.524,65.415 124.078,68.126 125.854,70.077C127.462,71.844 130.701,72.219 130.701,72.219Z" style="fill:white;stroke:black;stroke-width:0.34px;"/>
            </g>
            <g transform="matrix(-1.17007,-0.019762,-0.0210006,1.24341,425.276,-48.9072)">
                <path d="M130.701,72.219C130.701,72.219 130.142,69.142 128.464,67.372C126.908,65.731 123.524,65.415 123.524,65.415C123.524,65.415 124.078,68.126 125.854,70.077C127.462,71.844 130.701,72.219 130.701,72.219Z" style="fill:white;stroke:black;stroke-width:0.35px;"/>
            </g>
            <g transform="matrix(0.931759,0.131552,-0.131552,0.931759,158.461,-71.8467)">
                <path d="M130.701,72.219C130.701,72.219 130.142,69.142 128.464,67.372C126.908,65.731 123.524,65.415 123.524,65.415C123.524,65.415 124.078,68.126 125.854,70.077C127.462,71.844 130.701,72.219 130.701,72.219Z" style="fill:white;stroke:black;stroke-width:0.44px;"/>
            </g>
            <g transform="matrix(-0.931759,0.131552,0.131552,0.931759,383.114,-71.8467)">
                <path d="M130.701,72.219C130.701,72.219 130.142,69.142 128.464,67.372C126.908,65.731 123.524,65.415 123.524,65.415C123.524,65.415 124.078,68.126 125.854,70.077C127.462,71.844 130.701,72.219 130.701,72.219Z" style="fill:white;stroke:black;stroke-width:0.44px;"/>
            </g>
            <g transform="matrix(0.665387,0.665387,-0.665387,0.665387,231.895,-125.394)">
                <path d="M130.701,72.219C130.701,72.219 130.142,69.142 128.464,67.372C126.908,65.731 123.524,65.415 123.524,65.415C123.524,65.415 124.078,68.126 125.854,70.077C127.462,71.844 130.701,72.219 130.701,72.219Z" style="fill:white;stroke:black;stroke-width:0.44px;"/>
            </g>
        </g>
    </g>
</svg>
