<?xml version="1.0" encoding="UTF-8" standalone="no"?>
<!DOCTYPE svg PUBLIC "-//W3C//DTD SVG 1.1//EN" "http://www.w3.org/Graphics/SVG/1.1/DTD/svg11.dtd">
<svg width="100%" height="100%" viewBox="0 0 43 43" version="1.1" xmlns="http://www.w3.org/2000/svg" xmlns:xlink="http://www.w3.org/1999/xlink" xml:space="preserve" xmlns:serif="http://www.serif.com/" style="fill-rule:evenodd;clip-rule:evenodd;stroke-linecap:round;stroke-linejoin:round;stroke-miterlimit:1.5;">
    <g transform="matrix(1,0,0,1,-582,-113)">
        <g id="jidlo-ryba-4-b" transform="matrix(1,0,0,1,332.661,113.897)">
            <rect x="250" y="0" width="41.667" height="41.667" style="fill:none;"/>
            <clipPath id="_clip1">
                <rect x="250" y="0" width="41.667" height="41.667"/>
            </clipPath>
            <g clip-path="url(#_clip1)">
                <g transform="matrix(5.36956e-17,0.701622,0.701622,-5.36956e-17,239.861,-110.97)">
                    <path d="M187.744,14.562C200.087,20.643 211.245,31.801 217.326,44.144C211.245,56.488 200.087,67.646 187.744,73.727C175.4,67.646 164.243,56.488 158.162,44.144C164.243,31.801 175.4,20.643 187.744,14.562Z" style="fill:rgb(21,195,51);"/>
                </g>
                <g transform="matrix(1.26799,0,0,1.26799,-85.1513,-179.826)">
                    <path d="M277.195,153.848C272.03,154.343 268.306,156.167 265.31,158.664L265.781,159.251L265.497,159.569C269.112,161.597 273.193,162.431 277.508,162.668L279.572,165.482C280.464,165.346 281.062,164.797 281.338,163.793L281.086,162.49L282.949,161.917L285.389,163.793C285.983,162.322 287.293,161.369 288.224,160.513C288.224,160.513 287.245,160.055 288.524,159.644C289.296,159.395 290.143,159.398 290.143,159.398C291.93,160.971 293.817,162.142 295.772,163.043C295.238,161.113 294.701,159.185 293.771,157.539C294.748,156.154 295.211,154.403 295.772,152.722C293.312,153.266 291.395,154.636 289.58,156.162C287.249,156.324 284.898,155.961 282.512,154.724L283.262,153.911C283.262,153.911 281.816,152.586 281.495,151.877C281.175,151.168 281.338,149.657 281.338,149.657L277.195,153.848Z" style="stroke:white;stroke-width:0.33px;"/>
                </g>
                <g transform="matrix(1.38367,0,0,1.34711,-117.694,-191.761)">
                    <path d="M278.729,153.712L281.304,150.844" style="fill:none;stroke:white;stroke-width:0.31px;"/>
                </g>
                <g transform="matrix(1.26799,0,0,1.26799,-85.1513,-179.826)">
                    <path d="M279.711,153.923L281.569,152.127" style="fill:none;stroke:white;stroke-width:0.33px;"/>
                </g>
                <g transform="matrix(1.26799,0,0,1.26799,-85.1513,-179.826)">
                    <path d="M280.784,154.147L282.209,152.961" style="fill:none;stroke:white;stroke-width:0.33px;"/>
                </g>
                <g transform="matrix(1.30135,0,0,1.07587,-94.5467,-150.15)">
                    <path d="M281.85,154.429L282.786,153.41" style="fill:none;stroke:white;stroke-width:0.35px;"/>
                </g>
                <g transform="matrix(1.26799,0,0,1.26799,-85.1513,-179.826)">
                    <path d="M290.984,156.1L295.5,153.41" style="fill:none;stroke:white;stroke-width:0.33px;"/>
                </g>
                <g transform="matrix(1.26799,0,0,-1.26799,-85.2325,219.898)">
                    <path d="M290.984,156.1L295.5,153.41" style="fill:none;stroke:white;stroke-width:0.33px;"/>
                </g>
                <g transform="matrix(1.26799,0,0,1.26799,-85.1513,-179.826)">
                    <path d="M291.977,156.581L295.084,154.755" style="fill:none;stroke:white;stroke-width:0.33px;"/>
                </g>
                <g transform="matrix(1.26799,0,0,-1.26799,-85.2325,219.898)">
                    <path d="M291.977,156.581L295.084,154.755" style="fill:none;stroke:white;stroke-width:0.33px;"/>
                </g>
                <g transform="matrix(1.26799,0,0,1.26799,-85.1513,-179.826)">
                    <path d="M292.554,157.285L294.347,156.581" style="fill:none;stroke:white;stroke-width:0.33px;"/>
                </g>
                <g transform="matrix(1.26799,0,0,-1.26799,-85.2325,219.898)">
                    <path d="M292.554,157.285L294.347,156.581" style="fill:none;stroke:white;stroke-width:0.33px;"/>
                </g>
                <g transform="matrix(1.26799,0,0,1.26799,-85.1513,-179.826)">
                    <ellipse cx="268.006" cy="158.598" rx="0.496" ry="0.512" style="fill:white;"/>
                </g>
                <g transform="matrix(1.26799,0,0,1.26799,-85.1513,-179.826)">
                    <path d="M270.712,157.926C270.712,157.926 271.524,158.999 271.577,159.431C271.624,159.814 271.032,160.52 271.032,160.52" style="stroke:white;stroke-width:0.33px;"/>
                </g>
            </g>
        </g>
    </g>
</svg>
