<?xml version="1.0" encoding="UTF-8" standalone="no"?>
<!DOCTYPE svg PUBLIC "-//W3C//DTD SVG 1.1//EN" "http://www.w3.org/Graphics/SVG/1.1/DTD/svg11.dtd">
<svg width="100%" height="100%" viewBox="0 0 43 42" version="1.1" xmlns="http://www.w3.org/2000/svg" xmlns:xlink="http://www.w3.org/1999/xlink" xml:space="preserve" xmlns:serif="http://www.serif.com/" style="fill-rule:evenodd;clip-rule:evenodd;stroke-linejoin:round;stroke-miterlimit:2;">
    <g transform="matrix(1,0,0,1,-679,-113)">
        <g id="jidlo-cukrovinky-6-b" transform="matrix(1,0,0,1,429.509,113.012)">
            <rect x="250" y="0" width="41.667" height="41.667" style="fill:none;"/>
            <g transform="matrix(0.704252,-1.07739e-17,-1.07739e-17,-0.704252,138.018,51.9221)">
                <path d="M187.744,14.562C196.527,18.901 205.214,23.916 213.363,29.353C213.997,39.129 213.997,49.16 213.363,58.936C205.214,64.373 196.527,69.388 187.744,73.727C178.961,69.388 170.274,64.373 162.125,58.936C161.491,49.16 161.491,39.129 162.125,29.353C170.274,23.916 178.961,18.901 187.744,14.562Z" style="fill:rgb(21,195,51);"/>
            </g>
            <g transform="matrix(1.7296,0,0,1.7296,-378.081,-260.657)">
                <path d="M379.985,155.532C384.915,155.703 387.188,162.62 383.301,168.069C382.721,168.882 381.719,168.891 382.526,170.63C383.282,172.258 380.907,173.828 379.05,171.169C378.875,171.247 378.699,171.324 378.522,171.4C375.654,172.601 372.683,172.486 369.517,170.784L368.556,171.764C367.285,172.992 364.462,171.335 366.857,168.926C366.371,168.469 366.703,169.198 365.796,167.603C363.462,163.497 363.124,156.824 368.854,155.856C370.796,155.528 372.744,156.298 374.422,157.401C374.422,157.401 377.79,155.495 379.985,155.532ZM374.803,166.095C373.814,167.102 372.261,168.517 372.261,168.517C373.859,169.034 375.569,169.177 377.09,168.557C377.09,168.557 376.218,167.39 375.388,166.518C374.801,165.891 375.001,165.89 374.803,166.095ZM379.775,158.706C378.275,158.734 376.667,159.011 377.268,159.859C378.004,160.96 377.686,162.438 376.967,163.535C378.024,164.754 379.134,165.819 379.984,166.992C381.617,165.673 382.22,163.156 382.252,161.285C382.273,160.018 381.379,158.704 379.775,158.706ZM369.825,158.949C366.511,159.029 367.357,165.327 369.304,166.84C369.525,166.663 369.744,166.485 369.962,166.304C371.22,165.242 372.913,163.476 372.913,163.476C372.474,162.855 371.994,161.34 372.503,160.01C372.503,160.01 371.291,158.944 369.825,158.949Z" style="stroke:white;stroke-width:0.24px;"/>
            </g>
        </g>
    </g>
</svg>
