<?xml version="1.0" encoding="UTF-8" standalone="no"?>
<!DOCTYPE svg PUBLIC "-//W3C//DTD SVG 1.1//EN" "http://www.w3.org/Graphics/SVG/1.1/DTD/svg11.dtd">
<svg width="100%" height="100%" viewBox="0 0 43 43" version="1.1" xmlns="http://www.w3.org/2000/svg" xmlns:xlink="http://www.w3.org/1999/xlink" xml:space="preserve" xmlns:serif="http://www.serif.com/" style="fill-rule:evenodd;clip-rule:evenodd;stroke-linecap:round;stroke-linejoin:round;stroke-miterlimit:1.5;">
    <g transform="matrix(1,0,0,1,-482,-113)">
        <g id="jidlo-ovoce-3-b" transform="matrix(1,0,0,1,232.531,113.968)">
            <rect x="250" y="0" width="41.667" height="41.667" style="fill:none;"/>
            <g transform="matrix(-0.362672,0.628167,0.628167,0.362672,311.193,-113.735)">
                <path d="M187.744,14.562C201.739,23.684 212.461,42.254 213.363,58.936C198.466,66.495 177.022,66.495 162.125,58.936C163.027,42.254 173.748,23.684 187.744,14.562Z" style="fill:rgb(21,195,51);"/>
            </g>
            <g transform="matrix(1.29801,0,0,1.29801,35.6233,-69.0025)">
                <path d="M180.657,61.973C180.653,61.95 180.651,61.929 180.653,61.91C181.005,57.648 179.693,56.254 178.456,55.048L179.85,53.818C181.063,56.725 181.868,59.793 181.587,62.126C181.383,62.311 181.255,62.438 181.218,62.474L181.208,62.485C181.208,62.485 181.006,62.279 180.657,61.973Z" style="stroke:white;stroke-width:0.32px;"/>
            </g>
            <g transform="matrix(1.29801,0,0,1.29801,35.6233,-69.0025)">
                <path d="M180.585,79.672C180.955,79.257 181.208,78.926 181.208,78.926C181.208,78.926 181.674,79.536 182.268,80.138L182.424,81.452L181.643,80.456L181.264,81.65L180.937,80.57L180.05,81.452L180.598,79.688L180.585,79.672Z" style="stroke:white;stroke-width:0.32px;"/>
            </g>
            <g transform="matrix(0.51371,0,0,0.554079,141.072,5.54805)">
                <path d="M252.623,11.807C253.164,11.305 261.909,3.305 269.664,4.55C279.065,6.058 283.397,13.067 286.192,22.092C289.213,31.849 281.638,43.385 278.211,47.667C273.504,53.549 265.113,57.793 258.969,55.755C256.325,54.877 252.597,50.347 252.597,50.347C252.597,50.347 248.87,54.877 246.226,55.755C240.082,57.793 233.408,53.287 228.201,47.78C223.191,42.481 219.468,37.075 220.099,24.077C220.364,18.613 226.13,6.058 235.531,4.55C243.536,3.265 252.597,11.832 252.597,11.832L252.623,11.807Z" style="stroke:white;stroke-width:0.78px;"/>
            </g>
        </g>
    </g>
</svg>
