<?xml version="1.0" encoding="UTF-8" standalone="no"?>
<!DOCTYPE svg PUBLIC "-//W3C//DTD SVG 1.1//EN" "http://www.w3.org/Graphics/SVG/1.1/DTD/svg11.dtd">
<svg width="100%" height="100%" viewBox="0 0 43 43" version="1.1" xmlns="http://www.w3.org/2000/svg" xmlns:xlink="http://www.w3.org/1999/xlink" xml:space="preserve" xmlns:serif="http://www.serif.com/" style="fill-rule:evenodd;clip-rule:evenodd;stroke-linejoin:round;stroke-miterlimit:2;">
    <g transform="matrix(1,0,0,1,-425,-400)">
        <g id="luxus-keramika-4-a" transform="matrix(1,0,0,1,175.608,400.847)">
            <rect x="250" y="0" width="41.667" height="41.667" style="fill:none;"/>
            <clipPath id="_clip1">
                <rect x="250" y="0" width="41.667" height="41.667"/>
            </clipPath>
            <g clip-path="url(#_clip1)">
                <g transform="matrix(5.36956e-17,0.701622,0.701622,-5.36956e-17,239.861,-110.65)">
                    <path d="M187.744,14.562C200.087,20.643 211.245,31.801 217.326,44.144C211.245,56.488 200.087,67.646 187.744,73.727C175.4,67.646 164.243,56.488 158.162,44.144C164.243,31.801 175.4,20.643 187.744,14.562Z" style="fill:rgb(253,191,51);"/>
                </g>
                <g transform="matrix(0.756097,0.112701,-0.112701,0.756097,226.798,-319.845)">
                    <path d="M116.481,409.964C118.242,410.077 119.677,411.611 120.786,413.026C121.318,413.705 120.999,414.818 120.077,414.62C118.945,414.376 118.44,412.038 116.5,411.706C115.558,411.545 115.638,413.277 115.653,414.162C115.658,414.41 115.667,414.659 115.679,414.907C115.692,415.16 115.708,415.413 115.726,415.665C116.005,419.52 116.874,423.322 116.955,427.092C116.955,427.092 116.958,427.8 116.494,428.044C115.86,428.376 115.265,428.064 115.204,426.499C115.015,422.302 113.864,418.229 113.92,413.668C113.941,411.946 114.374,409.897 116.481,409.964ZM119.486,414.161C119.559,414.307 119.484,414.156 119.486,414.161Z" style="fill:white;stroke:black;stroke-width:0.55px;"/>
                </g>
                <g transform="matrix(-0.737448,-0.201379,-0.201379,0.737448,446.721,-273.675)">
                    <path d="M116.481,409.964C118.242,410.077 119.677,411.611 120.786,413.026C121.318,413.705 120.999,414.818 120.077,414.62C118.945,414.376 118.44,412.038 116.5,411.706C115.558,411.545 115.638,413.277 115.653,414.162C115.658,414.41 115.667,414.659 115.679,414.907C115.692,415.16 115.708,415.413 115.726,415.665C116.005,419.52 116.874,423.322 116.955,427.092C116.955,427.092 116.958,427.8 116.494,428.044C115.86,428.376 115.265,428.064 115.204,426.499C115.015,422.302 113.864,418.229 113.92,413.668C113.941,411.946 114.374,409.897 116.481,409.964ZM119.486,414.161C119.559,414.307 119.484,414.156 119.486,414.161Z" style="fill:white;stroke:black;stroke-width:0.55px;"/>
                </g>
                <g transform="matrix(0.756097,0.112701,-0.112701,0.756097,226.798,-319.845)">
                    <path d="M119.364,410.711C119.257,409.214 125.862,409.023 125.63,411.082C125.154,415.316 123.752,421.651 124.819,424.616C125.666,426.967 129.795,427.307 130.275,429.76C132.532,441.306 123.191,451.472 122.122,453.188C121.102,454.825 121.329,456.619 120.049,456.599C118.857,456.581 119.166,454.803 118.441,453.376C117.398,451.326 108.639,439.274 112.781,428.812C113.702,426.488 117.675,426.538 118.761,424.287C120.435,420.817 119.567,413.535 119.364,410.711Z" style="fill:white;stroke:black;stroke-width:0.55px;stroke-linecap:round;stroke-miterlimit:1.5;"/>
                </g>
            </g>
        </g>
    </g>
</svg>
