<?xml version="1.0" encoding="UTF-8" standalone="no"?>
<!DOCTYPE svg PUBLIC "-//W3C//DTD SVG 1.1//EN" "http://www.w3.org/Graphics/SVG/1.1/DTD/svg11.dtd">
<svg width="100%" height="100%" viewBox="0 0 43 43" version="1.1" xmlns="http://www.w3.org/2000/svg" xmlns:xlink="http://www.w3.org/1999/xlink" xml:space="preserve" xmlns:serif="http://www.serif.com/" style="fill-rule:evenodd;clip-rule:evenodd;stroke-linecap:round;stroke-linejoin:round;stroke-miterlimit:1.5;">
    <g transform="matrix(1,0,0,1,-475,-352)">
        <g id="luxus-lecivo-5-b" transform="matrix(1,0,0,1,225.603,352.92)">
            <rect x="250" y="0" width="41.667" height="41.667" style="fill:none;"/>
            <clipPath id="_clip1">
                <rect x="250" y="0" width="41.667" height="41.667"/>
            </clipPath>
            <g clip-path="url(#_clip1)">
                <g transform="matrix(0.709365,-1.08521e-17,-1.08521e-17,-0.709365,137.654,51.9966)">
                    <path d="M187.744,14.562C197.775,20.081 207.53,27.168 215.878,35.003C213.729,46.249 210.003,57.716 205.132,68.077C193.772,69.508 181.715,69.508 170.356,68.077C165.484,57.716 161.759,46.249 159.61,35.003C167.958,27.168 177.713,20.081 187.744,14.562Z" style="fill:rgb(253,191,51);"/>
                </g>
                <g transform="matrix(0.617183,0,0,0.617183,130.187,-161.651)">
                    <path d="M227.885,267.689C220.766,274.275 219.631,281.768 224.48,290.167C219.631,281.768 212.574,279.004 203.311,281.877C205.455,291.335 211.376,296.064 221.075,296.064C211.376,296.064 205.455,300.793 203.311,310.252C212.574,313.124 219.631,310.361 224.48,301.962C219.631,310.361 220.766,317.853 227.885,324.439C235.004,317.853 236.139,310.361 231.29,301.962C236.139,310.361 243.195,313.124 252.458,310.252C250.314,300.793 244.393,296.064 234.695,296.064C244.393,296.064 250.314,291.335 252.458,281.877C243.195,279.004 236.139,281.768 231.29,290.167C236.139,281.768 235.004,274.275 227.885,267.689ZM227.885,290.389C231.017,290.389 233.56,292.932 233.56,296.064C233.56,299.196 231.017,301.739 227.885,301.739C224.753,301.739 222.21,299.196 222.21,296.064C222.21,292.932 224.753,290.389 227.885,290.389Z" style="stroke:white;stroke-width:0.68px;"/>
                </g>
                <g transform="matrix(0.540714,0.297562,-0.297562,0.540714,235.71,-206.821)">
                    <path d="M227.885,267.689C220.766,274.275 219.631,281.768 224.48,290.167C219.631,281.768 212.574,279.004 203.311,281.877C205.455,291.335 211.376,296.064 221.075,296.064C211.376,296.064 205.455,300.793 203.311,310.252C212.574,313.124 219.631,310.361 224.48,301.962C219.631,310.361 220.766,317.853 227.885,324.439C235.004,317.853 236.139,310.361 231.29,301.962C236.139,310.361 243.195,313.124 252.458,310.252C250.314,300.793 244.393,296.064 234.695,296.064C244.393,296.064 250.314,291.335 252.458,281.877C243.195,279.004 236.139,281.768 231.29,290.167C236.139,281.768 235.004,274.275 227.885,267.689ZM227.885,290.389C231.017,290.389 233.56,292.932 233.56,296.064C233.56,299.196 231.017,301.739 227.885,301.739C224.753,301.739 222.21,299.196 222.21,296.064C222.21,292.932 224.753,290.389 227.885,290.389Z" style="stroke:white;stroke-width:0.68px;"/>
                </g>
                <g transform="matrix(0.211441,0.116359,-0.116359,0.211441,257.099,-68.0416)">
                    <path d="M227.885,267.689C221.346,270.82 219.464,275.735 222.238,282.432C219.464,275.735 214.658,273.59 207.821,276C205.411,282.838 207.555,287.643 214.253,290.418C207.555,287.643 202.641,289.526 199.51,296.064C202.641,302.603 207.555,304.485 214.253,301.711C207.555,304.485 205.411,309.291 207.821,316.129C214.658,318.538 219.464,316.394 222.238,309.696C219.464,316.394 221.346,321.308 227.885,324.439C234.423,321.308 236.306,316.394 233.531,309.696C236.306,316.394 241.112,318.538 247.949,316.129C250.359,309.291 248.215,304.485 241.517,301.711C248.215,304.485 253.129,302.603 256.26,296.064C253.129,289.526 248.215,287.643 241.517,290.418C248.215,287.643 250.359,282.838 247.949,276C241.112,273.59 236.306,275.735 233.531,282.432C236.306,275.735 234.423,270.82 227.885,267.689ZM227.885,290.389C231.017,290.389 233.56,292.932 233.56,296.064C233.56,299.196 231.017,301.739 227.885,301.739C224.753,301.739 222.21,299.196 222.21,296.064C222.21,292.932 224.753,290.389 227.885,290.389Z" style="stroke:white;stroke-width:1.73px;"/>
                </g>
                <g transform="matrix(0.617183,0,0,0.617183,103.267,-183.192)">
                    <circle cx="271.502" cy="330.967" r="3.689" style="stroke:white;stroke-width:0.68px;"/>
                </g>
            </g>
        </g>
    </g>
</svg>
