<?xml version="1.0" encoding="UTF-8" standalone="no"?>
<!DOCTYPE svg PUBLIC "-//W3C//DTD SVG 1.1//EN" "http://www.w3.org/Graphics/SVG/1.1/DTD/svg11.dtd">
<svg width="100%" height="100%" viewBox="0 0 43 43" version="1.1" xmlns="http://www.w3.org/2000/svg" xmlns:xlink="http://www.w3.org/1999/xlink" xml:space="preserve" xmlns:serif="http://www.serif.com/" style="fill-rule:evenodd;clip-rule:evenodd;stroke-linecap:round;stroke-linejoin:round;stroke-miterlimit:1.5;">
    <g transform="matrix(1,0,0,1,-475,-665)">
        <g id="nastroj-zelezo-6-a" transform="matrix(1,0,0,1,225.603,665.351)">
            <rect x="250" y="0" width="41.667" height="41.667" style="fill:none;"/>
            <clipPath id="_clip1">
                <rect x="250" y="0" width="41.667" height="41.667"/>
            </clipPath>
            <g clip-path="url(#_clip1)">
                <g transform="matrix(0.704252,-1.07739e-17,-1.07739e-17,-0.704252,138.614,52.0859)">
                    <path d="M187.744,14.562C196.527,18.901 205.214,23.916 213.363,29.353C213.997,39.129 213.997,49.16 213.363,58.936C205.214,64.373 196.527,69.388 187.744,73.727C178.961,69.388 170.274,64.373 162.125,58.936C161.491,49.16 161.491,39.129 162.125,29.353C170.274,23.916 178.961,18.901 187.744,14.562Z" style="fill:none;stroke:black;stroke-width:0.59px;"/>
                </g>
                <g transform="matrix(1,0,0,1,-222.901,-665.351)">
                    <path d="M496.436,681.627L510.131,681.739C510.814,683.333 502.843,686.336 500.926,687.352C499.654,688.026 500.253,691.618 500.253,691.618L502.161,696.765L499.242,696.765C499.242,696.765 497.371,694.424 496.436,694.424C495.5,694.424 493.63,696.765 493.63,696.765L490.711,696.765L492.619,691.618C492.619,691.618 493.571,688.815 491.284,687.112C490.333,686.404 479.671,683.983 479.061,681.769L496.436,681.627Z" style="fill:none;stroke:black;stroke-width:0.42px;"/>
                </g>
                <g transform="matrix(-0.49481,0.132584,-0.168151,-0.627549,334.94,156.023)">
                    <path d="M72.346,218.414C72.346,217.885 71.801,217.455 71.13,217.455L68.698,217.455C68.027,217.455 67.482,217.885 67.482,218.414L67.482,247.413C67.482,247.942 68.027,248.372 68.698,248.372L71.13,248.372C71.801,248.372 72.346,247.942 72.346,247.413L72.346,218.414Z" style="fill:white;stroke:black;stroke-width:0.71px;"/>
                </g>
                <g transform="matrix(-0.49481,0.132584,-0.132584,-0.49481,326.825,127.776)">
                    <path d="M79.455,215.548C79.455,213.958 78.164,212.667 76.574,212.667L61.195,212.667C59.606,212.667 58.315,213.958 58.315,215.548L58.315,221.309C58.315,222.899 59.606,224.19 61.195,224.19L76.574,224.19C78.164,224.19 79.455,222.899 79.455,221.309L79.455,215.548Z" style="fill:white;stroke:black;stroke-width:0.81px;"/>
                </g>
            </g>
        </g>
    </g>
</svg>
