<?xml version="1.0" encoding="UTF-8" standalone="no"?>
<!DOCTYPE svg PUBLIC "-//W3C//DTD SVG 1.1//EN" "http://www.w3.org/Graphics/SVG/1.1/DTD/svg11.dtd">
<svg width="100%" height="100%" viewBox="0 0 43 42" version="1.1" xmlns="http://www.w3.org/2000/svg" xmlns:xlink="http://www.w3.org/1999/xlink" xml:space="preserve" xmlns:serif="http://www.serif.com/" style="fill-rule:evenodd;clip-rule:evenodd;stroke-linecap:round;stroke-linejoin:round;stroke-miterlimit:1.5;">
    <g transform="matrix(1,0,0,1,-523,-1145)">
        <g id="stavivo-malta-6-a" transform="matrix(1,0,0,1,273.48,1145.28)">
            <rect x="250" y="0" width="41.667" height="41.667" style="fill:none;"/>
            <g transform="matrix(0.704252,-1.07739e-17,-1.07739e-17,-0.704252,138.614,51.9221)">
                <path d="M187.744,14.562C196.527,18.901 205.214,23.916 213.363,29.353C213.997,39.129 213.997,49.16 213.363,58.936C205.214,64.373 196.527,69.388 187.744,73.727C178.961,69.388 170.274,64.373 162.125,58.936C161.491,49.16 161.491,39.129 162.125,29.353C170.274,23.916 178.961,18.901 187.744,14.562Z" style="fill:rgb(226,46,40);"/>
            </g>
            <g transform="matrix(0.785643,0,0,0.162986,69.8282,-168.335)">
                <path d="M273.304,1209.85C273.304,1201.13 271.837,1194.06 270.03,1194.06L254.27,1194.06C252.462,1194.06 250.995,1201.13 250.995,1209.85C250.995,1218.56 252.462,1225.63 254.27,1225.63L270.03,1225.63C271.837,1225.63 273.304,1218.56 273.304,1209.85Z" style="fill:white;stroke:black;stroke-width:0.73px;"/>
            </g>
            <g transform="matrix(0.785643,0,0,0.162986,69.5626,-173.382)">
                <path d="M273.304,1209.85C273.304,1201.13 271.837,1194.06 270.03,1194.06L254.27,1194.06C252.462,1194.06 250.995,1201.13 250.995,1209.85C250.995,1218.56 252.462,1225.63 254.27,1225.63L270.03,1225.63C271.837,1225.63 273.304,1218.56 273.304,1209.85Z" style="fill:white;stroke:black;stroke-width:0.73px;"/>
            </g>
            <g transform="matrix(0.785643,0,0,0.162986,68.6329,-178.429)">
                <path d="M273.304,1209.85C273.304,1201.13 271.837,1194.06 270.03,1194.06L254.27,1194.06C252.462,1194.06 250.995,1201.13 250.995,1209.85C250.995,1218.56 252.462,1225.63 254.27,1225.63L270.03,1225.63C271.837,1225.63 273.304,1218.56 273.304,1209.85Z" style="fill:white;stroke:black;stroke-width:0.73px;"/>
            </g>
            <g transform="matrix(0.785643,0,-0.0546928,0.785643,126.665,-929.672)">
                <path d="M273.304,1199.64C273.304,1196.56 270.805,1194.06 267.727,1194.06L256.572,1194.06C253.494,1194.06 250.995,1196.56 250.995,1199.64L250.995,1220.05C250.995,1223.13 253.494,1225.63 256.572,1225.63L267.727,1225.63C270.805,1225.63 273.304,1223.13 273.304,1220.05L273.304,1199.64Z" style="fill:white;stroke:black;stroke-width:0.55px;"/>
            </g>
        </g>
    </g>
</svg>
