<?xml version="1.0" encoding="UTF-8" standalone="no"?>
<!DOCTYPE svg PUBLIC "-//W3C//DTD SVG 1.1//EN" "http://www.w3.org/Graphics/SVG/1.1/DTD/svg11.dtd">
<svg width="100%" height="100%" viewBox="0 0 43 43" version="1.1" xmlns="http://www.w3.org/2000/svg" xmlns:xlink="http://www.w3.org/1999/xlink" xml:space="preserve" xmlns:serif="http://www.serif.com/" style="fill-rule:evenodd;clip-rule:evenodd;stroke-linecap:round;stroke-linejoin:round;stroke-miterlimit:1.5;">
    <g transform="matrix(1,0,0,1,-631,-162)">
        <g id="jidlo-koreni-5-a" transform="matrix(1,0,0,1,381.986,162.477)">
            <rect x="250" y="0" width="41.667" height="41.667" style="fill:none;"/>
            <g transform="matrix(0.709365,-1.08521e-17,-1.08521e-17,-0.709365,137.654,50.5365)">
                <path d="M187.744,14.562C197.775,20.081 207.53,27.168 215.878,35.003C213.729,46.249 210.003,57.716 205.132,68.077C193.772,69.508 181.715,69.508 170.356,68.077C165.484,57.716 161.759,46.249 159.61,35.003C167.958,27.168 177.713,20.081 187.744,14.562Z" style="fill:rgb(21,195,51);"/>
            </g>
            <g transform="matrix(1.936,0.203342,-0.203342,1.936,-324.603,-354.326)">
                <path d="M322.904,153.113C322.604,154.106 323.113,156.283 323.355,157.567C323.565,158.682 324.498,159.694 324.356,160.82C324.164,162.337 322.504,165.348 322.204,166.674C322.047,167.367 322.479,168.276 322.554,168.776C322.599,169.075 322.562,169.668 322.654,169.677C322.746,169.685 322.991,169.126 323.105,168.826C323.271,168.384 323.37,167.584 323.655,167.025C324.114,166.124 325.298,164.397 325.857,163.422C326.276,162.69 326.869,162.001 327.008,161.17C327.2,160.019 326.924,157.7 327.008,156.516C327.066,155.684 327.803,154.845 327.508,154.064C327.2,153.247 327.074,151.871 325.156,151.612C324.38,151.508 323.166,152.25 322.904,153.113Z" style="fill:white;stroke:black;stroke-width:0.21px;"/>
            </g>
            <g transform="matrix(1.936,0.203342,-0.203342,1.936,-324.603,-354.326)">
                <path d="M324.763,151.429C323.882,151.392 323.248,151.991 322.984,152.542L323.801,152.355L324.121,152.887L325.035,152.601L326.104,153.092L326.444,152.557L327.245,152.689C327.033,152.324 326.12,151.6 325.403,151.487C325.403,151.487 325.471,150.945 325.403,150.686C325.308,150.319 324.829,149.285 324.829,149.285L324.279,149.285C324.279,149.285 324.717,150.299 324.798,150.657C324.855,150.908 324.763,151.429 324.763,151.429Z" style="fill:white;stroke:black;stroke-width:0.21px;"/>
            </g>
        </g>
    </g>
</svg>
