<?xml version="1.0" encoding="UTF-8" standalone="no"?>
<!DOCTYPE svg PUBLIC "-//W3C//DTD SVG 1.1//EN" "http://www.w3.org/Graphics/SVG/1.1/DTD/svg11.dtd">
<svg width="100%" height="100%" viewBox="0 0 43 43" version="1.1" xmlns="http://www.w3.org/2000/svg" xmlns:xlink="http://www.w3.org/1999/xlink" xml:space="preserve" xmlns:serif="http://www.serif.com/" style="fill-rule:evenodd;clip-rule:evenodd;stroke-linecap:round;stroke-linejoin:round;stroke-miterlimit:1.5;">
    <g transform="matrix(1,0,0,1,-372,-400)">
        <g id="luxus-alkohol-3-a" transform="matrix(1,0,0,1,122.531,400.847)">
            <rect x="250" y="0" width="41.667" height="41.667" style="fill:none;"/>
            <g transform="matrix(-0.362672,0.628167,0.628167,0.362672,311.193,-113.891)">
                <path d="M187.744,14.562C201.739,23.684 212.461,42.254 213.363,58.936C198.466,66.495 177.022,66.495 162.125,58.936C163.027,42.254 173.748,23.684 187.744,14.562Z" style="fill:rgb(253,191,51);"/>
            </g>
            <g transform="matrix(1.04956,0,0,1.04956,142.023,-370.104)">
                <g transform="matrix(0.815535,0.815535,-0.799901,0.799901,321.445,-21.873)">
                    <path d="M131.08,370.261L131.652,371.894L121.23,382.52C120.253,382.234 119.287,381.85 118.366,381.376L130.497,369.008L131.08,370.261Z" style="fill:white;stroke:black;stroke-width:0.35px;"/>
                </g>
                <g transform="matrix(0.815535,0.815535,-0.799901,0.799901,321.445,-21.873)">
                    <path d="M115.858,379.891C113.563,378.332 111.525,376.281 109.972,373.985L123.091,360.609C125.389,362.161 127.442,364.197 129.002,366.49L115.858,379.891Z" style="fill:white;stroke:black;stroke-width:0.35px;"/>
                </g>
                <g transform="matrix(0.815535,0.815535,-0.799901,0.799901,321.445,-21.873)">
                    <path d="M108.479,371.465C107.987,370.54 107.605,369.577 107.32,368.605C110.963,364.891 113.15,362.662 117.744,357.978C118.701,358.258 119.648,358.633 120.582,359.126L108.479,371.465Z" style="fill:white;stroke:black;stroke-width:0.35px;"/>
                </g>
                <g transform="matrix(0.562799,0.815535,-0.552011,0.799901,260.037,-21.873)">
                    <path d="M117.744,357.978C123.988,359.807 129.822,365.65 131.652,371.894C127.058,376.578 125.824,377.836 121.23,382.52C114.985,380.69 109.15,374.849 107.32,368.605C110.963,364.891 113.15,362.662 117.744,357.978Z" style="fill:white;stroke:black;stroke-width:0.35px;"/>
                </g>
                <g transform="matrix(0.233822,0.815535,-0.22934,0.799901,179.746,-21.873)">
                    <path d="M117.744,357.978C123.988,359.807 129.822,365.65 131.652,371.894C127.058,376.578 125.824,377.836 121.23,382.52C114.985,380.69 109.15,374.849 107.32,368.605C110.963,364.891 113.15,362.662 117.744,357.978Z" style="fill:white;stroke:black;stroke-width:0.35px;"/>
                </g>
                <g transform="matrix(1.10788,0,0,1,-13.2822,3.23311)">
                    <path d="M132.199,362.63L132.379,363.731L113.064,363.731L113.232,362.591L113.785,360.498L131.603,360.498L132.199,362.63Z" style="stroke:black;stroke-width:0.38px;"/>
                </g>
                <g transform="matrix(1.10788,0,0,1,-13.8065,15.9908)">
                    <path d="M132.958,360.498C132.795,361.596 132.562,362.67 132.24,363.731L114.38,363.731C114.049,362.678 113.785,361.585 113.606,360.498L132.958,360.498Z" style="stroke:black;stroke-width:0.38px;"/>
                </g>
            </g>
            <g transform="matrix(0.771311,0,0,0.771311,216.078,-260.528)">
                <circle cx="71.049" cy="367.08" r="1.984" style="stroke:white;stroke-width:0.54px;"/>
            </g>
        </g>
    </g>
</svg>
