<?xml version="1.0" encoding="UTF-8" standalone="no"?>
<!DOCTYPE svg PUBLIC "-//W3C//DTD SVG 1.1//EN" "http://www.w3.org/Graphics/SVG/1.1/DTD/svg11.dtd">
<svg width="100%" height="100%" viewBox="0 0 42 43" version="1.1" xmlns="http://www.w3.org/2000/svg" xmlns:xlink="http://www.w3.org/1999/xlink" xml:space="preserve" xmlns:serif="http://www.serif.com/" style="fill-rule:evenodd;clip-rule:evenodd;stroke-linecap:round;stroke-linejoin:round;stroke-miterlimit:1.5;">
    <g transform="matrix(1,0,0,1,-680,-1033)">
        <g id="nastroj-bronz-5-b" transform="matrix(1,0,0,1,430.029,1033.52)">
            <rect x="250" y="0" width="41.667" height="41.667" style="fill:none;"/>
            <g transform="matrix(0.61672,0,0,1.02436,164.452,-1228.14)">
                <path d="M180.938,1216.74C180.938,1215.86 179.75,1215.51 178.288,1215.51L152.576,1215.51C151.038,1215.51 149.288,1217.27 146.414,1219C144.239,1220.31 147.844,1223.01 147.844,1223.01C147.844,1223.01 151.142,1221.89 152.605,1221.89C152.605,1221.89 174.143,1224.98 174.884,1224.83C176.112,1224.59 180.823,1221.33 180.938,1220.91L180.938,1216.74Z" style="stroke:white;stroke-width:0.49px;"/>
            </g>
            <g transform="matrix(0.709365,-1.08521e-17,-1.08521e-17,-0.709365,137.654,50.5365)">
                <path d="M187.744,14.562C197.775,20.081 207.53,27.168 215.878,35.003C213.729,46.249 210.003,57.716 205.132,68.077C193.772,69.508 181.715,69.508 170.356,68.077C165.484,57.716 161.759,46.249 159.61,35.003C167.958,27.168 177.713,20.081 187.744,14.562Z" style="fill:none;stroke:black;stroke-width:0.59px;"/>
            </g>
            <g transform="matrix(0.61672,0,0,1.02436,161.516,-1224.88)">
                <path d="M180.938,1217.1C180.938,1216.22 179.75,1215.51 178.288,1215.51L152.605,1215.51C151.142,1215.51 149.954,1216.22 149.954,1217.1L149.954,1220.3C149.954,1221.18 151.142,1221.89 152.605,1221.89L178.288,1221.89C179.75,1221.89 180.938,1221.18 180.938,1220.3L180.938,1217.1Z" style="stroke:white;stroke-width:0.49px;"/>
            </g>
            <g transform="matrix(0.694276,0,0,0.694276,-220.513,-744.076)">
                <path d="M708.627,1100.89L713.197,1096.18" style="fill:none;stroke:white;stroke-width:0.6px;"/>
            </g>
            <g transform="matrix(0.694276,0,0,0.674547,-220.513,-722.319)">
                <path d="M715.209,1097.87L710.912,1102.77" style="fill:none;stroke:white;stroke-width:0.61px;"/>
            </g>
            <g transform="matrix(0.581405,0.205697,-0.341659,0.965706,598.102,-1195.34)">
                <path d="M180.938,1216.74C180.938,1215.86 179.75,1215.51 178.288,1215.51L152.576,1215.51C151.038,1215.51 149.288,1217.27 146.414,1219C144.239,1220.31 147.844,1223.01 147.844,1223.01C147.844,1223.01 151.142,1221.89 152.605,1221.89C152.605,1221.89 174.143,1224.98 174.884,1224.83C176.112,1224.59 180.823,1221.33 180.938,1220.91L180.938,1216.74Z" style="stroke:white;stroke-width:0.49px;"/>
            </g>
            <g transform="matrix(0.581405,0.205697,-0.341659,0.965706,594.244,-1193.24)">
                <path d="M180.938,1217.1C180.938,1216.22 179.75,1215.51 178.288,1215.51L152.605,1215.51C151.142,1215.51 149.954,1216.22 149.954,1217.1L149.954,1220.3C149.954,1221.18 151.142,1221.89 152.605,1221.89L178.288,1221.89C179.75,1221.89 180.938,1221.18 180.938,1220.3L180.938,1217.1Z" style="stroke:white;stroke-width:0.49px;"/>
            </g>
            <g transform="matrix(0.654521,0.231564,-0.231564,0.654521,73.7285,-867.391)">
                <path d="M708.627,1100.89L713.197,1096.18" style="fill:none;stroke:white;stroke-width:0.6px;"/>
            </g>
            <g transform="matrix(0.654521,0.231564,-0.224984,0.635921,66.4717,-846.88)">
                <path d="M715.209,1097.87L710.912,1102.77" style="fill:none;stroke:white;stroke-width:0.61px;"/>
            </g>
        </g>
    </g>
</svg>
