<?xml version="1.0" encoding="UTF-8" standalone="no"?>
<!DOCTYPE svg PUBLIC "-//W3C//DTD SVG 1.1//EN" "http://www.w3.org/Graphics/SVG/1.1/DTD/svg11.dtd">
<svg width="100%" height="100%" viewBox="0 0 43 43" version="1.1" xmlns="http://www.w3.org/2000/svg" xmlns:xlink="http://www.w3.org/1999/xlink" xml:space="preserve" xmlns:serif="http://www.serif.com/" style="fill-rule:evenodd;clip-rule:evenodd;stroke-linejoin:round;stroke-miterlimit:2;">
    <g transform="matrix(1,0,0,1,-371,-615)">
        <g id="nastroj-lano-4-b" transform="matrix(1,0,0,1,371.905,615.757)">
            <rect x="0" y="0" width="41.667" height="41.667" style="fill:none;"/>
            <clipPath id="_clip1">
                <rect x="0" y="0" width="41.667" height="41.667"/>
            </clipPath>
            <g clip-path="url(#_clip1)">
                <g transform="matrix(1.08252,0,0,1.08252,-53.8238,-815.128)">
                    <path d="M72.936,759.763C76.796,759.803 81.269,761.346 82.307,765.057C83.182,768.184 82.171,771.626 81.608,775.106C81.068,778.325 79.255,781.418 75.773,782.505C73.463,783.227 70.979,783.04 68.623,782.621C68.623,782.621 68.621,782.616 67.854,782.851C66.906,783.13 65.941,783.344 64.975,783.549C64.975,783.549 64.549,783.606 64.279,783.363C63.84,782.967 63.947,782.183 64.645,781.996L65.269,781.862C64.469,781.658 63.666,781.465 62.878,781.226C62.625,781.149 62.373,781.066 62.124,780.976C60.046,780.234 58.086,778.362 58.384,775.857C58.555,774.423 59.208,773.069 60.108,771.921C60.108,771.921 60.738,769.679 61.276,767.813C61.994,765.401 63.387,763.194 65.498,761.826C67.689,760.407 70.318,759.761 72.936,759.763ZM72.671,761.352C68.529,761.429 64.361,763.601 63.024,767.546C62.686,768.542 62.329,770.028 62.329,770.028C63.343,769.444 63.162,769.6 63.162,769.6C63.194,769.451 63.228,769.302 63.264,769.153C64.157,765.634 66.909,762.517 70.864,761.782C74.029,761.195 77.793,762.152 79.445,765.072C80.873,767.594 79.907,770.65 79.526,773.295C79.244,775.161 78.758,777.145 77.269,778.428C75.99,779.53 74.311,780.049 72.614,780.236L71.172,781.359C74.241,781.588 77.876,780.788 79.284,777.626C80.015,775.984 80.14,774.132 80.395,772.325C80.434,772.06 80.434,772.061 80.475,771.797C80.559,771.287 80.645,770.779 80.728,770.269C81.165,767.454 81.418,764.337 78.292,762.642C76.577,761.713 74.608,761.334 72.671,761.352ZM59.937,776.539C59.987,778.441 62.222,779.393 63.682,779.806C65.258,780.253 66.846,780.649 68.45,780.972C69.063,780.731 69.889,780.289 69.889,780.289C68.067,780.188 66.256,779.922 64.462,779.593C62.638,779.244 60.651,778.468 59.937,776.515C59.937,776.515 59.937,776.53 59.937,776.539ZM72.446,777.809C70.951,778.131 69.465,778.525 67.94,778.517L67.94,778.517C69.245,778.678 70.563,778.775 71.875,778.704C72.279,778.276 73.052,777.675 72.446,777.809ZM77.912,773.345C77.548,774.949 76.485,776.36 74.993,777.044C74.993,777.044 74.563,777.82 74.24,778.298C76.153,777.701 77.425,775.942 77.816,773.906C77.883,773.535 77.914,773.336 77.912,773.345ZM62.865,771.559C62.288,771.935 61.582,772.636 61.582,772.636C61.246,773.954 60.931,775.433 61.73,776.558C62.744,777.985 64.732,778.039 66.272,778.28C66.272,778.28 64.744,777.776 63.915,776.538C62.956,775.104 62.879,773.287 62.922,771.625C62.922,771.625 63.003,771.474 62.865,771.559ZM64.911,770.645C64.578,770.745 64.58,770.75 64.58,770.75C64.265,773.334 64.45,776.541 67.396,776.893C68.368,777.01 70.091,776.951 68.879,776.769C66.117,776.298 64.086,773.345 64.966,770.677C64.966,770.677 65.069,770.601 64.911,770.645ZM73.886,775.504C73.547,775.748 73.019,776.043 73.019,776.043C73.331,775.961 73.674,776.14 73.913,775.487C73.913,775.487 73.896,775.497 73.886,775.504ZM67.617,770.223C67.316,770.237 66.886,770.274 66.886,770.274C65.909,772.03 66.664,774.616 68.821,775.139C70.923,775.648 73.297,774.662 74.172,772.701C74.248,772.521 73.885,771.673 73.187,771.185C72.562,770.747 71.766,770.557 71.05,770.435C70.48,770.338 69.904,770.282 69.327,770.244C69.346,771.224 70.274,772.405 69.534,773.098C68.682,773.896 67.77,771.801 67.738,770.218C67.698,770.219 67.657,770.221 67.617,770.223ZM72.55,765.212C71.703,765.23 70.869,765.544 70.218,766.106C70.218,766.106 70.839,765.934 71.23,765.92C74.309,765.812 76.824,769.642 75.945,772.699C75.945,772.699 75.977,773.585 75.859,774.319C77.743,771.182 76.107,766.162 73.64,765.371C73.287,765.259 72.92,765.212 72.55,765.212ZM72.603,763.2C70.385,763.24 68.145,764.106 66.683,765.779C65.897,766.679 65.352,767.764 64.986,768.896C64.986,768.896 64.99,768.956 65.841,768.81C65.841,768.81 67.524,766.42 69.075,764.999C71.517,762.761 75.793,763.371 77.316,767.295C77.905,768.812 78.178,770.452 78.085,772.077C78.085,772.077 79.5,767.477 77.68,765.32C76.444,763.855 74.701,763.188 72.603,763.2ZM71.286,767.507C70.593,767.54 69.982,768.023 69.644,768.66C69.644,768.66 72.596,768.845 74.228,769.925C74.228,769.925 73.092,767.466 71.286,767.507Z" style="stroke:white;stroke-width:0.38px;"/>
                </g>
                <g transform="matrix(1,0,0,1,-69.2918,-751.077)">
                    <path d="M80.537,771.57C81.307,770.732 82.091,769.964 82.94,769.521" style="fill:none;stroke:white;stroke-width:0.42px;stroke-linecap:round;stroke-miterlimit:1.5;"/>
                </g>
                <g transform="matrix(1,0,0,1,-69.2918,-751.077)">
                    <path d="M80.351,776.544C80.225,775.079 80.807,773.674 82.136,772.33C82.483,771.775 84.009,770.699 85.586,770.174C87.057,769.685 88.593,769.727 88.731,769.727C89.194,769.727 89.784,769.651 90.482,769.727" style="fill:none;stroke:white;stroke-width:0.42px;stroke-linecap:round;stroke-miterlimit:1.5;"/>
                </g>
                <g transform="matrix(1,0,0,1,-69.2918,-751.077)">
                    <path d="M83.89,768.971C83.89,768.971 87.321,767.486 91.788,768.101C93.589,768.349 95.261,768.864 96.152,769.727C97.387,770.923 97.822,773.596 97.822,773.596" style="fill:none;stroke:white;stroke-width:0.42px;stroke-linecap:round;stroke-miterlimit:1.5;"/>
                </g>
                <g transform="matrix(1,0,0,1,-69.2918,-751.077)">
                    <path d="M95.821,772.08C96.058,773.165 95.939,774.282 95.481,775.431C95.146,776.216 94.787,777.011 94.135,777.924L93.34,778.956C92.754,779.648 92.027,780.228 91.124,780.668L89.576,781.368C88.614,781.891 87.447,782.208 86.17,782.415" style="fill:none;stroke:white;stroke-width:0.42px;stroke-linecap:round;stroke-miterlimit:1.5;"/>
                </g>
                <g transform="matrix(1,0,0,1,-69.2918,-751.077)">
                    <path d="M97.571,774.167L96.564,777.248L95.821,778.473C95.409,779.171 94.744,779.933 93.827,780.757L92.389,781.827L89.694,783.156" style="fill:none;stroke:white;stroke-width:0.42px;stroke-linecap:round;stroke-miterlimit:1.5;"/>
                </g>
                <g transform="matrix(5.36956e-17,0.701622,0.701622,-5.36956e-17,-10.0615,-110.778)">
                    <path d="M187.744,14.562C200.087,20.643 211.245,31.801 217.326,44.144C211.245,56.488 200.087,67.646 187.744,73.727C175.4,67.646 164.243,56.488 158.162,44.144C164.243,31.801 175.4,20.643 187.744,14.562Z" style="fill:none;stroke:black;stroke-width:0.59px;stroke-linecap:round;stroke-miterlimit:1.5;"/>
                </g>
            </g>
        </g>
    </g>
</svg>
