<?xml version="1.0" encoding="UTF-8" standalone="no"?>
<!DOCTYPE svg PUBLIC "-//W3C//DTD SVG 1.1//EN" "http://www.w3.org/Graphics/SVG/1.1/DTD/svg11.dtd">
<svg width="100%" height="100%" viewBox="0 0 43 43" version="1.1" xmlns="http://www.w3.org/2000/svg" xmlns:xlink="http://www.w3.org/1999/xlink" xml:space="preserve" xmlns:serif="http://www.serif.com/" style="fill-rule:evenodd;clip-rule:evenodd;stroke-linejoin:round;stroke-miterlimit:2;">
    <g transform="matrix(0.709365,-1.08521e-17,-1.08521e-17,-0.709365,-111.36,51.0135)">
        <path d="M187.744,14.562C197.775,20.081 207.53,27.168 215.878,35.003C213.729,46.249 210.003,57.716 205.132,68.077C193.772,69.508 181.715,69.508 170.356,68.077C165.484,57.716 161.759,46.249 159.61,35.003C167.958,27.168 177.713,20.081 187.744,14.562Z" style="fill:rgb(40,50,226);"/>
    </g>
    <g transform="matrix(0.0606782,0,0,0.0606782,5.79998,3.67063)">
        <path d="M329.264,111.9C328.846,111.967 328.423,112.001 328,112C325.976,112 278.329,111.812 245.048,95.466C241.866,94.578 222.016,89.936 195.578,103.155C193.789,104.051 191.727,104.243 189.803,103.692C180.524,101.481 171.01,100.41 161.472,100.503C142.404,100.503 116.598,104.621 93.361,122.22C75.242,135.941 60.9,156.1 50.744,182.133C38.307,214 32,255.005 32,304C32.585,320.984 35.531,337.804 40.753,353.976C51.207,386.207 68.953,409.036 93.553,421.934L109.111,401.188C99.342,392.055 90.924,381.577 84.111,370.07C71.437,348.622 59.111,313.799 72.337,269.701C73.231,266.72 75.787,264.52 78.868,264.08L128,257.062L128,232C128,227.611 131.611,224 136,224C140.389,224 144,227.611 144,232L144,295.891C153.981,295.215 163.816,293.134 173.215,289.71C213.451,274.701 238.3,248.828 247.071,212.81C250.766,197.183 251.369,180.983 248.847,165.125L203.466,139.192C201.146,137.863 198.307,137.785 195.917,138.983L171.578,151.153C170.482,151.691 169.277,151.97 168.056,151.97C163.667,151.97 160.056,148.359 160.056,143.97C160.056,140.967 161.747,138.207 164.422,136.843L188.763,124.672C195.931,121.077 204.446,121.314 211.404,125.301L259.969,153.052C261.874,154.142 263.249,155.969 263.769,158.102C264.033,159.184 270.141,184.935 262.78,215.902C256.155,243.778 237.058,281.032 183.997,302.668L183.997,376C183.997,380.389 180.386,384 175.997,384C167.224,384.01 160.007,391.227 159.997,400L159.997,416L231.997,416L231.997,304C231.997,299.611 235.608,296 239.997,296C242.118,296 244.154,296.843 245.654,298.343C245.67,298.356 253.112,305.368 269.39,309.63C297.05,316.869 328.329,310.748 349.698,304.338C353.408,303.221 357.422,304.955 359.152,308.422C364.893,319.879 377.686,339.9 387.575,344.845C390.282,346.197 391.999,348.974 392,352L392,376C392,380.389 388.389,384 384,384L376,384C367.227,384.01 360.01,391.227 360,400L360,416L432.592,416L440.023,319.387C440.071,318.761 440.193,318.143 440.386,317.546C440.801,316.257 479.886,192.446 431.93,136.546C411.375,112.579 376.829,104.292 329.264,111.9ZM120,192C115.611,192 112,188.389 112,184C112,179.611 115.611,176 120,176C124.389,176 128,179.611 128,184C128,188.389 124.389,192 120,192Z" style="fill:white;fill-rule:nonzero;stroke:black;stroke-width:8.24px;"/>
        <path d="M463.466,161.143C469.012,177.581 471.8,196.773 471.829,218.72C476.525,239.925 480,269.849 480,312C480,316.389 483.611,320 488,320C492.389,320 496,316.389 496,312C496,216.178 478.679,177.033 463.466,161.143Z" style="fill:white;fill-rule:nonzero;stroke:black;stroke-width:8.24px;"/>
    </g>
</svg>
