<?xml version="1.0" encoding="UTF-8" standalone="no"?>
<!DOCTYPE svg PUBLIC "-//W3C//DTD SVG 1.1//EN" "http://www.w3.org/Graphics/SVG/1.1/DTD/svg11.dtd">
<svg width="100%" height="100%" viewBox="0 0 43 42" version="1.1" xmlns="http://www.w3.org/2000/svg" xmlns:xlink="http://www.w3.org/1999/xlink" xml:space="preserve" xmlns:serif="http://www.serif.com/" style="fill-rule:evenodd;clip-rule:evenodd;stroke-linejoin:round;stroke-miterlimit:2;">
    <g transform="matrix(-0.362672,0.628167,0.628167,0.362672,61.724,-113.449)">
        <path d="M187.744,14.562C201.739,23.684 212.461,42.254 213.363,58.936C198.466,66.495 177.022,66.495 162.125,58.936C163.027,42.254 173.748,23.684 187.744,14.562Z" style="fill:rgb(40,50,226);"/>
    </g>
    <g transform="matrix(0.472845,0,0,0.472845,6.36896,4.8899)">
        <g>
            <g>
                <path d="M20.509,5.992C12.729,5.992 5.366,10.778 0,10.778L0,49.475C5.366,49.475 12.729,44.689 20.509,44.689C25.093,44.689 27.966,46.579 29.692,48.471L34.309,48.471C36.036,46.581 38.908,44.689 43.492,44.689C51.272,44.689 58.635,49.475 64.001,49.475L64.001,10.778C58.635,10.778 51.272,5.992 43.492,5.992C34.324,5.992 32.001,13.557 32.001,13.557C32.001,13.557 29.677,5.992 20.51,5.992L20.509,5.992ZM20.509,48.956C12.73,48.956 5.367,53.742 0,53.742L0,58.009C5.366,58.009 12.729,53.223 20.509,53.223C25.093,53.223 27.966,55.115 29.692,57.005L34.309,57.005C36.036,55.115 38.908,53.223 43.492,53.223C51.272,53.223 58.635,58.009 64.001,58.009L64.001,53.742C58.635,53.742 51.272,48.956 43.492,48.956C38.908,48.956 36.035,50.848 34.309,52.738L29.692,52.738C27.965,50.846 25.093,48.956 20.509,48.956Z" style="fill-rule:nonzero;"/>
                <path d="M20.509,48.956C12.73,48.956 5.367,53.742 0,53.742L0,58.009C5.366,58.009 12.729,53.223 20.509,53.223C25.093,53.223 27.966,55.115 29.692,57.005L34.309,57.005C36.036,55.115 38.908,53.223 43.492,53.223C51.272,53.223 58.635,58.009 64.001,58.009L64.001,53.742C58.635,53.742 51.272,48.956 43.492,48.956C38.908,48.956 36.035,50.848 34.309,52.738L29.692,52.738C27.965,50.846 25.093,48.956 20.509,48.956ZM20.509,49.956C24.721,49.956 27.367,51.674 28.953,53.412C29.143,53.62 29.411,53.738 29.692,53.738L34.309,53.738C34.59,53.738 34.858,53.62 35.047,53.412C36.633,51.676 39.28,49.956 43.492,49.956C48.047,49.956 52.451,51.658 56.38,53.003C58.774,53.823 61.005,54.511 63.001,54.694L63.001,56.955C60.633,56.712 57.919,55.681 54.977,54.67C51.392,53.439 47.494,52.223 43.492,52.223C38.798,52.223 35.771,54.074 33.878,56.006C33.879,56.005 30.122,56.005 30.122,56.005C28.231,54.074 25.203,52.223 20.509,52.223C16.507,52.223 12.609,53.439 9.024,54.67C6.082,55.681 3.368,56.712 1,56.955L1,54.694C2.996,54.511 5.227,53.823 7.621,53.003C11.551,51.658 15.954,49.956 20.509,49.956ZM20.509,5.992C12.729,5.992 5.366,10.778 0,10.778L0,49.475C5.366,49.475 12.729,44.689 20.509,44.689C25.093,44.689 27.966,46.579 29.692,48.471L34.309,48.471C36.036,46.581 38.908,44.689 43.492,44.689C51.272,44.689 58.635,49.475 64.001,49.475L64.001,10.778C58.635,10.778 51.272,5.992 43.492,5.992C34.324,5.992 32.001,13.557 32.001,13.557C32.001,13.557 29.677,5.992 20.51,5.992L20.509,5.992ZM20.509,6.992L20.51,6.992C28.886,6.992 31.045,13.851 31.045,13.851C31.174,14.27 31.562,14.557 32.001,14.557C32.44,14.557 32.828,14.27 32.957,13.851C32.957,13.851 35.115,6.992 43.492,6.992C48.047,6.992 52.451,8.694 56.38,10.039C58.774,10.859 61.005,11.547 63.001,11.73L63.001,48.421C60.633,48.178 57.919,47.147 54.977,46.136C51.392,44.905 47.494,43.689 43.492,43.689C38.798,43.689 35.771,45.54 33.878,47.472C33.879,47.471 30.123,47.471 30.123,47.471C28.231,45.539 25.203,43.689 20.509,43.689C16.507,43.689 12.609,44.905 9.024,46.136C6.082,47.147 3.368,48.178 1,48.421L1,11.73C2.996,11.547 5.227,10.859 7.621,10.039C11.55,8.694 15.954,6.992 20.509,6.992Z" style="fill:white;"/>
            </g>
        </g>
    </g>
</svg>
