<?xml version="1.0" encoding="UTF-8" standalone="no"?>
<!DOCTYPE svg PUBLIC "-//W3C//DTD SVG 1.1//EN" "http://www.w3.org/Graphics/SVG/1.1/DTD/svg11.dtd">
<svg width="100%" height="100%" viewBox="0 0 43 43" version="1.1" xmlns="http://www.w3.org/2000/svg" xmlns:xlink="http://www.w3.org/1999/xlink" xml:space="preserve" xmlns:serif="http://www.serif.com/" style="fill-rule:evenodd;clip-rule:evenodd;stroke-linecap:round;stroke-linejoin:round;stroke-miterlimit:1.5;">
    <g transform="matrix(1,0,0,1,-478,-945)">
        <g id="palivo-uhli-5-a" transform="matrix(1,0,0,1,228.656,945.889)">
            <rect x="250" y="0" width="41.667" height="41.667" style="fill:none;"/>
            <g transform="matrix(0.709365,-1.08521e-17,-1.08521e-17,-0.709365,137.654,50.5365)">
                <path d="M187.744,14.562C197.775,20.081 207.53,27.168 215.878,35.003C213.729,46.249 210.003,57.716 205.132,68.077C193.772,69.508 181.715,69.508 170.356,68.077C165.484,57.716 161.759,46.249 159.61,35.003C167.958,27.168 177.713,20.081 187.744,14.562Z" style="fill:rgb(38,38,38);"/>
            </g>
            <g transform="matrix(0.866025,0.5,-0.5,0.866025,661.806,-967.977)">
                <path d="M153.592,1043.47C153.943,1043.47 154.227,1043.75 154.227,1044.1L154.227,1045.35L154.918,1045.35C155.269,1045.35 155.553,1045.63 155.553,1045.98L155.553,1059.76C155.553,1060.12 155.269,1060.4 154.918,1060.4L154.227,1060.4C154.227,1060.75 153.943,1061.04 153.592,1061.04L152.321,1061.04C151.971,1061.04 151.686,1060.75 151.686,1060.4L151.686,1059.27L150.664,1059.27C150.313,1059.27 150.029,1058.98 150.029,1058.63L150.029,1045.43C150.029,1045.08 150.313,1044.79 150.664,1044.79L151.686,1044.79L151.686,1044.1C151.686,1043.75 151.971,1043.47 152.321,1043.47L153.592,1043.47Z" style="fill:white;stroke:black;stroke-width:0.42px;"/>
            </g>
            <g transform="matrix(0.149193,0.556794,-0.556794,0.149193,830.399,-228.949)">
                <path d="M153.592,1043.47C153.943,1043.47 154.227,1043.75 154.227,1044.1L154.227,1045.35L154.918,1045.35C155.269,1045.35 155.553,1045.63 155.553,1045.98L155.553,1059.76C155.553,1060.12 155.269,1060.4 154.918,1060.4L154.227,1060.4C154.227,1060.75 153.943,1061.04 153.592,1061.04L152.321,1061.04C151.971,1061.04 151.686,1060.75 151.686,1060.4L151.686,1059.27L150.664,1059.27C150.313,1059.27 150.029,1058.98 150.029,1058.63L150.029,1045.43C150.029,1045.08 150.313,1044.79 150.664,1044.79L151.686,1044.79L151.686,1044.1C151.686,1043.75 151.971,1043.47 152.321,1043.47L153.592,1043.47Z" style="fill:white;stroke:black;stroke-width:0.72px;"/>
            </g>
            <g transform="matrix(1,0,0,1,56.3168,-1002.24)">
                <path d="M217.651,1014.01C218.017,1014.01 218.314,1014.31 218.314,1014.67L218.314,1026.23C218.314,1026.6 217.705,1028.76 217.339,1028.76L216.013,1028.76C216.004,1028.76 215.995,1028.76 215.985,1028.76C215.976,1028.76 215.967,1028.76 215.958,1028.76L215.055,1026.89C214.719,1026.89 214.447,1026.62 214.447,1026.28L214.447,1017.24C214.447,1016.9 214.719,1016.63 215.055,1016.63L215.662,1016.63L215.662,1014.67C215.662,1014.31 215.959,1014.01 216.325,1014.01L217.651,1014.01Z" style="fill:white;stroke:black;stroke-width:0.42px;"/>
            </g>
            <g transform="matrix(-0.184671,-0.9828,0.9828,-0.184671,-689.722,421.698)">
                <path d="M217.651,1014.01C218.017,1014.01 218.314,1014.31 218.314,1014.67L218.314,1026.23C218.314,1026.6 217.705,1028.76 217.339,1028.76L216.013,1028.76C216.004,1028.76 215.995,1028.76 215.985,1028.76C215.976,1028.76 215.967,1028.76 215.958,1028.76L215.055,1026.89C214.719,1026.89 214.447,1026.62 214.447,1026.28L214.447,1017.24C214.447,1016.9 214.719,1016.63 215.055,1016.63L215.662,1016.63L215.662,1014.67C215.662,1014.31 215.959,1014.01 216.325,1014.01L217.651,1014.01Z" style="fill:white;stroke:black;stroke-width:0.42px;"/>
            </g>
            <g transform="matrix(-0.203704,0.540623,-0.540623,-0.203704,870.286,103.69)">
                <path d="M217.651,1014.01C218.017,1014.01 218.314,1014.31 218.314,1014.67L218.314,1026.23C218.314,1026.6 218.017,1026.89 217.651,1026.89L216.325,1026.89C216.316,1026.89 216.306,1026.89 216.297,1026.89C216.288,1026.89 216.279,1026.89 216.27,1026.89L215.055,1026.89C214.719,1026.89 214.447,1026.62 214.447,1026.28L214.447,1017.24C214.447,1016.9 214.719,1016.63 215.055,1016.63L215.662,1016.63L215.662,1014.67C215.662,1014.31 215.959,1014.01 216.325,1014.01L217.651,1014.01Z" style="fill:white;stroke:black;stroke-width:0.72px;"/>
            </g>
            <g transform="matrix(-0.115041,0.566157,0.566157,0.115041,-288.836,-218.481)">
                <path d="M217.651,1014.01C218.017,1014.01 218.314,1014.31 218.314,1014.67L218.314,1026.23C218.314,1026.6 218.078,1028.4 217.712,1028.4L216.386,1028.4C216.377,1028.4 216.367,1028.4 216.358,1028.4C216.349,1028.4 216.34,1028.4 216.331,1028.4L215.055,1026.89C214.719,1026.89 214.447,1026.62 214.447,1026.28L214.447,1017.24C214.447,1016.9 214.719,1016.63 215.055,1016.63L215.662,1016.63L215.662,1014.67C215.662,1014.31 215.959,1014.01 216.325,1014.01L217.651,1014.01Z" style="fill:white;stroke:black;stroke-width:0.72px;"/>
            </g>
        </g>
    </g>
</svg>
