<?xml version="1.0" encoding="UTF-8" standalone="no"?>
<!DOCTYPE svg PUBLIC "-//W3C//DTD SVG 1.1//EN" "http://www.w3.org/Graphics/SVG/1.1/DTD/svg11.dtd">
<svg width="100%" height="100%" viewBox="0 0 42 43" version="1.1" xmlns="http://www.w3.org/2000/svg" xmlns:xlink="http://www.w3.org/1999/xlink" xml:space="preserve" xmlns:serif="http://www.serif.com/" style="fill-rule:evenodd;clip-rule:evenodd;stroke-linecap:round;stroke-linejoin:round;stroke-miterlimit:1.5;">
    <g transform="matrix(1,0,0,1,-322,-945)">
        <g id="palivo-trus-2-a" transform="matrix(1,0,0,1,322.156,945.369)">
            <rect x="0" y="0" width="41.667" height="41.667" style="fill:none;"/>
            <clipPath id="_clip1">
                <rect x="0" y="0" width="41.667" height="41.667"/>
            </clipPath>
            <g clip-path="url(#_clip1)">
                <g transform="matrix(2.44046,0,0,1.88566,67.144,-1.56712)">
                    <path d="M-23.076,11.879C-23.092,11.735 -23.1,11.587 -23.1,11.438C-23.1,4.391 -18.976,0.831 -18.976,0.831C-18.976,0.831 -14.853,4.391 -14.853,11.438C-14.853,11.587 -14.86,11.735 -14.876,11.879C-14.86,12.024 -14.853,12.171 -14.853,12.32C-14.853,19.368 -18.976,22.928 -18.976,22.928C-18.976,22.928 -23.1,19.368 -23.1,12.32C-23.1,12.171 -23.092,12.024 -23.076,11.879Z" style="fill:rgb(38,38,38);"/>
                </g>
                <g transform="matrix(0.689196,-0.170593,0.128163,0.517779,-94.6917,-519.273)">
                    <path d="M-24.059,1015.16C-24.059,1013.53 -25.053,1012.21 -26.278,1012.21C-27.502,1012.21 -28.497,1013.53 -28.497,1015.16L-28.497,1019.15C-28.497,1020.78 -27.502,1022.1 -26.278,1022.1C-25.053,1022.1 -24.059,1020.78 -24.059,1019.15L-24.059,1015.16Z" style="fill:white;stroke:black;stroke-width:0.66px;"/>
                </g>
                <g transform="matrix(0.325934,0.630761,-0.473878,0.244867,511.96,-212.684)">
                    <path d="M-24.059,1015.16C-24.059,1013.53 -25.053,1012.21 -26.278,1012.21C-27.502,1012.21 -28.497,1013.53 -28.497,1015.16L-28.497,1019.15C-28.497,1020.78 -27.502,1022.1 -26.278,1022.1C-25.053,1022.1 -24.059,1020.78 -24.059,1019.15L-24.059,1015.16Z" style="fill:white;stroke:black;stroke-width:0.66px;"/>
                </g>
                <g transform="matrix(0.538274,-0.462984,0.34783,0.404394,-320.65,-394.602)">
                    <path d="M-24.059,1015.16C-24.059,1013.53 -25.053,1012.21 -26.278,1012.21C-27.502,1012.21 -28.497,1013.53 -28.497,1015.16L-28.497,1019.15C-28.497,1020.78 -27.502,1022.1 -26.278,1022.1C-25.053,1022.1 -24.059,1020.78 -24.059,1019.15L-24.059,1015.16Z" style="fill:white;stroke:black;stroke-width:0.66px;"/>
                </g>
                <g transform="matrix(0.650906,0.283575,-0.213044,0.489012,254.103,-475.953)">
                    <path d="M-24.059,1015.16C-24.059,1013.53 -25.053,1012.21 -26.278,1012.21C-27.502,1012.21 -28.497,1013.53 -28.497,1015.16L-28.497,1019.15C-28.497,1020.78 -27.502,1022.1 -26.278,1022.1C-25.053,1022.1 -24.059,1020.78 -24.059,1019.15L-24.059,1015.16Z" style="fill:white;stroke:black;stroke-width:0.66px;"/>
                </g>
                <g transform="matrix(-0.124715,0.698956,-0.525111,-0.0936957,550.798,136.638)">
                    <path d="M-24.059,1015.16C-24.059,1013.53 -25.053,1012.21 -26.278,1012.21C-27.502,1012.21 -28.497,1013.53 -28.497,1015.16L-28.497,1019.15C-28.497,1020.78 -27.502,1022.1 -26.278,1022.1C-25.053,1022.1 -24.059,1020.78 -24.059,1019.15L-24.059,1015.16Z" style="fill:white;stroke:black;stroke-width:0.66px;"/>
                </g>
                <g transform="matrix(0.584501,0.403053,-0.302805,0.439123,345.648,-403.746)">
                    <path d="M-24.059,1015.16C-24.059,1013.53 -25.053,1012.21 -26.278,1012.21C-27.502,1012.21 -28.497,1013.53 -28.497,1015.16L-28.497,1019.15C-28.497,1020.78 -27.502,1022.1 -26.278,1022.1C-25.053,1022.1 -24.059,1020.78 -24.059,1019.15L-24.059,1015.16Z" style="fill:white;stroke:black;stroke-width:0.66px;"/>
                </g>
                <g transform="matrix(0.702701,0.101508,-0.0762606,0.527925,118.211,-507.196)">
                    <path d="M-24.059,1015.16C-24.059,1013.53 -25.053,1012.21 -26.278,1012.21C-27.502,1012.21 -28.497,1013.53 -28.497,1015.16L-28.497,1019.15C-28.497,1020.78 -27.502,1022.1 -26.278,1022.1C-25.053,1022.1 -24.059,1020.78 -24.059,1019.15L-24.059,1015.16Z" style="fill:white;stroke:black;stroke-width:0.66px;"/>
                </g>
                <g transform="matrix(0.642621,0.301879,-0.226796,0.482788,272.77,-454.957)">
                    <path d="M-24.059,1015.16C-24.059,1013.53 -25.053,1012.21 -26.278,1012.21C-27.502,1012.21 -28.497,1013.53 -28.497,1015.16L-28.497,1019.15C-28.497,1020.78 -27.502,1022.1 -26.278,1022.1C-25.053,1022.1 -24.059,1020.78 -24.059,1019.15L-24.059,1015.16Z" style="fill:white;stroke:black;stroke-width:0.66px;"/>
                </g>
                <g transform="matrix(0.706869,0.0665541,-0.0500007,0.531056,87.0801,-518.122)">
                    <path d="M-24.059,1015.16C-24.059,1013.53 -25.053,1012.21 -26.278,1012.21C-27.502,1012.21 -28.497,1013.53 -28.497,1015.16L-28.497,1019.15C-28.497,1020.78 -27.502,1022.1 -26.278,1022.1C-25.053,1022.1 -24.059,1020.78 -24.059,1019.15L-24.059,1015.16Z" style="fill:white;stroke:black;stroke-width:0.66px;"/>
                </g>
                <g transform="matrix(0.485321,-0.518225,0.389332,0.364611,-362.649,-375.146)">
                    <path d="M-24.059,1015.16C-24.059,1013.53 -25.053,1012.21 -26.278,1012.21C-27.502,1012.21 -28.497,1013.53 -28.497,1015.16L-28.497,1019.15C-28.497,1020.78 -27.502,1022.1 -26.278,1022.1C-25.053,1022.1 -24.059,1020.78 -24.059,1019.15L-24.059,1015.16Z" style="fill:white;stroke:black;stroke-width:0.66px;"/>
                </g>
                <g transform="matrix(0.485321,-0.518225,0.389332,0.364611,-359.235,-370.452)">
                    <path d="M-24.059,1015.16C-24.059,1013.53 -25.053,1012.21 -26.278,1012.21C-27.502,1012.21 -28.497,1013.53 -28.497,1015.16L-28.497,1019.15C-28.497,1020.78 -27.502,1022.1 -26.278,1022.1C-25.053,1022.1 -24.059,1020.78 -24.059,1019.15L-24.059,1015.16Z" style="fill:white;stroke:black;stroke-width:0.66px;"/>
                </g>
                <g transform="matrix(0.624621,-0.337552,0.253596,0.469265,-220.754,-450.735)">
                    <path d="M-24.059,1015.16C-24.059,1013.53 -25.053,1012.21 -26.278,1012.21C-27.502,1012.21 -28.497,1013.53 -28.497,1015.16L-28.497,1019.15C-28.497,1020.78 -27.502,1022.1 -26.278,1022.1C-25.053,1022.1 -24.059,1020.78 -24.059,1019.15L-24.059,1015.16Z" style="fill:white;stroke:black;stroke-width:0.66px;"/>
                </g>
                <g transform="matrix(0.624621,-0.337552,0.253596,0.469265,-224.389,-469.861)">
                    <path d="M-24.059,1015.16C-24.059,1013.53 -25.053,1012.21 -26.278,1012.21C-27.502,1012.21 -28.497,1013.53 -28.497,1015.16L-28.497,1019.15C-28.497,1020.78 -27.502,1022.1 -26.278,1022.1C-25.053,1022.1 -24.059,1020.78 -24.059,1019.15L-24.059,1015.16Z" style="fill:white;stroke:black;stroke-width:0.66px;"/>
                </g>
                <g transform="matrix(-0.221884,0.674433,-0.506688,-0.166697,533.404,209.811)">
                    <path d="M-24.059,1015.16C-24.059,1013.53 -25.053,1012.21 -26.278,1012.21C-27.502,1012.21 -28.497,1013.53 -28.497,1015.16L-28.497,1019.15C-28.497,1020.78 -27.502,1022.1 -26.278,1022.1C-25.053,1022.1 -24.059,1020.78 -24.059,1019.15L-24.059,1015.16Z" style="fill:white;stroke:black;stroke-width:0.66px;"/>
                </g>
                <g transform="matrix(0.706234,-0.072986,0.0548329,0.530579,-15.2376,-523.185)">
                    <path d="M-24.059,1015.16C-24.059,1013.53 -25.053,1012.21 -26.278,1012.21C-27.502,1012.21 -28.497,1013.53 -28.497,1015.16L-28.497,1019.15C-28.497,1020.78 -27.502,1022.1 -26.278,1022.1C-25.053,1022.1 -24.059,1020.78 -24.059,1019.15L-24.059,1015.16Z" style="fill:white;stroke:black;stroke-width:0.66px;"/>
                </g>
                <g transform="matrix(0.194568,-0.682815,0.512985,0.146175,-499.163,-137.981)">
                    <path d="M-24.059,1015.16C-24.059,1013.53 -25.053,1012.21 -26.278,1012.21C-27.502,1012.21 -28.497,1013.53 -28.497,1015.16L-28.497,1019.15C-28.497,1020.78 -27.502,1022.1 -26.278,1022.1C-25.053,1022.1 -24.059,1020.78 -24.059,1019.15L-24.059,1015.16Z" style="fill:white;stroke:black;stroke-width:0.66px;"/>
                </g>
                <g transform="matrix(0.503821,-0.500257,0.375833,0.378511,-350.133,-372.917)">
                    <path d="M-24.059,1015.16C-24.059,1013.53 -25.053,1012.21 -26.278,1012.21C-27.502,1012.21 -28.497,1013.53 -28.497,1015.16L-28.497,1019.15C-28.497,1020.78 -27.502,1022.1 -26.278,1022.1C-25.053,1022.1 -24.059,1020.78 -24.059,1019.15L-24.059,1015.16Z" style="fill:white;stroke:black;stroke-width:0.66px;"/>
                </g>
                <g transform="matrix(0.234949,0.669994,-0.503353,0.176512,534.21,-136.309)">
                    <path d="M-24.059,1015.16C-24.059,1013.53 -25.053,1012.21 -26.278,1012.21C-27.502,1012.21 -28.497,1013.53 -28.497,1015.16L-28.497,1019.15C-28.497,1020.78 -27.502,1022.1 -26.278,1022.1C-25.053,1022.1 -24.059,1020.78 -24.059,1019.15L-24.059,1015.16Z" style="fill:white;stroke:black;stroke-width:0.66px;"/>
                </g>
                <g transform="matrix(0.624621,-0.337552,0.253596,0.469265,-220.083,-461.025)">
                    <path d="M-24.059,1015.16C-24.059,1013.53 -25.053,1012.21 -26.278,1012.21C-27.502,1012.21 -28.497,1013.53 -28.497,1015.16L-28.497,1019.15C-28.497,1020.78 -27.502,1022.1 -26.278,1022.1C-25.053,1022.1 -24.059,1020.78 -24.059,1019.15L-24.059,1015.16Z" style="fill:white;stroke:black;stroke-width:0.66px;"/>
                </g>
                <g transform="matrix(0.646063,0.29444,-0.221207,0.485374,263.677,-480.524)">
                    <path d="M-24.059,1015.16C-24.059,1013.53 -25.053,1012.21 -26.278,1012.21C-27.502,1012.21 -28.497,1013.53 -28.497,1015.16L-28.497,1019.15C-28.497,1020.78 -27.502,1022.1 -26.278,1022.1C-25.053,1022.1 -24.059,1020.78 -24.059,1019.15L-24.059,1015.16Z" style="fill:white;stroke:black;stroke-width:0.66px;"/>
                </g>
            </g>
        </g>
    </g>
</svg>
