<?xml version="1.0" encoding="UTF-8" standalone="no"?>
<!DOCTYPE svg PUBLIC "-//W3C//DTD SVG 1.1//EN" "http://www.w3.org/Graphics/SVG/1.1/DTD/svg11.dtd">
<svg width="100%" height="100%" viewBox="0 0 43 43" version="1.1" xmlns="http://www.w3.org/2000/svg" xmlns:xlink="http://www.w3.org/1999/xlink" xml:space="preserve" xmlns:serif="http://www.serif.com/" style="fill-rule:evenodd;clip-rule:evenodd;stroke-linejoin:round;stroke-miterlimit:2;">
    <g transform="matrix(1,0,0,1,-249.014,0.992)">
        <g id="jidlo-koreni-5-b">
            <rect x="250" y="0" width="41.667" height="41.667" style="fill:none;"/>
            <g transform="matrix(0.709365,-1.08521e-17,-1.08521e-17,-0.709365,137.654,50.5365)">
                <path d="M187.744,14.562C197.775,20.081 207.53,27.168 215.878,35.003C213.729,46.249 210.003,57.716 205.132,68.077C193.772,69.508 181.715,69.508 170.356,68.077C165.484,57.716 161.759,46.249 159.61,35.003C167.958,27.168 177.713,20.081 187.744,14.562Z" style="fill:rgb(21,195,51);"/>
            </g>
            <g transform="matrix(0.0498045,0,0,0.0498045,255.402,3.58302)">
                <path d="M345.91,155.51C345.269,155.94 344.652,156.408 344.062,156.908C341.262,159.205 338.461,161.612 336,164.131L335.496,164.69C333.312,167.264 331.297,169.955 329.336,172.697L329,173.201C328.105,174.768 327.265,176.338 326.426,178.073L325.976,179.026L325.976,179.03C325.242,180.416 324.625,181.858 324.129,183.342C323.57,185.022 323.066,186.701 322.672,188.381L322.054,190.901C321.898,191.717 321.785,192.541 321.719,193.365L321.719,193.983C321.246,197.475 321.246,201.018 321.719,204.51L321.719,205.463C321.886,206.783 322.129,208.092 322.449,209.381L322.449,210.053C322.785,211.228 323.121,212.404 323.402,213.131L323.398,213.135C324.16,215.467 325.152,217.721 326.367,219.853L326.984,220.975C328.164,222.928 329.472,224.795 330.902,226.572L331.351,227.076L331.91,227.693C333.054,228.959 334.269,230.158 335.551,231.279L336.109,231.728L336.113,231.725C337.133,232.584 338.195,233.389 339.304,234.135C341.074,235.342 342.949,236.393 344.902,237.271L345.574,237.553L345.574,237.549C346.621,238.006 347.711,238.365 348.824,238.615L349.105,238.615C351.387,239.088 353.762,238.533 355.601,237.103C357.34,235.74 358.418,233.705 358.566,231.502L358.566,226.631L359.015,222.096L359.633,218.623C360.023,216.846 360.605,215.119 361.367,213.471C361.648,212.967 361.926,212.463 362.152,212.014L362.543,211.51L363.16,210.725L364.222,209.662L365.679,208.6L366.015,208.6L367.918,207.369L367.922,207.365C368.824,206.889 369.703,206.365 370.551,205.799C371.765,205.322 372.929,204.721 374.023,204.006L375.984,202.998L379.176,201.318L385.672,197.732C391.672,194.018 397.059,189.389 401.633,184.013C406.465,178.353 410.152,171.814 412.496,164.751C414.671,158.244 415.585,151.38 415.183,144.532C414.847,138.763 413.558,133.087 411.375,127.731C408.394,120.36 403.714,113.797 397.711,108.583C396.171,107.236 394.523,106.021 392.785,104.943L392.058,104.493L392.054,104.493C391.164,103.915 390.226,103.411 389.257,102.982C387.085,102.122 384.644,102.263 382.593,103.372C380.492,104.537 379.046,106.603 378.671,108.974L378.281,111.271C378.281,111.829 378.281,112.56 377.89,113.4L377.386,115.919L377.382,115.919C376.425,120.845 375.097,125.693 373.406,130.423C372.605,132.642 371.593,134.779 370.382,136.806C369.367,138.466 368.164,140.009 366.8,141.396C365.382,142.826 363.867,144.158 362.265,145.373C360.472,146.716 358.457,148.115 356.218,149.517L352.8,151.197L351.906,151.755L350.507,152.65L347.538,154.665L345.91,155.51ZM350,56.78C351.922,65.999 352.074,75.503 350.449,84.78C348.594,94.917 344.789,104.596 339.246,113.284C334.035,121.593 327.555,129.038 320.039,135.346L311.75,141.674L307.66,144.698L304.918,146.658L304.922,146.658C303.586,147.877 302.121,148.951 300.551,149.85C299.41,150.869 298.215,151.823 296.969,152.705C296.242,153.432 295.403,154.162 294.563,154.834L293.946,155.338C293.399,155.967 292.821,156.565 292.207,157.131C292.207,157.131 291.871,157.467 291.703,157.69L290.246,159.537C290.031,159.998 289.785,160.448 289.52,160.881L289.071,161.666L289.071,162.225C289.071,162.952 288.621,163.623 288.285,164.409L288.289,164.409C287.449,167.162 286.922,169.998 286.719,172.866L286.719,178.018L286.496,184.795C286.496,186.42 286.496,187.819 286.832,188.826L287.223,191.904C287.512,194.248 286.781,196.604 285.219,198.369C283.657,200.135 281.406,201.147 279.047,201.147L278.43,201.147L278.434,201.147C276.977,201.006 275.532,200.744 274.121,200.361L273.281,200.361C270.391,199.596 267.578,198.564 264.879,197.283C263.192,196.475 261.547,195.58 259.953,194.596L259.168,194.147C257.223,192.916 255.352,191.572 253.567,190.115L252.559,189.33L252.055,188.881C249.785,186.783 247.653,184.537 245.672,182.162L244.664,180.818C242.637,178.217 240.875,175.424 239.399,172.475C238.84,171.412 238.168,169.955 237.496,168.385L237.106,167.432L237.106,167.436C236.446,165.787 235.887,164.107 235.426,162.393L235.035,160.994L235.032,160.994C233.696,156.369 232.981,151.584 232.903,146.771L232.903,145.595C232.848,144.529 232.848,143.466 232.903,142.4L233.239,138.814C233.239,136.408 233.797,133.998 234.246,131.533L234.246,131.537C234.606,129.463 235.129,127.424 235.817,125.435L236.266,123.978C237.051,121.513 237.891,119.162 238.785,116.81L239.067,116.193C241.137,111.994 243.492,107.795 245.953,103.759L246.403,103.087C249.426,99.056 252.731,95.134 256.145,91.384C256.809,90.615 257.52,89.884 258.274,89.201L260.344,87.24C261.52,86.119 262.809,85.001 264.098,83.826L266.336,81.81L266.84,81.361L271.656,77.497C274.625,74.978 277.258,72.513 279.61,70.162C281.727,68.005 283.692,65.705 285.488,63.275C287.254,60.837 288.738,58.205 289.91,55.435C291.278,52.162 292.328,48.767 293.047,45.298C294.488,38.134 295.387,30.868 295.735,23.568L295.735,13.377C295.793,10.806 297.039,8.404 299.113,6.881C301.184,5.357 303.848,4.881 306.32,5.595C307.68,5.951 309.012,6.42 310.297,6.994L311.36,7.443C313.903,8.556 316.356,9.865 318.695,11.361C327.891,17.256 335.566,25.24 341.097,34.658C345.269,41.486 348.277,48.963 350,56.779L350,56.78ZM592.54,374.75C599.435,347.039 593.185,317.695 575.599,295.199C558.013,272.703 531.048,259.554 502.494,259.554L129.084,259.554C122.385,259.546 115.979,262.296 111.369,267.16C106.76,272.023 104.357,278.57 104.724,285.262C107.662,329.75 115.283,373.805 127.462,416.692C136.615,448.876 154.642,477.829 179.485,500.243L147.34,500.243C137.669,500.243 128.727,505.407 123.891,513.782C119.056,522.16 119.056,532.481 123.891,540.86C128.727,549.235 137.668,554.395 147.34,554.395L451.87,554.395C461.546,554.395 470.483,549.234 475.319,540.86C480.155,532.481 480.155,522.161 475.319,513.782C470.484,505.407 461.546,500.243 451.87,500.243L419.671,500.243C436.859,484.727 450.859,466.013 460.886,445.141L502.495,445.141C523.206,445.141 543.323,438.211 559.643,425.453C575.959,412.699 587.541,394.848 592.541,374.75L592.54,374.75ZM537.997,361.195C536.083,369.172 531.54,376.273 525.102,381.351C518.661,386.433 510.696,389.195 502.493,389.195L478.805,389.195C484.508,365.066 488.828,340.629 491.739,316.004L502.493,316.004C513.755,315.996 524.388,321.18 531.325,330.051C538.259,338.922 540.72,350.492 537.997,361.422L537.997,361.195Z" style="fill:white;fill-rule:nonzero;stroke:black;stroke-width:10.04px;"/>
            </g>
        </g>
    </g>
</svg>
