<?xml version="1.0" encoding="UTF-8" standalone="no"?>
<!DOCTYPE svg PUBLIC "-//W3C//DTD SVG 1.1//EN" "http://www.w3.org/Graphics/SVG/1.1/DTD/svg11.dtd">
<svg width="100%" height="100%" viewBox="0 0 43 43" version="1.1" xmlns="http://www.w3.org/2000/svg" xmlns:xlink="http://www.w3.org/1999/xlink" xml:space="preserve" xmlns:serif="http://www.serif.com/" style="fill-rule:evenodd;clip-rule:evenodd;stroke-linejoin:round;stroke-miterlimit:2;">
    <g transform="matrix(1,0,0,1,-249.491,0.728)">
        <g id="jidlo-cukrovinky-6-a">
            <rect x="250" y="0" width="41.667" height="41.667" style="fill:none;"/>
            <g transform="matrix(0.704252,-1.07739e-17,-1.07739e-17,-0.704252,138.018,51.9221)">
                <path d="M187.744,14.562C196.527,18.901 205.214,23.916 213.363,29.353C213.997,39.129 213.997,49.16 213.363,58.936C205.214,64.373 196.527,69.388 187.744,73.727C178.961,69.388 170.274,64.373 162.125,58.936C161.491,49.16 161.491,39.129 162.125,29.353C170.274,23.916 178.961,18.901 187.744,14.562Z" style="fill:rgb(21,195,51);"/>
            </g>
            <g transform="matrix(0.059689,0,0,0.059689,249.281,4.05487)">
                <path d="M607.62,192.39C607.382,192.597 607.14,192.808 606.893,193.015C606.647,193.222 606.401,193.429 606.151,193.632C605.897,193.839 605.643,194.046 605.382,194.249C605.233,194.367 605.081,194.48 604.929,194.597C604.378,195.019 603.815,195.441 603.237,195.855C603.143,195.925 603.046,195.992 602.948,196.058C585.546,208.398 555.686,216.937 530.175,222.386C529.62,222.503 529.054,222.62 528.495,222.738C528.074,222.827 527.652,222.913 527.23,222.999C526.152,223.222 525.066,223.445 523.972,223.663C523.331,223.792 522.691,223.921 522.05,224.046C521.202,224.214 520.347,224.378 519.492,224.542C518.589,224.718 517.683,224.886 516.769,225.058C516.206,225.163 515.644,225.265 515.081,225.37C513.867,225.593 512.644,225.816 511.413,226.034C511.206,226.07 511.003,226.105 510.796,226.144C499.214,228.187 487.003,229.995 474.269,231.55L474.269,347.24C474.269,349.658 472.312,351.615 469.894,351.615C467.476,351.615 465.519,349.658 465.519,347.24L465.523,232.58C437.57,235.693 407.328,237.642 375.925,238.314C375.878,238.314 375.831,238.318 375.784,238.318C373.82,238.361 371.847,238.396 369.874,238.432C369.448,238.439 369.015,238.443 368.589,238.451C366.972,238.475 365.351,238.498 363.726,238.517C362.792,238.529 361.851,238.533 360.913,238.541C359.761,238.553 358.612,238.564 357.46,238.568C355.339,238.58 353.218,238.588 351.093,238.588C348.968,238.588 346.847,238.58 344.726,238.568C343.573,238.564 342.425,238.549 341.273,238.541C340.335,238.533 339.394,238.529 338.456,238.517C336.831,238.502 335.214,238.475 333.597,238.451C333.167,238.443 332.734,238.439 332.308,238.432C330.335,238.4 328.366,238.361 326.402,238.318C326.355,238.318 326.304,238.314 326.257,238.314C276.999,237.26 230.593,233.064 191.417,226.158C191.19,226.119 190.964,226.08 190.741,226.041C189.53,225.826 188.327,225.608 187.132,225.389C186.546,225.283 185.96,225.174 185.378,225.065C184.487,224.897 183.605,224.729 182.722,224.561C181.843,224.393 180.964,224.221 180.093,224.049C179.472,223.928 178.855,223.803 178.237,223.682C177.12,223.459 176.011,223.233 174.909,223.002C174.511,222.92 174.112,222.834 173.714,222.752C173.144,222.631 172.569,222.518 172.003,222.397C145.937,216.83 115.331,208.038 98.112,195.264C98.034,195.205 97.952,195.146 97.874,195.088C97.553,194.85 97.241,194.607 96.932,194.365C96.753,194.225 96.577,194.084 96.401,193.943C96.003,193.623 95.608,193.299 95.225,192.975C94.975,192.76 94.725,192.545 94.479,192.33C94.366,192.232 94.249,192.135 94.139,192.037L94.139,338.737C116.455,357.702 153.694,373.339 202.039,384.022C202.989,384.229 203.957,384.424 204.914,384.631L204.914,279.001C204.914,276.583 206.871,274.626 209.289,274.626C211.707,274.626 213.664,276.583 213.664,279.001L213.664,386.441C256.957,395.02 306.461,399.546 357.734,399.546C413.695,399.546 468.714,393.914 512.674,383.683C558.932,372.913 592.147,357.511 608.904,339.078L608.904,338.645L608.9,191.245C608.826,191.315 608.74,191.385 608.666,191.46C608.33,191.772 607.986,192.085 607.631,192.393L607.62,192.39Z" style="fill:white;fill-rule:nonzero;"/>
                <path d="M607.62,192.39L602.948,196.058C585.546,208.398 555.686,216.937 530.175,222.386L515.081,225.37L510.796,226.144C499.214,228.187 487.003,229.995 474.269,231.55L474.269,347.24C474.269,349.658 472.312,351.615 469.894,351.615C467.476,351.615 465.519,349.658 465.519,347.24L465.523,232.58C437.57,235.693 407.328,237.642 375.925,238.314L357.46,238.568L338.456,238.517L326.257,238.314C276.999,237.26 230.593,233.064 191.417,226.158L178.237,223.682L172.003,222.397C145.937,216.83 115.331,208.038 98.112,195.264L94.139,192.037L94.139,338.737C116.455,357.702 153.694,373.339 202.039,384.022C202.989,384.229 203.957,384.424 204.914,384.631L204.914,279.001C204.914,276.583 206.871,274.626 209.289,274.626C211.707,274.626 213.664,276.583 213.664,279.001L213.664,386.441C256.957,395.02 306.461,399.546 357.734,399.546C413.695,399.546 468.714,393.914 512.674,383.683C558.932,372.913 592.147,357.511 608.904,339.078L608.9,191.245L607.62,192.39ZM602.199,204.556L602.203,336.409C585.564,353.316 554.133,367.15 511.156,377.156C467.626,387.286 413.146,392.845 357.734,392.845C309.045,392.845 261.964,388.734 220.368,380.911C220.366,380.909 220.366,279.001 220.366,279.001C220.366,272.88 215.411,267.925 209.289,267.925C203.168,267.925 198.213,272.88 198.213,279.001L198.213,376.28C155.398,366.334 121.914,352.448 100.845,335.582L100.841,205.083C119.224,215.987 146.724,223.851 170.602,228.95L185.945,231.984L190.272,232.761C229.74,239.718 276.49,243.952 326.114,245.014C326.161,245.015 326.209,245.016 326.257,245.016C326.192,245.016 326.057,245.012 326.057,245.012L344.702,245.27L363.809,245.218L376.068,245.014C404.913,244.397 432.784,242.708 458.82,240.036L458.818,347.24C458.818,353.362 463.772,358.316 469.894,358.316C476.016,358.316 480.971,353.362 480.971,347.24L480.971,237.459C491.712,236.066 502.063,234.489 511.96,232.743L525.294,230.233L531.575,228.94C555.834,223.758 583.842,215.734 602.199,204.556Z"/>
            </g>
            <g transform="matrix(0.059689,0,0,0.059689,249.281,4.05487)">
                <path d="M357.72,408.29C310.568,408.29 257.19,404.192 208.74,394.372C208.51,394.345 208.291,394.302 208.076,394.239C162.619,384.97 121.564,370.649 94.136,349.927L94.136,383.646C120.39,405.978 166.343,423.33 227.246,433.888C284.262,443.771 350.456,446.865 413.626,442.603C508.552,436.197 581.286,414.326 608.896,383.986L608.896,351.287C589.65,368.209 557.4,382.248 514.65,392.197C469.416,402.724 415.15,408.291 357.72,408.291L357.72,408.29Z" style="fill:white;fill-rule:nonzero;"/>
                <path d="M352.071,408.268C353.966,408.284 355.848,408.29 357.72,408.29L357.72,408.291C415.15,408.291 469.416,402.724 514.65,392.197C557.4,382.248 589.65,368.209 608.896,351.287L608.896,383.986C581.286,414.326 508.552,436.197 413.626,442.603C350.456,446.865 284.262,443.771 227.246,433.888C166.343,423.33 120.39,405.978 94.136,383.646L94.136,349.927C121.564,370.649 162.619,384.97 208.076,394.239C208.291,394.302 208.51,394.345 208.74,394.372C254.908,403.73 305.551,407.891 351.018,408.26C350.977,411.139 352.561,412.81 354.199,413.766C355.906,414.764 357.672,414.986 357.719,414.991C357.654,414.905 353.936,409.985 352.071,408.268ZM357.719,414.991L363.147,414.976C419.127,414.634 471.926,409.02 516.169,398.724C552.86,390.185 581.995,378.591 602.186,364.883C602.195,364.876 602.195,381.314 602.195,381.314C591.56,392.08 574.796,401.54 553.225,409.604C517.685,422.89 469.366,432.125 413.175,435.917C350.546,440.142 284.919,437.083 228.391,427.285C170.782,417.298 126.799,401.318 100.842,380.494C100.837,380.49 100.837,362.666 100.837,362.666C128.331,379.963 165.669,392.415 206.538,400.765C206.935,400.868 207.377,400.954 207.837,401.013L207.623,400.983C256.449,410.86 310.215,414.991 357.719,414.991Z"/>
            </g>
            <g transform="matrix(0.059689,0,0,0.059689,249.281,4.05487)">
                <path d="M415.9,151C386.4,151 368.701,157.266 367.181,160.731C368.693,164.199 386.388,170.473 415.9,170.473C445.396,170.473 463.084,164.199 464.595,160.731C463.079,157.266 445.388,151 415.9,151Z" style="fill:white;fill-rule:nonzero;"/>
                <path d="M415.9,151C386.4,151 368.701,157.266 367.181,160.731C368.693,164.199 386.388,170.473 415.9,170.473C445.396,170.473 463.084,164.199 464.595,160.731C463.079,157.266 445.388,151 415.9,151ZM447.671,160.735C439.861,162.475 429.124,163.771 415.9,163.771C402.668,163.771 391.926,162.475 384.113,160.735C391.927,158.997 402.67,157.701 415.9,157.701C429.124,157.701 439.862,158.997 447.671,160.735Z"/>
            </g>
            <g transform="matrix(0.059689,0,0,0.059689,249.281,4.05487)">
                <path d="M535.5,135.31C486.305,123.97 420.82,117.724 351.09,117.724C281.36,117.724 215.88,123.97 166.68,135.31C120.719,145.904 93.282,160.29 93.282,173.794C93.282,174.935 93.493,176.079 93.88,177.228C93.887,177.247 93.895,177.263 93.903,177.282C100.239,195.368 153.692,214.477 237.623,223.884C238.107,223.939 238.592,223.994 239.076,224.048C239.74,224.123 240.42,224.193 241.088,224.263C271.24,227.494 304.022,229.373 338.01,229.755C338.401,229.759 338.795,229.763 339.186,229.767C340.94,229.787 342.697,229.802 344.459,229.81C346.658,229.822 348.865,229.83 351.084,229.83C353.303,229.83 355.51,229.822 357.709,229.81C359.463,229.798 361.213,229.783 362.963,229.767C363.361,229.763 363.76,229.763 364.158,229.755C398.064,229.373 430.763,227.501 460.853,224.287C461.623,224.205 462.4,224.123 463.166,224.037C463.537,223.998 463.904,223.955 464.275,223.912C548.357,214.517 601.915,195.385 608.255,177.279C608.263,177.259 608.271,177.243 608.279,177.224C608.665,176.076 608.876,174.931 608.876,173.79C608.888,160.29 581.45,145.903 535.493,135.31L535.5,135.31ZM415.9,179.228C394.545,179.228 358.4,175.334 358.4,160.736C358.4,146.15 394.545,142.256 415.9,142.256C437.248,142.256 473.377,146.151 473.377,160.736C473.381,175.334 437.252,179.228 415.9,179.228Z" style="fill:white;fill-rule:nonzero;"/>
                <path d="M536.169,135.468C581.719,146.044 608.888,160.356 608.876,173.79C608.876,174.931 608.665,176.076 608.279,177.224C608.271,177.243 608.263,177.259 608.255,177.279C601.915,195.385 548.357,214.517 464.275,223.912L460.853,224.287C430.763,227.501 398.064,229.373 364.158,229.755L351.084,229.83L338.01,229.755C304.022,229.373 271.24,227.494 241.088,224.263L237.623,223.884C153.692,214.477 100.239,195.368 93.903,177.282C93.895,177.263 93.887,177.247 93.88,177.228C93.493,176.079 93.282,174.935 93.282,173.794C93.282,160.29 120.719,145.904 166.68,135.31C215.88,123.97 281.36,117.724 351.09,117.724C419.098,117.724 483.067,123.665 531.82,134.479C532.785,137.986 535.356,141.799 535.494,142.003L536.023,137.359C536.078,136.746 536.129,136.108 536.169,135.468ZM535.493,142.011L535.493,142.012C534.987,142.012 534.482,141.954 533.988,141.84C560.558,147.965 580.747,155.285 592.61,163.067C595.987,165.283 598.621,167.481 600.367,169.731C601.44,171.113 602.176,172.419 602.175,173.784C602.175,173.786 602.175,173.788 602.175,173.79C602.175,174.2 602.084,174.608 601.948,175.02L601.93,175.064C601.011,177.691 598.508,180.159 594.945,182.783C590.384,186.142 584.177,189.426 576.482,192.62C552.014,202.778 513.171,211.705 463.531,217.252L460.141,217.623C430.249,220.817 397.765,222.674 364.083,223.054L351.084,223.128L338.083,223.054C304.32,222.674 271.755,220.809 241.802,217.6L238.37,217.225C188.82,211.671 150.051,202.749 125.629,192.602C117.948,189.41 111.753,186.13 107.201,182.776C103.645,180.156 101.147,177.69 100.228,175.067L100.21,175.023C100.074,174.612 99.983,174.204 99.983,173.794C99.983,172.427 100.72,171.118 101.795,169.734C103.543,167.484 106.178,165.284 109.557,163.069C121.422,155.286 141.612,147.965 168.185,141.84C216.983,130.593 281.93,124.425 351.09,124.425C420.25,124.425 485.202,130.593 533.995,141.84C534.486,141.953 534.989,142.011 535.493,142.011ZM415.9,185.929C431.791,185.929 455.341,183.669 468.063,177.128C475.853,173.123 480.08,167.388 480.078,160.735C480.078,154.088 475.851,148.354 468.059,144.351C455.336,137.815 431.787,135.555 415.9,135.555C400.008,135.555 376.45,137.815 363.723,144.351C355.927,148.354 351.699,154.088 351.699,160.736C351.699,167.388 355.928,173.124 363.721,177.128C376.449,183.669 400.008,185.929 415.9,185.929ZM415.9,179.228C394.545,179.228 358.4,175.334 358.4,160.736C358.4,146.15 394.545,142.256 415.9,142.256C437.248,142.256 473.377,146.151 473.377,160.736C473.381,175.334 437.252,179.228 415.9,179.228Z"/>
            </g>
        </g>
    </g>
</svg>
