<?xml version="1.0" encoding="UTF-8" standalone="no"?>
<!DOCTYPE svg PUBLIC "-//W3C//DTD SVG 1.1//EN" "http://www.w3.org/Graphics/SVG/1.1/DTD/svg11.dtd">
<svg width="100%" height="100%" viewBox="0 0 43 43" version="1.1" xmlns="http://www.w3.org/2000/svg" xmlns:xlink="http://www.w3.org/1999/xlink" xml:space="preserve" xmlns:serif="http://www.serif.com/" style="fill-rule:evenodd;clip-rule:evenodd;stroke-linejoin:round;stroke-miterlimit:2;">
    <g transform="matrix(1,0,0,1,-249.392,0.666)">
        <g id="palivo-tuk-4-b">
            <rect x="250" y="0" width="41.667" height="41.667" style="fill:none;"/>
            <g transform="matrix(5.36956e-17,0.701622,0.701622,-5.36956e-17,239.861,-110.65)">
                <g>
                    <path d="M187.744,14.562C200.087,20.643 211.245,31.801 217.326,44.144C211.245,56.488 200.087,67.646 187.744,73.727C175.4,67.646 164.243,56.488 158.162,44.144C164.243,31.801 175.4,20.643 187.744,14.562Z" style="fill:rgb(87,87,87);"/>
                </g>
            </g>
            <g transform="matrix(0.0453435,0,0,0.0453435,255.021,5.03068)">
                <path d="M338.14,123.84L468.65,316.64L539.838,206.89L611.026,313.67L640.686,337.4L700.006,444.18L581.366,444.18L625.858,461.977L382.638,453.079L281.788,485.708L266.956,450.114L41.536,464.946L80.095,444.184L0.009,444.184L38.568,372.996L56.365,358.164L163.145,197.994L225.434,292.908L338.144,123.838L338.14,123.84ZM542.8,236.55L536.866,257.312L525.003,254.347L480.511,328.499L507.206,349.261L551.698,411.55L522.038,334.433L542.8,334.433L525.003,313.671L554.663,316.636L533.901,278.077L572.46,281.042L542.8,236.55ZM163.14,218.753L65.257,367.053L56.359,417.475L86.019,370.018L109.749,370.018L127.546,328.491L142.378,352.221L148.311,313.662L180.94,284.002L142.381,275.104L172.041,251.374L163.143,218.745L163.14,218.753ZM335.18,153.499L204.67,343.329L216.533,387.821L231.365,352.227L261.025,352.227L284.755,328.497L344.075,325.532L335.177,292.903L409.329,316.633L355.938,239.516L290.684,269.176L347.039,195.024L335.18,153.499Z" style="fill:white;stroke:black;stroke-width:8.82px;"/>
            </g>
        </g>
    </g>
</svg>
