<?xml version="1.0" encoding="UTF-8" standalone="no"?>
<!DOCTYPE svg PUBLIC "-//W3C//DTD SVG 1.1//EN" "http://www.w3.org/Graphics/SVG/1.1/DTD/svg11.dtd">
<svg width="100%" height="100%" viewBox="0 0 43 43" version="1.1" xmlns="http://www.w3.org/2000/svg" xmlns:xlink="http://www.w3.org/1999/xlink" xml:space="preserve" xmlns:serif="http://www.serif.com/" style="fill-rule:evenodd;clip-rule:evenodd;stroke-linejoin:round;stroke-miterlimit:2;">
    <g transform="matrix(1,0,0,1,-249.392,0.666)">
        <g id="palivo-tuk-4-b">
            <rect x="250" y="0" width="41.667" height="41.667" style="fill:none;"/>
            <g transform="matrix(5.36956e-17,0.701622,0.701622,-5.36956e-17,239.861,-110.65)">
                <g>
                    <path d="M187.744,14.562C200.087,20.643 211.245,31.801 217.326,44.144C211.245,56.488 200.087,67.646 187.744,73.727C175.4,67.646 164.243,56.488 158.162,44.144C164.243,31.801 175.4,20.643 187.744,14.562Z" style="fill:rgb(87,87,87);"/>
                </g>
            </g>
        </g>
        <g transform="matrix(0.342402,0,0,0.342402,259.935,8.87409)">
            <g id="Stena-0">
                <g>
                    <path d="M63.27,62.43C63.614,61.775 63.568,60.981 63.15,60.37L57.76,52.55L58.76,52.55C58.762,52.55 58.764,52.55 58.767,52.55C59.864,52.55 60.767,51.647 60.767,50.55C60.767,50.143 60.642,49.745 60.41,49.41L55.03,41.59L56.03,41.59C57.127,41.59 58.03,40.687 58.03,39.59C58.03,39.187 57.908,38.793 57.68,38.46L52.3,30.64L53.3,30.64C54.397,30.64 55.3,29.737 55.3,28.64C55.3,28.237 55.178,27.843 54.95,27.51L45.1,13.06C44.727,12.52 44.111,12.198 43.455,12.198C42.799,12.198 42.183,12.52 41.81,13.06L31.81,27.51C31.582,27.843 31.46,28.237 31.46,28.64C31.46,29.737 32.363,30.64 33.46,30.64L34.46,30.64L29.08,38.46C28.852,38.793 28.73,39.187 28.73,39.59C28.73,40.687 29.633,41.59 30.73,41.59L31.73,41.59L26.35,49.41C26.118,49.745 25.993,50.143 25.993,50.55C25.993,51.647 26.896,52.55 27.993,52.55C27.996,52.55 27.998,52.55 28,52.55L29,52.55L23.61,60.37C23.382,60.703 23.26,61.097 23.26,61.5C23.26,62.597 24.163,63.5 25.26,63.5L61.5,63.5C62.242,63.5 62.925,63.087 63.27,62.43Z" style="fill:white;fill-rule:nonzero;stroke:black;stroke-width:1.17px;"/>
                    <path d="M26,43.11C25.831,42.882 25.681,42.641 25.55,42.39C24.512,40.418 24.655,38.024 25.92,36.19L28.69,32.19C28.528,31.96 28.381,31.719 28.25,31.47C27.209,29.5 27.348,27.106 28.61,25.27L31.48,21.12L30.38,19.52L31.59,19.52C32.1,19.518 32.59,19.321 32.96,18.97L33.42,18.29C33.689,17.665 33.621,16.944 33.24,16.38L22.92,1.38C22.547,0.84 21.931,0.518 21.275,0.518C20.619,0.518 20.003,0.84 19.63,1.38L9.3,16.38C8.878,16.993 8.832,17.792 9.18,18.45C9.525,19.107 10.208,19.52 10.95,19.52L12.17,19.52L6.45,27.72C6.222,28.053 6.1,28.447 6.1,28.85C6.1,29.947 7.003,30.85 8.1,30.85L9.32,30.85L3.65,39.08C3.228,39.693 3.182,40.492 3.53,41.15C3.875,41.807 4.558,42.22 5.3,42.22L6.52,42.22L0.85,50.45C0.622,50.783 0.5,51.177 0.5,51.58C0.5,52.677 1.403,53.58 2.5,53.58L14.44,53.58L13,61.13C12.977,61.252 12.965,61.376 12.965,61.5C12.965,62.597 13.868,63.5 14.965,63.5C14.977,63.5 14.988,63.5 15,63.5L19.77,63.5C19.132,61.69 19.4,59.68 20.49,58.1L23.27,54.1C23.099,53.874 22.949,53.633 22.82,53.38C21.786,51.411 21.929,49.022 23.19,47.19L26,43.11Z" style="fill:white;fill-rule:nonzero;stroke:black;stroke-width:1.17px;"/>
                </g>
            </g>
        </g>
    </g>
</svg>
