<?xml version="1.0" encoding="UTF-8" standalone="no"?>
<!DOCTYPE svg PUBLIC "-//W3C//DTD SVG 1.1//EN" "http://www.w3.org/Graphics/SVG/1.1/DTD/svg11.dtd">
<svg width="100%" height="100%" viewBox="0 0 43 43" version="1.1" xmlns="http://www.w3.org/2000/svg" xmlns:xlink="http://www.w3.org/1999/xlink" xml:space="preserve" xmlns:serif="http://www.serif.com/" style="fill-rule:evenodd;clip-rule:evenodd;stroke-linejoin:round;stroke-miterlimit:2;">
    <g transform="matrix(1,0,0,1,-249.392,0.666)">
        <g id="palivo-tuk-4-b">
            <rect x="250" y="0" width="41.667" height="41.667" style="fill:none;"/>
            <g transform="matrix(5.36956e-17,0.701622,0.701622,-5.36956e-17,239.861,-110.65)">
                <g>
                    <path d="M187.744,14.562C200.087,20.643 211.245,31.801 217.326,44.144C211.245,56.488 200.087,67.646 187.744,73.727C175.4,67.646 164.243,56.488 158.162,44.144C164.243,31.801 175.4,20.643 187.744,14.562Z" style="fill:rgb(87,87,87);"/>
                </g>
            </g>
        </g>
        <g transform="matrix(0.0389308,0,0,0.0389308,257.264,8.96247)">
            <path d="M607.16,529.99C609.113,525.084 607.98,519.486 604.269,515.728C547.976,459.349 474.469,423.38 395.409,413.528C395.113,412.895 394.73,412.305 394.269,411.778C371.085,388.594 344.859,368.669 316.308,352.544C353.359,319.095 397.441,294.38 445.308,280.22C493.175,266.064 543.609,262.818 592.898,270.732C600.148,271.892 606.964,266.954 608.125,259.705C609.285,252.459 604.348,245.643 597.102,244.482C542.266,235.747 486.152,239.814 433.152,256.357C380.144,272.904 331.682,301.478 291.552,339.857C286.388,337.493 281.138,335.13 275.888,333.033L275.888,304.244C297.177,304.337 317.755,296.619 333.728,282.545C359.978,256.295 355.341,212.545 355.166,210.533L355.166,210.529C354.502,204.349 349.619,199.47 343.439,198.806C353.025,180.49 357.154,159.81 355.337,139.216C354.673,133.036 349.794,128.157 343.614,127.493C325.493,126.09 307.298,129.09 290.587,136.243C300.575,123.309 306.294,107.595 306.95,91.266C306.95,54.516 272.563,26.34 271.161,25.118L271.165,25.118C266.321,21.274 259.47,21.274 254.626,25.118C253.052,26.254 218.751,54.169 218.751,90.919C218.805,94.29 219.13,97.657 219.712,100.981C207.446,97.953 194.767,96.949 182.177,98.004C176.028,98.637 171.169,103.496 170.54,109.641C168.719,130.25 172.817,150.953 182.352,169.317C176.203,169.95 171.344,174.809 170.711,180.954C170.711,182.88 166.074,227.067 192.063,253.056C208.086,267.099 228.68,274.814 249.989,274.755L249.989,323.755C202.805,308.591 153.001,303.317 103.689,308.267C96.439,308.994 91.15,315.458 91.877,322.705C92.603,329.955 99.064,335.244 106.315,334.517C150.627,329.954 195.401,334.361 237.975,347.466C280.545,360.575 320.045,382.122 354.115,410.818C306.217,410.181 258.677,419.146 214.295,437.181C169.916,455.212 129.6,481.951 95.725,515.818C92.119,519.607 91.092,525.166 93.1,529.994C95.107,534.822 99.772,538.013 104.998,538.131L594.998,538.131C600.322,538.115 605.115,534.908 607.162,529.994L607.16,529.99ZM315,263.99C304.016,273.17 290.117,278.131 275.801,277.99C275.656,263.674 280.621,249.775 289.801,238.791C300.785,229.611 314.684,224.646 329,224.791C329.105,239.1 324.144,252.982 315,263.99ZM315,192.502C304.016,201.682 290.117,206.647 275.801,206.502C275.746,192.201 280.699,178.334 289.801,167.303C300.785,158.123 314.684,153.158 329,153.303C329.105,167.612 324.144,181.498 315,192.502ZM262.5,53.292C272.59,63.374 278.789,76.702 280,90.917C278.723,105.112 272.535,118.417 262.5,128.542C252.465,118.417 246.277,105.112 245,90.917C246.277,76.718 252.465,63.413 262.5,53.292ZM235.375,137.905L235.375,137.901C244.492,148.956 249.449,162.858 249.375,177.19C235.016,177.284 221.078,172.327 210,163.19C200.898,152.159 195.949,138.292 196,123.991C210.41,123.831 224.414,128.757 235.551,137.901L235.375,137.905ZM210,234.503C200.898,223.472 195.949,209.605 196,195.304C210.32,195.206 224.219,200.128 235.289,209.214C244.406,220.269 249.359,234.171 249.289,248.503C234.957,248.577 221.055,243.62 210,234.503ZM560.96,511.883L139.04,511.883C198.618,463.317 273.13,436.797 350,436.797C426.87,436.797 501.38,463.317 560.96,511.883Z" style="fill:white;fill-rule:nonzero;stroke:black;stroke-width:10.27px;"/>
        </g>
    </g>
</svg>
