<?xml version="1.0" encoding="UTF-8" standalone="no"?>
<!DOCTYPE svg PUBLIC "-//W3C//DTD SVG 1.1//EN" "http://www.w3.org/Graphics/SVG/1.1/DTD/svg11.dtd">
<svg width="100%" height="100%" viewBox="0 0 42 43" version="1.1" xmlns="http://www.w3.org/2000/svg" xmlns:xlink="http://www.w3.org/1999/xlink" xml:space="preserve" xmlns:serif="http://www.serif.com/" style="fill-rule:evenodd;clip-rule:evenodd;stroke-linejoin:round;stroke-miterlimit:2;">
    <g transform="matrix(0.0620425,0,0,0.0583765,0.592735,7.11217)">
        <path d="M381.36,389.2L488.88,211.68C491.681,207.199 495.04,202.16 498.958,198.239L498.962,33.039C498.962,27.437 496.724,22.398 492.243,19.039C488.321,15.68 482.724,14 477.684,14.558L473.204,15.117C357.844,29.117 240.804,29.117 126.004,15.117L122.64,14C117.039,13.441 111.441,15.121 107.519,18.48C103.601,22.398 100.801,27.441 100.801,33.039L100.801,213.919C100.801,248.638 107.519,282.798 120.403,315.279C150.079,388.642 220.643,436.799 300.163,436.799C310.241,436.799 319.765,436.241 329.843,434.561C332.081,430.081 334.323,426.163 336.561,422.241C347.764,405.999 363.444,394.8 381.362,389.198L381.36,389.2ZM375.2,120.4C412.72,120.4 426.161,151.201 427.278,168.002C427.836,171.361 426.719,174.721 424.477,176.963C422.239,179.201 419.438,180.885 416.079,180.885L334.88,180.881C331.52,180.881 328.719,179.76 326.481,176.959C324.243,174.721 323.122,171.357 323.68,167.998C324.802,151.201 337.68,120.4 375.2,120.4L375.2,120.4ZM175.84,176.4C173.602,174.162 172.48,170.798 173.039,167.439C174.719,151.201 187.039,119.837 225.117,119.837C262.078,119.837 275.515,150.638 277.195,167.439C277.754,170.798 276.636,174.158 274.394,176.4C272.156,178.638 268.793,180.322 265.433,180.322L184.238,180.322C181.441,180.322 178.078,179.201 175.84,176.4L175.84,176.4ZM300.16,330.4C266.558,330.4 236.879,313.041 220.082,283.92C215.043,274.959 217.844,263.201 226.801,258.158C235.762,253.119 247.52,255.92 252.563,264.877C262.641,281.678 280.563,292.318 300.165,292.318C319.767,292.318 337.685,282.24 346.645,265.439C351.684,255.919 363.446,253.119 372.407,258.158C381.368,263.196 384.727,274.959 379.688,283.92C364,313.041 333.762,330.4 300.161,330.4L300.16,330.4Z" style="fill-rule:nonzero;"/>
    </g>
    <g transform="matrix(0.0620425,0,0,0.0583765,0.592735,7.11217)">
        <path d="M580.16,214.48C559.441,199.921 530.32,206.082 517.441,228.48L421.121,387.52C432.32,389.2 442.961,393.68 452.48,400.399C461.999,407.118 469.839,414.958 476,424.477L590.24,277.757C605.361,257.601 600.881,228.48 580.162,214.48L580.16,214.48Z" style="fill-rule:nonzero;"/>
    </g>
    <g transform="matrix(0.0620425,0,0,0.0583765,0.592735,7.11217)">
        <path d="M434,427.28C411.039,411.6 379.68,417.202 363.441,440.159C346.64,464.8 363.441,498.397 333.761,530.878C328.159,536.48 332.081,545.999 339.921,545.999C395.362,547.12 430.081,521.358 446.321,497.28C462.559,474.319 456.962,442.96 434.001,427.28L434,427.28Z" style="fill-rule:nonzero;"/>
    </g>
</svg>
