<?xml version="1.0" encoding="UTF-8" standalone="no"?>
<!DOCTYPE svg PUBLIC "-//W3C//DTD SVG 1.1//EN" "http://www.w3.org/Graphics/SVG/1.1/DTD/svg11.dtd">
<svg width="100%" height="100%" viewBox="0 0 42 42" version="1.1" xmlns="http://www.w3.org/2000/svg" xmlns:xlink="http://www.w3.org/1999/xlink" xml:space="preserve" xmlns:serif="http://www.serif.com/" style="fill-rule:evenodd;clip-rule:evenodd;stroke-linejoin:round;stroke-miterlimit:2;">
    <g transform="matrix(1,0,0,1,-249.997,0.12)">
        <g id="stavivo-sroub-6-b">
            <rect x="250" y="0" width="41.667" height="41.667" style="fill:none;"/>
            <g transform="matrix(0.704252,-1.07739e-17,-1.07739e-17,-0.704252,138.614,51.9221)">
                <path d="M187.744,14.562C196.527,18.901 205.214,23.916 213.363,29.353C213.997,39.129 213.997,49.16 213.363,58.936C205.214,64.373 196.527,69.388 187.744,73.727C178.961,69.388 170.274,64.373 162.125,58.936C161.491,49.16 161.491,39.129 162.125,29.353C170.274,23.916 178.961,18.901 187.744,14.562Z" style="fill:none;stroke:black;stroke-width:0.57px;"/>
            </g>
            <g transform="matrix(1.2334,0,0,1.33362,-465.232,-1532.44)">
                <path d="M604.289,1158.52C604.744,1158.19 606.071,1157.66 606.671,1157.66C608.208,1157.66 609.455,1158.91 609.455,1160.45C609.455,1161.6 608.75,1162.59 607.746,1163.02L606.785,1163.43L606.284,1164.2L599.766,1167.13L599.093,1167.08L588.77,1171.69L588.77,1166.12L596.312,1162.04L596.912,1161.54L603.505,1158.52L604.289,1158.52Z" style="stroke:white;stroke-width:0.32px;stroke-linecap:round;stroke-miterlimit:1.5;"/>
            </g>
            <g transform="matrix(1.09291,-0.661977,0.630991,1.14658,-1118.36,-924.532)">
                <path d="M588.77,1162.98L593.903,1165.94L593.903,1171.87L588.77,1174.83L583.637,1171.87L583.637,1165.94L588.77,1162.98Z" style="stroke:white;stroke-width:0.33px;stroke-linecap:round;stroke-miterlimit:1.5;"/>
            </g>
            <g transform="matrix(1.38818,0,-1.26198,0.644086,907.159,-728.819)">
                <rect x="588.77" y="1159.08" width="5.388" height="2.215" style="stroke:white;stroke-width:0.9px;stroke-linecap:round;stroke-miterlimit:1.5;"/>
            </g>
            <g transform="matrix(1.26198,0,0,1.32395,-480.338,-1521.62)">
                <path d="M591.734,1163.77L593.949,1162.69L596.912,1167.83L594.697,1168.9L591.734,1163.77Z" style="stroke:white;stroke-width:0.32px;stroke-linecap:round;stroke-miterlimit:1.5;"/>
            </g>
            <g transform="matrix(1.26198,0,0,1.32395,-480.338,-1521.62)">
                <path d="M594.697,1168.9L596.912,1167.83L593.949,1172.96L591.734,1174.04L594.697,1168.9Z" style="stroke:white;stroke-width:0.32px;stroke-linecap:round;stroke-miterlimit:1.5;"/>
            </g>
            <g transform="matrix(1.47382,0,0,1.58249,-598.989,-1827.25)">
                <path d="M595.55,1162.74C595.55,1162.74 597.613,1162.01 598.61,1164.07C599.608,1166.13 597.806,1167.4 597.806,1167.4" style="stroke:white;stroke-width:0.27px;stroke-linecap:round;stroke-miterlimit:1.5;"/>
            </g>
            <g transform="matrix(1.47382,0,0,1.58249,-600.097,-1826.61)">
                <path d="M595.55,1162.74C595.55,1162.74 597.613,1162.01 598.61,1164.07C599.608,1166.13 597.57,1167.57 597.57,1167.57" style="stroke:white;stroke-width:0.27px;stroke-linecap:round;stroke-miterlimit:1.5;"/>
            </g>
            <g transform="matrix(1.47382,0,0,1.58249,-601.466,-1825.93)">
                <path d="M595.55,1162.74C595.55,1162.74 597.613,1162.01 598.61,1164.07C599.608,1166.13 597.57,1167.5 597.57,1167.5" style="stroke:white;stroke-width:0.27px;stroke-linecap:round;stroke-miterlimit:1.5;"/>
            </g>
            <g transform="matrix(1.47382,0,0,1.58249,-602.962,-1825.31)">
                <path d="M595.55,1162.74C595.55,1162.74 597.613,1162.01 598.61,1164.07C599.608,1166.13 597.669,1167.62 597.669,1167.62" style="stroke:white;stroke-width:0.27px;stroke-linecap:round;stroke-miterlimit:1.5;"/>
            </g>
            <g transform="matrix(1.47382,0,0,1.58249,-604.374,-1824.58)">
                <path d="M595.55,1162.74C595.55,1162.74 597.613,1162.01 598.61,1164.07C599.608,1166.13 597.708,1167.55 597.708,1167.55" style="stroke:white;stroke-width:0.27px;stroke-linecap:round;stroke-miterlimit:1.5;"/>
            </g>
            <g transform="matrix(1.47382,0,0,1.58249,-605.899,-1823.73)">
                <path d="M595.55,1162.74C595.55,1162.74 597.613,1162.01 598.61,1164.07C599.608,1166.13 597.806,1167.4 597.806,1167.4" style="stroke:white;stroke-width:0.27px;stroke-linecap:round;stroke-miterlimit:1.5;"/>
            </g>
            <g transform="matrix(1.47382,0,0,1.47382,-607.19,-1696.6)">
                <path d="M595.55,1162.74C595.55,1162.74 597.613,1162.01 598.61,1164.07C599.608,1166.13 597.806,1167.4 597.806,1167.4" style="stroke:white;stroke-width:0.28px;stroke-linecap:round;stroke-miterlimit:1.5;"/>
            </g>
        </g>
    </g>
</svg>
