<?xml version="1.0" encoding="UTF-8" standalone="no"?>
<!DOCTYPE svg PUBLIC "-//W3C//DTD SVG 1.1//EN" "http://www.w3.org/Graphics/SVG/1.1/DTD/svg11.dtd">
<svg width="100%" height="100%" viewBox="0 0 43 43" version="1.1" xmlns="http://www.w3.org/2000/svg" xmlns:xlink="http://www.w3.org/1999/xlink" xml:space="preserve" xmlns:serif="http://www.serif.com/" style="fill-rule:evenodd;clip-rule:evenodd;stroke-linejoin:round;stroke-miterlimit:2;">
    <g transform="matrix(1,0,0,1,-249.469,0.514)">
        <g id="luxus-alkohol-3-b">
            <rect x="250" y="0" width="41.667" height="41.667" style="fill:none;"/>
            <g transform="matrix(-0.362672,0.628167,0.628167,0.362672,311.193,-113.891)">
                <path d="M187.744,14.562C201.739,23.684 212.461,42.254 213.363,58.936C198.466,66.495 177.022,66.495 162.125,58.936C163.027,42.254 173.748,23.684 187.744,14.562Z" style="fill:rgb(51,96,253);"/>
                <g transform="matrix(-0.0366213,0.0634301,0.0634301,0.0366213,182.409,13.2711)">
                    <path d="M531.04,83.16L531.04,59.539L389.32,185.519L146.22,185.519C119.587,185.519 97.993,207.113 97.993,233.746L97.993,382.356L137.36,382.356L137.36,224.886C137.36,216.191 144.411,209.14 153.106,209.14L153.106,272.128L168.852,342.991L153.106,382.358L160.981,476.842L172.79,500.463L200.349,500.463L188.54,476.842L188.54,398.108L263.341,319.374L318.454,327.249L412.938,327.245L412.938,476.845L424.747,500.466L452.306,500.466L440.497,476.845L460.181,327.245L478.568,304.268C487.248,293.416 494.064,281.202 498.74,268.116L531.045,177.655L581.01,189.967C586.783,191.389 592.838,189.131 596.276,184.276L599.346,179.936C603.17,174.534 602.835,167.225 598.542,162.194L531.04,83.16Z" style="fill:white;fill-rule:nonzero;stroke:black;stroke-width:7.53px;"/>
                </g>
            </g>
        </g>
    </g>
</svg>
