<?xml version="1.0" encoding="UTF-8" standalone="no"?>
<!DOCTYPE svg PUBLIC "-//W3C//DTD SVG 1.1//EN" "http://www.w3.org/Graphics/SVG/1.1/DTD/svg11.dtd">
<svg width="100%" height="100%" viewBox="0 0 43 43" version="1.1" xmlns="http://www.w3.org/2000/svg" xmlns:xlink="http://www.w3.org/1999/xlink" xml:space="preserve" xmlns:serif="http://www.serif.com/" style="fill-rule:evenodd;clip-rule:evenodd;stroke-linejoin:round;stroke-miterlimit:2;">
    <g transform="matrix(1,0,0,1,-425,-896)">
        <g id="palivo-tuk-4-b" transform="matrix(1,0,0,1,175.608,896.666)">
            <rect x="250" y="0" width="41.667" height="41.667" style="fill:none;"/>
            <g transform="matrix(5.36956e-17,0.701622,0.701622,-5.36956e-17,239.861,-110.65)">
                <g>
                    <path d="M187.744,14.562C200.087,20.643 211.245,31.801 217.326,44.144C211.245,56.488 200.087,67.646 187.744,73.727C175.4,67.646 164.243,56.488 158.162,44.144C164.243,31.801 175.4,20.643 187.744,14.562Z" style="fill:rgb(51,96,253);"/>
                </g>
            </g>
        </g>
        <g transform="matrix(0.0523047,0,0,0.0523047,428.135,903.096)">
            <path d="M625.33,262.11C616.775,124.45 505.55,13.22 367.89,4.67C201.44,-6.221 63.78,131.45 74.67,297.89C83.225,435.55 194.45,546.78 332.11,555.33C498.56,566.221 636.22,428.55 625.33,262.11ZM383.44,85.56C383.44,82.451 386.549,79.337 389.663,80.115C416.108,85.56 441.772,95.67 463.554,110.447C466.663,112.001 466.663,116.669 464.331,119.001L392.776,190.556C389.667,193.666 383.444,191.334 383.444,186.666L383.44,85.56ZM236.44,110.451C258.217,95.674 283.108,85.56 310.331,80.119C313.44,79.342 316.554,82.451 316.554,85.564L316.554,186.674C316.554,191.342 310.331,193.674 307.222,190.565L235.667,119.01C233.327,116.674 233.327,112.006 236.44,110.451L236.44,110.451ZM184.327,161.006L260.55,237.229C263.659,240.338 261.327,246.561 256.659,246.561L155.549,246.561C152.44,246.561 149.327,243.452 150.104,240.338C155.549,210.783 167.217,184.338 184.327,161.006L184.327,161.006ZM180.44,393.556C165.663,371.779 155.549,346.888 150.108,319.665C149.331,316.556 152.44,313.442 155.554,313.442L256.664,313.442C261.332,313.442 263.664,319.665 260.554,322.774L188.999,394.329C186.663,396.669 181.995,396.669 180.441,393.556L180.44,393.556ZM316.55,474.447C316.55,477.556 313.441,480.67 310.328,479.892C283.883,474.447 258.219,464.337 236.437,449.56C233.327,448.002 233.327,443.334 235.663,441.002L307.218,369.447C310.328,366.337 316.55,368.669 316.55,373.337L316.55,474.447ZM349.995,322.777C325.886,322.777 307.218,303.332 307.218,280C307.218,255.891 326.663,237.223 349.995,237.223C374.104,237.223 392.772,256.668 392.772,280C392.772,304.109 374.104,322.777 349.995,322.777ZM463.545,449.557C441.768,464.334 416.877,474.448 389.654,479.889C386.545,480.666 383.432,477.557 383.432,474.444L383.436,373.334C383.436,368.666 389.658,366.334 392.768,369.443L464.323,440.998C466.658,443.334 466.658,448.002 463.545,449.557L463.545,449.557ZM519.545,393.557C517.991,396.67 513.323,396.67 510.991,394.334L439.436,322.779C436.326,319.67 438.658,313.447 443.326,313.447L544.436,313.447C547.546,313.447 550.659,316.557 549.882,319.67C545.214,346.893 534.323,371.779 519.546,393.557L519.545,393.557ZM544.436,246.557L443.326,246.557C438.658,246.557 436.326,240.334 439.436,237.225L510.991,165.67C513.323,163.338 517.213,163.338 519.545,166.447C534.322,188.224 544.436,213.115 549.877,240.338C550.663,243.448 548.327,246.557 544.44,246.557L544.436,246.557Z" style="fill:white;fill-rule:nonzero;stroke:black;stroke-width:7.65px;"/>
        </g>
    </g>
</svg>
