<?xml version="1.0" encoding="UTF-8" standalone="no"?>
<!DOCTYPE svg PUBLIC "-//W3C//DTD SVG 1.1//EN" "http://www.w3.org/Graphics/SVG/1.1/DTD/svg11.dtd">
<svg width="100%" height="100%" viewBox="0 0 42 43" version="1.1" xmlns="http://www.w3.org/2000/svg" xmlns:xlink="http://www.w3.org/1999/xlink" xml:space="preserve" xmlns:serif="http://www.serif.com/" style="fill-rule:evenodd;clip-rule:evenodd;stroke-linejoin:round;stroke-miterlimit:2;">
    <g transform="matrix(1,0,0,1,-249.951,0.389)">
        <g id="luxus-sperky-6-a">
            <rect x="250" y="0" width="41.667" height="41.667" style="fill:none;"/>
            <g transform="matrix(0.704252,-1.07739e-17,-1.07739e-17,-0.704252,138.614,52.0859)">
                <g>
                    <path d="M187.744,14.562C196.527,18.901 205.214,23.916 213.363,29.353C213.997,39.129 213.997,49.16 213.363,58.936C205.214,64.373 196.527,69.388 187.744,73.727C178.961,69.388 170.274,64.373 162.125,58.936C161.491,49.16 161.491,39.129 162.125,29.353C170.274,23.916 178.961,18.901 187.744,14.562Z" style="fill:rgb(51,96,253);"/>
                </g>
            </g>
        </g>
        <g transform="matrix(0.0533638,0,0,0.0533638,251.156,4.11294)">
            <path d="M359.18,186.36L359.18,163.868C327.754,157.489 304.098,129.704 304.098,96.395C304.098,63.083 327.754,35.297 359.18,28.918L359.18,9.195C359.18,4.129 363.328,-0 368.446,-0L386.637,-0C391.832,-0 395.902,4.117 395.902,9.195L395.902,394.755L419.312,394.755L433.566,352.228C436.062,344.732 443.082,339.673 450.984,339.673L533.605,339.673L533.605,301.575C502.179,295.196 478.523,267.411 478.523,234.098C478.523,200.789 502.179,173.004 533.605,166.625L533.605,146.914C533.605,141.734 537.754,137.703 542.871,137.703L561.062,137.703C566.257,137.703 570.327,141.828 570.327,146.914L570.327,339.674L616.229,339.674C626.37,339.674 634.588,347.893 634.588,358.033L634.588,468.193C634.588,478.334 626.37,486.556 616.229,486.556L597.866,486.556L597.866,541.638C597.866,551.779 589.648,559.997 579.507,559.997L203.127,559.997C170.779,559.997 134.732,537.727 120.236,508.735L67.349,421.321C61.248,409.114 70.123,394.751 83.771,394.751L175.576,394.751L175.576,320.099C139.049,313.595 111.314,281.673 111.314,243.275C111.314,204.88 139.048,172.959 175.576,166.455L175.576,146.869C175.576,141.885 179.725,137.701 184.842,137.701L203.03,137.701C208.229,137.701 212.3,141.807 212.3,146.869L212.3,394.749L359.18,394.749L359.18,373.636C316.571,363.241 285.739,324.847 285.739,279.995C285.739,235.151 316.563,196.753 359.18,186.354L359.18,186.36ZM359.18,335.11L359.18,224.89C337.446,233.941 322.461,255.41 322.461,279.999C322.461,304.593 337.445,326.061 359.18,335.108L359.18,335.11ZM175.57,282.239L175.57,204.317C159.523,209.989 148.027,225.294 148.027,243.278C148.027,261.266 159.523,276.567 175.57,282.239ZM533.6,263.137L533.6,205.059C522.745,210.215 515.241,221.282 515.241,234.098C515.241,246.914 522.745,257.981 533.6,263.137ZM359.17,125.437L359.17,67.359C348.315,72.515 340.811,83.578 340.811,96.398C340.811,109.214 348.315,120.281 359.17,125.437ZM395.893,477.387C395.893,467.246 387.67,459.024 377.53,459.024C367.393,459.024 359.171,467.247 359.171,477.387C359.171,487.524 367.394,495.746 377.53,495.746C387.671,495.746 395.893,487.523 395.893,477.387ZM487.694,477.387C487.694,467.246 479.475,459.024 469.335,459.024C459.195,459.024 450.976,467.247 450.976,477.387C450.976,487.524 459.195,495.746 469.335,495.746C479.475,495.746 487.694,487.523 487.694,477.387ZM304.084,477.387C304.084,467.246 295.865,459.024 285.725,459.024C275.585,459.024 267.366,467.247 267.366,477.387C267.366,487.524 275.585,495.746 285.725,495.746C295.865,495.746 304.084,487.523 304.084,477.387ZM212.283,477.387C212.283,467.246 204.06,459.024 193.92,459.024C183.78,459.024 175.561,467.247 175.561,477.387C175.561,487.524 183.78,495.746 193.92,495.746C204.06,495.746 212.283,487.523 212.283,477.387Z" style="fill:white;fill-rule:nonzero;stroke:black;stroke-width:7.5px;"/>
        </g>
    </g>
</svg>
