<?xml version="1.0" encoding="UTF-8" standalone="no"?>
<!DOCTYPE svg PUBLIC "-//W3C//DTD SVG 1.1//EN" "http://www.w3.org/Graphics/SVG/1.1/DTD/svg11.dtd">
<svg width="100%" height="100%" viewBox="0 0 43 43" version="1.1" xmlns="http://www.w3.org/2000/svg" xmlns:xlink="http://www.w3.org/1999/xlink" xml:space="preserve" xmlns:serif="http://www.serif.com/" style="fill-rule:evenodd;clip-rule:evenodd;stroke-linejoin:round;stroke-miterlimit:2;">
    <g transform="matrix(1,0,0,1,-249.397,0.641)">
        <g id="luxus-lecivo-5-a">
            <rect x="250" y="0" width="41.667" height="41.667" style="fill:none;"/>
            <g transform="matrix(0.709365,-1.08521e-17,-1.08521e-17,-0.709365,137.654,51.9966)">
                <g>
                    <path d="M187.744,14.562C197.775,20.081 207.53,27.168 215.878,35.003C213.729,46.249 210.003,57.716 205.132,68.077C193.772,69.508 181.715,69.508 170.356,68.077C165.484,57.716 161.759,46.249 159.61,35.003C167.958,27.168 177.713,20.081 187.744,14.562Z" style="fill:rgb(51,96,253);"/>
                    <g transform="matrix(0.0777534,-1.1895e-18,-1.1895e-18,-0.0777534,160.621,67.7627)">
                        <path d="M501.16,462.73L602,462.73L531.934,376.328C537.977,374.551 543.989,370.937 549.485,365.707C563.848,352.031 572.423,329.809 572.423,306.258C572.423,264.832 537.173,238.574 535.673,237.477L534.341,236.5L511.767,236.5L549.779,123.19L527.498,92.604L439.436,92.601L418.432,123.21L453.366,236.5L252.156,236.496C260.09,225.84 274.789,206.039 274.789,171.156C274.789,122.004 233.328,113.383 232.91,113.301L98,113.211L98,146.617L99.195,148.031C99.785,148.726 158.043,218.222 158.043,273.651C158.043,328.171 125.711,353.213 125.395,353.452L123.364,354.967L123.364,377.569L160.032,377.558C155.028,386.515 152.341,396.703 152.341,407.038C152.341,440.319 179.415,467.397 212.693,467.397C245.971,467.397 273.045,440.319 273.045,407.038C273.045,396.694 270.357,386.511 265.353,377.558L361.232,377.554C356.225,386.511 353.541,396.699 353.541,407.042C353.541,440.323 380.615,467.401 413.893,467.401C447.174,467.401 474.245,440.323 474.245,407.042C474.245,396.698 471.557,386.515 466.554,377.565L470.135,377.565L501.16,462.73Z" style="fill:white;fill-rule:nonzero;stroke:black;stroke-width:7.25px;"/>
                    </g>
                </g>
            </g>
        </g>
    </g>
</svg>
