<?xml version="1.0" encoding="UTF-8" standalone="no"?>
<!DOCTYPE svg PUBLIC "-//W3C//DTD SVG 1.1//EN" "http://www.w3.org/Graphics/SVG/1.1/DTD/svg11.dtd">
<svg width="100%" height="100%" viewBox="0 0 42 43" version="1.1" xmlns="http://www.w3.org/2000/svg" xmlns:xlink="http://www.w3.org/1999/xlink" xml:space="preserve" xmlns:serif="http://www.serif.com/" style="fill-rule:evenodd;clip-rule:evenodd;stroke-linecap:round;stroke-linejoin:round;stroke-miterlimit:1.5;">
    <g transform="matrix(1,0,0,1,-322,-352)">
        <g id="luxus-kuze-2-b" transform="matrix(1,0,0,1,322.156,352.901)">
            <rect x="0" y="0" width="41.667" height="41.667" style="fill:none;"/>
            <clipPath id="_clip1">
                <rect x="0" y="0" width="41.667" height="41.667"/>
            </clipPath>
            <g clip-path="url(#_clip1)">
                <g transform="matrix(2.44046,0,0,1.88566,67.144,-1.56712)">
                    <path d="M-23.076,11.879C-23.092,11.735 -23.1,11.587 -23.1,11.438C-23.1,4.391 -18.976,0.831 -18.976,0.831C-18.976,0.831 -14.853,4.391 -14.853,11.438C-14.853,11.587 -14.86,11.735 -14.876,11.879C-14.86,12.024 -14.853,12.171 -14.853,12.32C-14.853,19.368 -18.976,22.928 -18.976,22.928C-18.976,22.928 -23.1,19.368 -23.1,12.32C-23.1,12.171 -23.092,12.024 -23.076,11.879Z" style="fill:rgb(253,191,51);"/>
                </g>
                <g transform="matrix(0.810587,0.0107513,-0.0107513,0.810587,-73.2987,-211.455)">
                    <path d="M119.324,261.859L122.42,268.266L122.857,271.215L125.151,275.147L131.158,277.877L124.605,280.608L125.697,288.036L128.537,290.439L133.015,292.295L125.042,294.48L122.53,294.48L122.857,301.034L119.908,308.352L116.959,301.034L117.287,294.48L114.774,294.48L106.801,292.295L111.279,290.439L114.119,288.036L113.901,280.499L107.347,277.768L113.354,275.038L115.648,271.105L116.085,268.156L119.253,261.603L119.324,261.859Z" style="stroke:white;stroke-width:0.51px;"/>
                </g>
                <g transform="matrix(0.775457,0.236292,-0.236292,0.775457,-9.64032,-229.68)">
                    <ellipse cx="118.672" cy="267.337" rx="0.491" ry="0.752" style="fill:white;"/>
                </g>
                <g transform="matrix(-0.781451,0.215641,0.215641,0.781451,56.8847,-228.798)">
                    <ellipse cx="118.672" cy="267.337" rx="0.491" ry="0.752" style="fill:white;"/>
                </g>
                <g transform="matrix(0.810587,0.0107513,-0.0107513,0.810587,-73.2987,-211.455)">
                    <path d="M116.3,271.238L115.942,273.135L115.512,274.459L117.148,273.672L117.664,271.631L117.874,270.307" style="stroke:white;stroke-width:0.51px;"/>
                </g>
                <g transform="matrix(-0.810587,-0.0107513,-0.0107513,0.810587,120.037,-208.89)">
                    <path d="M116.3,271.238L115.942,273.135L115.512,274.459L117.148,273.672L117.664,271.631L117.874,270.307" style="stroke:white;stroke-width:0.51px;"/>
                </g>
            </g>
        </g>
    </g>
</svg>
