<?xml version="1.0" encoding="UTF-8" standalone="no"?>
<!DOCTYPE svg PUBLIC "-//W3C//DTD SVG 1.1//EN" "http://www.w3.org/Graphics/SVG/1.1/DTD/svg11.dtd">
<svg width="100%" height="100%" viewBox="0 0 42 43" version="1.1" xmlns="http://www.w3.org/2000/svg" xmlns:xlink="http://www.w3.org/1999/xlink" xml:space="preserve" xmlns:serif="http://www.serif.com/" style="fill-rule:evenodd;clip-rule:evenodd;stroke-linecap:round;stroke-linejoin:round;stroke-miterlimit:1.5;">
    <g transform="matrix(1,0,0,1,-322,-615)">
        <g id="nastroj-kosti-2-b" transform="matrix(1,0,0,1,322.156,615.558)">
            <rect x="0" y="0" width="41.667" height="41.667" style="fill:none;"/>
            <clipPath id="_clip1">
                <rect x="0" y="0" width="41.667" height="41.667"/>
            </clipPath>
            <g clip-path="url(#_clip1)">
                <g transform="matrix(2.44046,0,0,1.88566,67.144,-1.56712)">
                    <path d="M-23.076,11.879C-23.092,11.735 -23.1,11.587 -23.1,11.438C-23.1,4.391 -18.976,0.831 -18.976,0.831C-18.976,0.831 -14.853,4.391 -14.853,11.438C-14.853,11.587 -14.86,11.735 -14.876,11.879C-14.86,12.024 -14.853,12.171 -14.853,12.32C-14.853,19.368 -18.976,22.928 -18.976,22.928C-18.976,22.928 -23.1,19.368 -23.1,12.32C-23.1,12.171 -23.092,12.024 -23.076,11.879Z" style="fill:none;stroke:black;stroke-width:0.19px;"/>
                </g>
                <g transform="matrix(1.28931,0,0,1.28931,-6.49768,-852.098)">
                    <path d="M22.427,663.984C22.65,664.463 22.216,665.36 22.541,665.912C22.867,666.465 24.149,666.878 24.38,667.301C24.577,667.661 23.926,668.116 23.927,668.448C23.929,668.769 24.478,668.985 24.389,669.293C24.248,669.786 23.622,671.028 23.08,671.402C22.546,671.771 21.461,671.514 21.137,671.54C21.13,671.541 21.144,671.561 21.137,671.562C21.114,671.563 21.047,671.55 21.001,671.55C20.951,671.55 20.865,671.565 20.833,671.562C20.822,671.561 20.825,671.534 20.813,671.533C20.561,671.507 19.713,671.713 19.324,671.402C18.857,671.029 18.156,669.786 18.014,669.293C17.926,668.985 18.475,668.769 18.476,668.448C18.478,668.116 17.827,667.661 18.024,667.301C18.255,666.878 19.537,666.465 19.863,665.912C20.188,665.36 19.754,664.463 19.977,663.984C20.195,663.517 20.794,663.04 21.202,663.04C21.61,663.04 22.209,663.517 22.427,663.984Z" style="stroke:black;stroke-width:0.32px;"/>
                </g>
                <g transform="matrix(1.28931,0,0,1.28931,-6.49768,-852.098)">
                    <path d="M19.144,667.951L19.641,668.778L19.42,669.661L19.972,670.047" style="stroke:white;stroke-width:0.32px;"/>
                </g>
                <g transform="matrix(-1.28931,0,0,1.28931,48.1314,-852.098)">
                    <path d="M19.144,667.951L19.641,668.778L19.42,669.661L19.972,670.047" style="stroke:white;stroke-width:0.32px;"/>
                </g>
                <g transform="matrix(0.920465,0,0,1.28931,1.66189,-852.098)">
                    <path d="M19.972,671.562C20.667,671.584 20.999,671.584 21.695,671.562C21.838,674.196 21.838,675.865 21.695,679.115C21.639,680.378 21.12,691.062 20.833,691.062C20.546,691.062 20.028,680.378 19.972,679.115C19.828,675.865 19.828,674.196 19.972,671.562Z" style="stroke:black;stroke-width:0.37px;"/>
                </g>
                <g transform="matrix(3.65926e-17,-0.597602,0.274499,1.68082e-17,-162.613,29.9868)">
                    <path d="M19.972,671.562C20.667,671.584 20.999,671.584 21.695,671.562C21.838,674.196 21.838,675.865 21.695,679.115C21.639,680.378 21.12,691.062 20.833,691.062C20.546,691.062 20.028,680.378 19.972,679.115C19.828,675.865 19.828,674.196 19.972,671.562Z" style="stroke:black;stroke-width:0.9px;"/>
                </g>
                <g transform="matrix(-3.65926e-17,-0.597602,-0.274499,1.68082e-17,204.279,29.9015)">
                    <path d="M19.972,671.562C20.667,671.584 20.999,671.584 21.695,671.562C21.838,674.196 21.838,675.865 21.695,679.115C21.639,680.378 21.12,691.062 20.833,691.062C20.546,691.062 20.028,680.378 19.972,679.115C19.828,675.865 19.828,674.196 19.972,671.562Z" style="stroke:black;stroke-width:0.9px;"/>
                </g>
                <g transform="matrix(5.35636e-17,-0.874761,0.401808,2.46036e-17,-248.108,38.8657)">
                    <path d="M19.972,671.562C20.667,671.584 20.999,671.584 21.695,671.562C21.838,674.196 21.838,675.865 21.695,679.115C21.639,680.378 21.12,691.062 20.833,691.062C20.546,691.062 20.028,680.378 19.972,679.115C19.828,675.865 19.828,674.196 19.972,671.562Z" style="stroke:black;stroke-width:0.61px;"/>
                </g>
                <g transform="matrix(-5.35636e-17,-0.874761,-0.401808,2.46036e-17,289.775,38.7804)">
                    <path d="M19.972,671.562C20.667,671.584 20.999,671.584 21.695,671.562C21.838,674.196 21.838,675.865 21.695,679.115C21.639,680.378 21.12,691.062 20.833,691.062C20.546,691.062 20.028,680.378 19.972,679.115C19.828,675.865 19.828,674.196 19.972,671.562Z" style="stroke:black;stroke-width:0.61px;"/>
                </g>
                <g transform="matrix(5.35636e-17,-0.874761,0.366797,2.24598e-17,-224.653,42.1655)">
                    <path d="M19.972,671.562C20.667,671.584 20.999,671.584 21.695,671.562C21.838,674.196 21.838,675.865 21.695,679.115C21.639,680.378 21.12,691.062 20.833,691.062C20.546,691.062 20.028,680.378 19.972,679.115C19.828,675.865 19.828,674.196 19.972,671.562Z" style="stroke:black;stroke-width:0.62px;"/>
                </g>
                <g transform="matrix(-5.35636e-17,-0.874761,-0.366797,2.24598e-17,266.32,42.0802)">
                    <path d="M19.972,671.562C20.667,671.584 20.999,671.584 21.695,671.562C21.838,674.196 21.838,675.865 21.695,679.115C21.639,680.378 21.12,691.062 20.833,691.062C20.546,691.062 20.028,680.378 19.972,679.115C19.828,675.865 19.828,674.196 19.972,671.562Z" style="stroke:black;stroke-width:0.62px;"/>
                </g>
                <g transform="matrix(4.09374e-17,-0.668559,0.280334,1.71655e-17,-166.645,40.6574)">
                    <path d="M19.972,671.562C20.667,671.584 20.999,671.584 21.695,671.562C21.838,674.196 21.838,675.865 21.695,679.115C21.639,680.378 21.12,691.062 20.833,691.062C20.546,691.062 20.028,680.378 19.972,679.115C19.828,675.865 19.828,674.196 19.972,671.562Z" style="stroke:black;stroke-width:0.81px;"/>
                </g>
                <g transform="matrix(-4.09374e-17,-0.668559,-0.280334,1.71655e-17,208.312,40.5721)">
                    <path d="M19.972,671.562C20.667,671.584 20.999,671.584 21.695,671.562C21.838,674.196 21.838,675.865 21.695,679.115C21.639,680.378 21.12,691.062 20.833,691.062C20.546,691.062 20.028,680.378 19.972,679.115C19.828,675.865 19.828,674.196 19.972,671.562Z" style="stroke:black;stroke-width:0.81px;"/>
                </g>
                <g transform="matrix(2.89121e-17,-0.47217,0.197986,1.21232e-17,-111.571,38.7848)">
                    <path d="M19.972,671.562C20.667,671.584 20.999,671.584 21.695,671.562C21.838,674.196 21.838,675.865 21.695,679.115C21.639,680.378 21.12,691.062 20.833,691.062C20.546,691.062 20.028,680.378 19.972,679.115C19.828,675.865 19.828,674.196 19.972,671.562Z" style="stroke:black;stroke-width:1.15px;"/>
                </g>
                <g transform="matrix(-2.89121e-17,-0.47217,-0.197986,1.21232e-17,153.238,38.6995)">
                    <path d="M19.972,671.562C20.667,671.584 20.999,671.584 21.695,671.562C21.838,674.196 21.838,675.865 21.695,679.115C21.639,680.378 21.12,691.062 20.833,691.062C20.546,691.062 20.028,680.378 19.972,679.115C19.828,675.865 19.828,674.196 19.972,671.562Z" style="stroke:black;stroke-width:1.15px;"/>
                </g>
                <g transform="matrix(2.89121e-17,-0.47217,0.197986,1.21232e-17,-111.287,25.2442)">
                    <path d="M19.972,671.562C20.667,671.584 20.999,671.584 21.695,671.562C21.838,674.196 21.838,675.865 21.695,679.115C21.639,680.378 21.12,691.062 20.833,691.062C20.546,691.062 20.028,680.378 19.972,679.115C19.828,675.865 19.828,674.196 19.972,671.562Z" style="stroke:black;stroke-width:1.15px;"/>
                </g>
                <g transform="matrix(-2.89121e-17,-0.47217,-0.197986,1.21232e-17,152.953,25.1589)">
                    <path d="M19.972,671.562C20.667,671.584 20.999,671.584 21.695,671.562C21.838,674.196 21.838,675.865 21.695,679.115C21.639,680.378 21.12,691.062 20.833,691.062C20.546,691.062 20.028,680.378 19.972,679.115C19.828,675.865 19.828,674.196 19.972,671.562Z" style="stroke:black;stroke-width:1.15px;"/>
                </g>
            </g>
        </g>
    </g>
</svg>
