<?xml version="1.0" encoding="UTF-8" standalone="no"?>
<!DOCTYPE svg PUBLIC "-//W3C//DTD SVG 1.1//EN" "http://www.w3.org/Graphics/SVG/1.1/DTD/svg11.dtd">
<svg width="100%" height="100%" viewBox="0 0 43 42" version="1.1" xmlns="http://www.w3.org/2000/svg" xmlns:xlink="http://www.w3.org/1999/xlink" xml:space="preserve" xmlns:serif="http://www.serif.com/" style="fill-rule:evenodd;clip-rule:evenodd;stroke-linejoin:round;stroke-miterlimit:2;">
    <g transform="matrix(5.36956e-17,0.701622,0.701622,-5.36956e-17,-9.347,-110.696)">
        <path d="M187.744,14.562C200.087,20.643 211.245,31.801 217.326,44.144C211.245,56.488 200.087,67.646 187.744,73.727C175.4,67.646 164.243,56.488 158.162,44.144C164.243,31.801 175.4,20.643 187.744,14.562Z" style="fill:rgb(40,50,226);"/>
    </g>
    <g transform="matrix(0.297326,0,0,0.297326,5.63063,4.49799)">
        <path d="M86.77,63.77C90.41,59.45 96.5,46.77 97.39,45.08C97.519,44.611 97.546,44.12 97.47,43.64C97.394,43.16 97.01,43.49 96.9,43.64C96.09,44.46 91.49,50.15 86.12,56.01L86.12,45.44C86.13,45.389 86.135,45.337 86.135,45.285C86.135,44.84 85.769,44.475 85.325,44.475C84.881,44.475 84.515,44.84 84.515,45.285C84.515,45.337 84.52,45.389 84.53,45.44L84.53,57.68C81.604,60.899 78.452,63.907 75.1,66.68C74.85,66.9 74.32,66.68 73.92,66.68L73.92,62.74C73.92,61.15 73.92,59.56 74,57.97C74.039,57.632 73.998,57.289 73.88,56.97L73.88,54.97C74.73,53.35 75.55,53.14 75.52,52.76C75.52,52.23 74.41,51.85 74.02,51.76C73.97,51.76 73.92,51.7 73.88,51.6L73.88,28.6C75.114,26.774 76.553,25.097 78.17,23.6C78.4,23.4 79.1,22.66 78.17,22.78C76.697,23.323 75.266,23.975 73.89,24.73L73.89,4.51C73.89,2.92 73.53,2.51 73.09,2.51C72.615,2.552 72.256,2.974 72.29,3.45L72.29,3.57C71.672,3.933 70.995,4.183 70.29,4.31C68.48,4.44 67.7,3.11 65.86,4.69C63.13,7.03 62.44,3.78 58.86,6.91C58.46,7.26 59.69,8.75 59.95,10.41C60.009,12.195 59.838,13.979 59.44,15.72C62.57,14.05 63.71,16.32 66.54,13.66C67.75,12.52 70.93,13.77 72.29,14.4L72.29,25.56C69.013,27.282 65.985,29.442 63.29,31.98C57.09,37.69 50.07,46.27 48.72,47.2C48.075,47.549 47.354,47.734 46.62,47.74C46.52,47.74 46.55,42.07 46.39,40.65C46.1,38.13 47.28,37.23 48.32,35.65C48.52,35.35 48.78,34.25 48.51,34.26C47.78,34.26 46.97,35.26 46.34,34.26C46.011,33.56 45.853,32.793 45.88,32.02C45.81,30.89 45.88,29.4 45.88,27.35C45.88,26.81 48.33,27.44 48.99,27.11C49.45,26.88 48.99,26.23 48.82,26.17C48.39,26 46.82,26.27 46.38,26.07C45.8,25.79 45.96,25.22 45.88,24.76C45.66,23.45 46.14,14.76 46.09,14.44C46.01,13.93 46.2,13.54 45.76,13.44C45.32,13.34 45.37,15.73 44.91,15.73C41.32,15.75 43,18 37,18.6C36.26,18.68 37.47,19.31 37.25,20.78C37.09,21.89 36.68,22.95 37.44,22.97C41.67,23.06 42.16,21.37 43.92,21.49C44.11,21.49 44.37,21.36 44.42,22.49C44.42,23.15 44.61,25.79 44.03,25.95C42.85,26.28 41.73,25.81 40.6,26.35C40.29,26.49 40.55,27.24 40.86,27.21C41.4,27.16 44.03,27.08 44.12,27.4C44.39,28.29 44.73,35.16 43.6,35.78C42.33,37.01 35.18,41.68 34.6,49.94C34.1,57.59 38.52,61.28 38.49,61.84C37.246,63.252 36.234,64.852 35.49,66.58C33.3,71.5 35.22,77.29 35.54,77.33C37.04,77.54 38.54,77.99 40.06,78.23C41.71,78.49 43.63,79.49 43.28,81.69C43.28,81.94 42.28,81.4 42.08,81.54C41.169,81.018 40.231,80.544 39.27,80.12C38.27,79.91 22.12,79.49 20.43,79.22C19.56,79.08 19.33,78.42 19.8,77.57C19.849,77.118 19.784,76.66 19.61,76.24C19.082,75.005 18.474,73.806 17.79,72.65C17.434,72.19 17.228,71.631 17.2,71.05C17.2,70.18 18.03,70.7 18.09,70.73C18.86,71.11 26.85,75.73 30.43,77.19C30.56,77.24 31.05,76.1 30.67,75.9C21.118,70.911 12.129,64.91 3.86,58C3.483,57.813 3.078,57.691 2.66,57.64C2.66,57.93 2.44,58.38 2.53,58.48C3.94,60 7.68,63.05 16.11,69.48C16.605,69.812 16.903,70.37 16.903,70.967C16.903,71.426 16.726,71.867 16.41,72.2C16.153,72.725 16.124,73.333 16.33,73.88C16.676,74.635 17.077,75.364 17.53,76.06C18.42,77.6 19.53,78.06 19.08,78.58C18.63,79.1 14.23,77.58 13.08,77.25C11.93,76.92 11.08,76.13 10.79,77.33C10.762,77.877 11.015,78.401 11.46,78.72C17.001,81.387 21.355,86.023 23.67,91.72C24.691,93.773 26.042,95.645 27.67,97.26C28.17,97.79 77.3,97.26 82.37,97.26C83.614,97.39 84.814,96.73 85.37,95.61C86.53,93.31 89.46,86.68 90.05,85.94C90.42,85.47 91.29,85.59 91.74,85.16C94.9,82 96.82,69.83 96.74,69.03C96.24,69.1 89.91,70.92 88.09,71.31C87.26,71.48 86.09,70.64 86.19,69.97C86.32,68.38 86.33,66.79 86.43,65.2C86.435,64.704 86.551,64.215 86.77,63.77ZM71.12,8.77C71.122,7.225 71.521,5.706 72.28,4.36L72.28,13.36C71.61,11.898 71.216,10.325 71.12,8.72L71.12,8.77ZM68.66,41.77C68.81,38.052 69.867,34.426 71.74,31.21C71.81,31.08 72.09,31.45 72.27,31.87L72.27,50.08C71.95,50.76 71.27,51.44 70.08,50.08C68.69,48.37 68.57,44 68.66,41.7L68.66,41.77ZM72.19,80.15C72.07,80.83 71.98,83.79 71.51,84.09C70.51,84.75 49.96,84.29 47.87,84.35C46.34,84.45 46.45,80.95 46.41,80.27C46.41,79.85 48.52,80.11 48.02,79.27C47.24,78.239 46.69,77.052 46.41,75.79C46.134,74.647 45.997,73.476 46,72.3C46.146,70.613 46.43,68.941 46.85,67.3C47.78,62.89 52.16,60.48 52.27,60.01C52.27,59.8 51.86,59.73 51.64,59.74C50.75,59.74 47.89,60.74 47.01,60.68C46.31,60.68 46.21,52.9 46.69,51.01C47.138,49.759 47.867,48.626 48.82,47.7C50.92,45.7 59.45,36.3 60.14,35.7C58.32,38.82 56.06,43.26 56.14,45.89C56.31,54.36 62.43,54.72 60.66,57.08C58.7,60.297 57.135,63.738 56,67.33C53.87,76.5 56.09,80.54 57.07,82.33C58.05,84.12 70.44,79.07 71.77,78.91C72,78.88 72.28,79.78 72.22,80.15L72.19,80.15ZM71.77,71C71.16,71.43 70.4,66.32 70.57,65C71.07,61.37 71.69,60.23 71.93,59.91C72.05,60 72.17,60.08 72.28,60.18L72.28,70.37C72.191,70.634 72.01,70.858 71.77,71ZM84.35,67.2C84.304,68.461 84.099,69.711 83.74,70.92C83.58,71.38 81.65,71.92 81.05,71.92C79.78,72.02 79.12,73.09 78.77,74.53C78.48,75.74 76.89,77.47 75.77,77.43C75.364,77.031 74.983,76.607 74.63,76.16C74.334,75.714 74.067,75.25 73.83,74.77L73.83,70.77C79.37,67.54 81.31,67.49 83.99,65.77C84.219,66.212 84.342,66.702 84.35,67.2ZM10.83,60.95C15.1,59.36 31.15,46.95 34.33,43.2C34.79,42.66 35.09,43.2 35.07,43.2C28.4,53.6 25.75,68.35 24.28,68.35C24.16,68.35 17.79,63.62 10.91,61.44C10.83,61.4 10.75,61 10.83,60.95Z" style="fill-rule:nonzero;"/>
    </g>
</svg>
