<?xml version="1.0" encoding="UTF-8" standalone="no"?>
<!DOCTYPE svg PUBLIC "-//W3C//DTD SVG 1.1//EN" "http://www.w3.org/Graphics/SVG/1.1/DTD/svg11.dtd">
<svg width="100%" height="100%" viewBox="0 0 42 43" version="1.1" xmlns="http://www.w3.org/2000/svg" xmlns:xlink="http://www.w3.org/1999/xlink" xml:space="preserve" xmlns:serif="http://www.serif.com/" style="fill-rule:evenodd;clip-rule:evenodd;stroke-linejoin:round;stroke-miterlimit:2;">
    <g transform="matrix(0.704252,-1.07739e-17,-1.07739e-17,-0.704252,-111.337,52.4749)">
        <path d="M187.744,14.562C196.527,18.901 205.214,23.916 213.363,29.353C213.997,39.129 213.997,49.16 213.363,58.936C205.214,64.373 196.527,69.388 187.744,73.727C178.961,69.388 170.274,64.373 162.125,58.936C161.491,49.16 161.491,39.129 162.125,29.353C170.274,23.916 178.961,18.901 187.744,14.562Z" style="fill:rgb(40,50,226);"/>
    </g>
    <g transform="matrix(0.0747115,0,0,0.0747115,1.87382,2)">
        <path d="M256.004,64C261.895,64 266.668,59.227 266.668,53.336C266.668,47.445 261.895,42.664 256.004,42.664C250.113,42.664 245.34,47.445 245.34,53.336C245.34,59.227 250.113,64 256.004,64Z" style="fill:white;fill-rule:nonzero;stroke:black;stroke-width:6.69px;"/>
        <path d="M256.004,288C261.895,288 266.668,283.219 266.668,277.344C266.668,271.446 261.895,266.664 256.004,266.664C250.113,266.664 245.34,271.445 245.34,277.344C245.34,283.219 250.113,288 256.004,288Z" style="fill:white;fill-rule:nonzero;stroke:black;stroke-width:6.69px;"/>
        <path d="M499.793,433.75L509.856,429.75L479.543,356.562L470.012,359.937C457.387,364.406 444.637,368.453 431.793,372.109L355.684,224L448.012,224C459.793,224 469.325,209.672 469.325,192C469.325,174.328 459.794,160 448.012,160L322.793,160L289.371,94.93C301.543,85.157 309.34,70.157 309.34,53.336C309.34,23.875 285.449,0 256.004,0C226.551,0 202.668,23.875 202.668,53.336C202.668,70.156 210.465,85.141 222.629,94.922L80.121,372.094C67.308,368.438 54.598,364.391 42.004,359.938L32.465,356.563L2.145,429.75L12.223,433.75C70.012,456.594 130.254,471.063 192.004,476.953L192.004,490.656L170.668,490.656C164.777,490.656 160.004,495.437 160.004,501.344C160.004,507.219 164.777,512 170.668,512L341.325,512C347.231,512 352.013,507.219 352.013,501.344C352.013,495.438 347.232,490.656 341.325,490.656L320.012,490.656L320.012,476.953C381.762,471.063 441.996,456.594 499.793,433.75ZM481.824,417.813C429.636,437.438 375.449,450.047 320.011,455.516L320.011,426.657C320.011,422.641 319.636,418.688 318.917,414.876C319.37,414.829 319.823,414.782 320.276,414.751L322.854,434.314L344.01,431.533L341.479,412.361C350.385,411.22 359.276,409.877 368.12,408.377L372.104,426.315L392.917,421.706L389.104,404.456C399.167,402.409 409.167,400.128 419.12,397.597L423.917,412.831L444.261,406.409L439.73,392.034C449.058,389.346 458.324,386.456 467.543,383.346L481.824,417.813ZM311.137,394.156C305.528,384.656 297.543,376.75 288.012,371.234L288.012,286.812C308.887,284.781 332.293,280.906 358.012,275.203L410.684,377.719C378.043,385.797 344.793,391.281 311.137,394.156ZM266.668,105.594L266.668,160L245.34,160L245.34,105.594C248.785,106.297 252.348,106.664 256.004,106.664C259.66,106.664 263.223,106.297 266.668,105.594ZM224.004,138.899L224.004,265.383C205.988,263.539 185.949,260.258 164.027,255.555L224.004,138.899ZM245.34,363.563L245.34,224L266.668,224L266.668,363.563C263.199,362.969 259.637,362.657 256.004,362.657C252.371,362.657 248.809,362.97 245.34,363.563ZM347.918,255.57C326.012,260.265 305.996,263.539 288.012,265.383L288.012,224L331.7,224L347.918,255.57ZM448.012,192C448.012,197.219 446.543,200.922 445.449,202.664L245.34,202.664L245.34,181.336L445.449,181.336C446.543,183.078 448.012,186.781 448.012,192ZM288.012,160L288.012,138.953L298.824,160L288.012,160ZM256.004,21.336C273.637,21.336 288.012,35.688 288.012,53.336C288.012,70.977 273.637,85.336 256.004,85.336C238.356,85.336 224.004,70.977 224.004,53.336C224.004,35.688 238.355,21.336 256.004,21.336ZM153.926,275.188C179.66,280.907 203.098,284.782 224.004,286.813L224.004,371.219C214.465,376.75 206.481,384.657 200.871,394.157C167.176,391.282 133.894,385.782 101.223,377.688L153.926,275.188ZM30.184,417.813L44.457,383.344C53.676,386.453 62.949,389.344 72.277,392.032L67.738,406.407L88.082,412.829L92.887,397.595C102.239,399.97 111.637,402.126 121.082,404.079L117.269,421.282L138.097,425.907L142.05,408.063C151.503,409.704 160.995,411.126 170.519,412.36L167.996,431.532L189.152,434.313L191.722,414.75C192.183,414.781 192.636,414.828 193.089,414.875C192.378,418.688 192.003,422.641 192.003,426.656L192.003,455.515C136.543,450.047 82.363,437.438 30.184,417.813ZM213.332,490.656L213.332,426.656C213.332,403.14 232.473,384 256.004,384C279.527,384 298.668,403.141 298.668,426.656L298.668,490.656L213.332,490.656Z" style="fill:white;fill-rule:nonzero;stroke:black;stroke-width:6.69px;"/>
        <path d="M256.004,394.656C238.332,394.656 224.004,409 224.004,426.656C224.004,444.344 238.332,458.656 256.004,458.656C273.668,458.656 288.012,444.343 288.012,426.656C288.012,409 273.668,394.656 256.004,394.656ZM256.004,437.344C250.121,437.344 245.332,432.547 245.332,426.656C245.332,420.781 250.121,416 256.004,416C261.887,416 266.668,420.781 266.668,426.656C266.668,432.547 261.887,437.344 256.004,437.344Z" style="fill:white;fill-rule:nonzero;stroke:black;stroke-width:6.69px;"/>
    </g>
</svg>
