<?xml version="1.0" encoding="UTF-8" standalone="no"?>
<!DOCTYPE svg PUBLIC "-//W3C//DTD SVG 1.1//EN" "http://www.w3.org/Graphics/SVG/1.1/DTD/svg11.dtd">
<svg width="100%" height="100%" viewBox="0 0 42 42" version="1.1" xmlns="http://www.w3.org/2000/svg" xmlns:xlink="http://www.w3.org/1999/xlink" xml:space="preserve" xmlns:serif="http://www.serif.com/" style="fill-rule:evenodd;clip-rule:evenodd;stroke-linejoin:round;stroke-miterlimit:2;">
    <g transform="matrix(2.44046,0,0,1.88566,67.3,-1.41712)">
        <path d="M-23.076,11.879C-23.092,11.735 -23.1,11.587 -23.1,11.438C-23.1,4.391 -18.976,0.831 -18.976,0.831C-18.976,0.831 -14.853,4.391 -14.853,11.438C-14.853,11.587 -14.86,11.735 -14.876,11.879C-14.86,12.024 -14.853,12.171 -14.853,12.32C-14.853,19.368 -18.976,22.928 -18.976,22.928C-18.976,22.928 -23.1,19.368 -23.1,12.32C-23.1,12.171 -23.092,12.024 -23.076,11.879Z" style="fill:rgb(40,50,226);"/>
    </g>
    <g transform="matrix(0.29761,0,0,0.29761,4.82008,5.35504)">
        <g>
            <path d="M58.3,47.1C57.7,47.1 57.2,47.6 57.2,48.2C57.2,48.8 57.7,49.3 58.3,49.3C58.9,49.3 59.4,48.8 59.4,48.2C59.4,47.6 58.9,47.1 58.3,47.1ZM9.3,13.3L8.9,13.3C7.8,13.3 6.9,14.1 6.7,15.1L2.5,38.2C2.3,39.4 3.1,40.6 4.3,40.8L4.7,40.8C5.8,40.8 6.7,40 6.9,39L11.1,15.9C11.3,14.7 10.5,13.5 9.3,13.3ZM35,69C32.9,69 31.1,69.8 29.7,71.2C28.3,72.6 27.5,74.4 27.5,76.5C27.5,78.6 28.3,80.4 29.7,81.8C31.1,83.2 32.9,84 35,84C37.1,84 38.9,83.2 40.3,81.8C41.7,80.4 42.5,78.6 42.5,76.5C42.5,74.4 41.7,72.6 40.3,71.2C38.9,69.9 37.1,69 35,69ZM35,61.3C30.8,61.3 27,63 24.2,65.8C21.4,68.6 19.7,72.3 19.7,76.6C19.7,80.8 21.4,84.6 24.2,87.4C27,90 30.8,91.7 35,91.7C39.2,91.7 43,90 45.8,87.2C48.6,84.4 50.3,80.7 50.3,76.4C50.3,72.2 48.6,68.4 45.8,65.6C43,63 39.2,61.3 35,61.3ZM35,85.8C29.9,85.8 25.7,81.6 25.7,76.5C25.7,71.4 29.9,67.2 35,67.2C40.1,67.2 44.3,71.4 44.3,76.5C44.3,81.7 40.1,85.8 35,85.8ZM86.4,26L85.6,25.9C85.4,25.9 85.3,25.7 85.3,25.5L85.5,24.3C85.5,24 85.4,23.8 85.1,23.8L83.4,23.6C83.4,23.8 83.6,23.9 83.6,24.1C83.6,24.6 83.3,25.1 82.8,25.2L82.6,25.2L82.8,25.2C83.3,25.1 83.6,24.6 83.5,24.1C83.5,23.9 83.4,23.7 83.4,23.6L83.4,23C83.4,22.6 83.4,22.3 83.5,22C83.6,21.5 83.9,21.2 84.2,20.9C84.4,20.7 84.7,20.4 85,20.2C85.5,19.8 86,19.4 86.5,18.8C86.7,18.5 86.9,18.1 87.1,17.7C87.2,17.3 87.3,16.8 87.4,16.3C87.4,15.8 87,15.4 86.5,15.4C86,15.4 85.6,15.8 85.6,16.3C85.6,16.6 85.5,16.9 85.4,17.1C85.3,17.5 85,17.8 84.7,18.1C84.5,18.3 84.2,18.6 83.8,18.8C83.3,19.2 82.8,19.7 82.3,20.3C82.1,20.6 81.9,21 81.8,21.5C81.7,21.9 81.6,22.4 81.6,23L81.6,23.4L80,23.2C79.8,23.2 79.5,23.3 79.5,23.6L79.4,24.8C79.4,25 79.2,25.1 79,25.1L13,16.3L8.7,39.3C8.7,39.4 8.6,39.6 8.6,39.7L47.7,50.5L49.5,50.5L49.5,48.4C49.5,46.1 50.5,44.1 52,42.5C53.4,41 55.5,40 57.8,39.9L57.5,39.9L58.1,39.9C60.4,39.9 62.5,40.8 64,42.4C65.5,43.9 66.5,46 66.5,48.3L66.5,50.5L84.1,50.5C85.1,50.5 85.9,50.9 86.5,51.5C87.1,52.1 87.5,53 87.5,54L87.5,59.7C94.5,58.6 100.7,53.5 102.1,46.5C104.1,36.5 96.9,27.7 86.4,26ZM81.5,61.3C77.3,61.3 73.5,63 70.7,65.8C67.9,68.6 66.2,72.3 66.2,76.6C66.2,80.8 67.9,84.6 70.7,87.4C73.5,90.2 77.2,91.9 81.5,91.9C85.7,91.9 89.5,90.2 92.3,87.4C95.1,84.6 96.8,80.9 96.8,76.6C96.8,72.4 95.1,68.6 92.3,65.8C89.5,63 85.7,61.3 81.5,61.3ZM81.5,85.8C76.4,85.8 72.2,81.6 72.2,76.5C72.2,71.4 76.4,67.2 81.5,67.2C86.6,67.2 90.8,71.4 90.8,76.5C90.8,81.7 86.7,85.8 81.5,85.8ZM81.4,59.6C82.9,59.6 84.5,59.7 85.5,60L85.5,54C85.5,53.5 85.4,53.2 85.1,52.9C84.8,52.6 84.5,52.5 84,52.5L66,52.5C65.6,52.5 65.2,52.3 64.9,52C64.6,51.7 64.4,51.3 64.4,50.9L64.4,48.3C64.4,46.5 63.7,44.9 62.6,43.7C61.4,42.5 59.8,41.7 58,41.7C57.9,41.7 57.9,41.6 57.8,41.6C56,41.6 54.4,42.6 53.3,43.8C52.2,45 51.4,46.8 51.4,48.6L51.4,51.1C51.4,51.5 51.3,51.9 51,52.2C50.7,52.5 50.4,52.7 50,52.7L31.8,52.7C31.3,52.7 31.1,52.8 30.8,53.1C30.5,53.4 30.5,53.8 30.5,54.2L30.5,60.3C31.5,59.8 33.5,59.7 35.2,59.7C44.2,59.7 51.4,66.6 52,75.6L64.6,75.6C65.2,66.5 72.4,59.6 81.4,59.6ZM58.3,51.2C56.7,51.2 55.3,49.9 55.3,48.2C55.3,46.6 56.6,45.2 58.3,45.2C60,45.2 61.3,46.5 61.3,48.2C61.2,49.9 59.9,51.2 58.3,51.2ZM81.5,69C79.4,69 77.6,69.8 76.2,71.2C74.8,72.6 74,74.4 74,76.5C74,78.6 74.8,80.4 76.2,81.8C77.6,83.2 79.4,84 81.5,84C83.6,84 85.4,83.2 86.8,81.8C88.2,80.4 89,78.6 89,76.5C89,74.4 88.2,72.6 86.8,71.2C85.5,69.9 83.6,69 81.5,69Z" style="fill-rule:nonzero;stroke:white;stroke-width:1px;"/>
        </g>
    </g>
</svg>
