<?xml version="1.0" encoding="UTF-8" standalone="no"?>
<!DOCTYPE svg PUBLIC "-//W3C//DTD SVG 1.1//EN" "http://www.w3.org/Graphics/SVG/1.1/DTD/svg11.dtd">
<svg width="100%" height="100%" viewBox="0 0 43 43" version="1.1" xmlns="http://www.w3.org/2000/svg" xmlns:xlink="http://www.w3.org/1999/xlink" xml:space="preserve" xmlns:serif="http://www.serif.com/" style="fill-rule:evenodd;clip-rule:evenodd;stroke-linejoin:round;stroke-miterlimit:2;">
    <g transform="matrix(1,0,0,1,-249.491,0.728)">
        <g id="jidlo-cukrovinky-6-a">
            <rect x="250" y="0" width="41.667" height="41.667" style="fill:none;"/>
            <g transform="matrix(0.704252,-1.07739e-17,-1.07739e-17,-0.704252,138.018,51.9221)">
                <path d="M187.744,14.562C196.527,18.901 205.214,23.916 213.363,29.353C213.997,39.129 213.997,49.16 213.363,58.936C205.214,64.373 196.527,69.388 187.744,73.727C178.961,69.388 170.274,64.373 162.125,58.936C161.491,49.16 161.491,39.129 162.125,29.353C170.274,23.916 178.961,18.901 187.744,14.562Z" style="fill:rgb(21,195,51);"/>
            </g>
            <g transform="matrix(0.059689,0,0,0.059689,249.281,4.05487)">
                <path d="M607.62,192.39C607.382,192.597 607.14,192.808 606.893,193.015C606.647,193.222 606.401,193.429 606.151,193.632C605.897,193.839 605.643,194.046 605.382,194.249C605.233,194.367 605.081,194.48 604.929,194.597C604.378,195.019 603.815,195.441 603.237,195.855C603.143,195.925 603.046,195.992 602.948,196.058C585.546,208.398 555.686,216.937 530.175,222.386C529.62,222.503 529.054,222.62 528.495,222.738C528.074,222.827 527.652,222.913 527.23,222.999C526.152,223.222 525.066,223.445 523.972,223.663C523.331,223.792 522.691,223.921 522.05,224.046C521.202,224.214 520.347,224.378 519.492,224.542C518.589,224.718 517.683,224.886 516.769,225.058C516.206,225.163 515.644,225.265 515.081,225.37C513.867,225.593 512.644,225.816 511.413,226.034C511.206,226.07 511.003,226.105 510.796,226.144C499.214,228.187 487.003,229.995 474.269,231.55L474.269,347.24C474.269,349.658 472.312,351.615 469.894,351.615C467.476,351.615 465.519,349.658 465.519,347.24L465.523,232.58C437.57,235.693 407.328,237.642 375.925,238.314C375.878,238.314 375.831,238.318 375.784,238.318C373.82,238.361 371.847,238.396 369.874,238.432C369.448,238.439 369.015,238.443 368.589,238.451C366.972,238.475 365.351,238.498 363.726,238.517C362.792,238.529 361.851,238.533 360.913,238.541C359.761,238.553 358.612,238.564 357.46,238.568C355.339,238.58 353.218,238.588 351.093,238.588C348.968,238.588 346.847,238.58 344.726,238.568C343.573,238.564 342.425,238.549 341.273,238.541C340.335,238.533 339.394,238.529 338.456,238.517C336.831,238.502 335.214,238.475 333.597,238.451C333.167,238.443 332.734,238.439 332.308,238.432C330.335,238.4 328.366,238.361 326.402,238.318C326.355,238.318 326.304,238.314 326.257,238.314C276.999,237.26 230.593,233.064 191.417,226.158C191.19,226.119 190.964,226.08 190.741,226.041C189.53,225.826 188.327,225.608 187.132,225.389C186.546,225.283 185.96,225.174 185.378,225.065C184.487,224.897 183.605,224.729 182.722,224.561C181.843,224.393 180.964,224.221 180.093,224.049C179.472,223.928 178.855,223.803 178.237,223.682C177.12,223.459 176.011,223.233 174.909,223.002C174.511,222.92 174.112,222.834 173.714,222.752C173.144,222.631 172.569,222.518 172.003,222.397C145.937,216.83 115.331,208.038 98.112,195.264C98.034,195.205 97.952,195.146 97.874,195.088C97.553,194.85 97.241,194.607 96.932,194.365C96.753,194.225 96.577,194.084 96.401,193.943C96.003,193.623 95.608,193.299 95.225,192.975C94.975,192.76 94.725,192.545 94.479,192.33C94.366,192.232 94.249,192.135 94.139,192.037L94.139,338.737C116.455,357.702 153.694,373.339 202.039,384.022C202.989,384.229 203.957,384.424 204.914,384.631L204.914,279.001C204.914,276.583 206.871,274.626 209.289,274.626C211.707,274.626 213.664,276.583 213.664,279.001L213.664,386.441C256.957,395.02 306.461,399.546 357.734,399.546C413.695,399.546 468.714,393.914 512.674,383.683C558.932,372.913 592.147,357.511 608.904,339.078L608.904,338.645L608.9,191.245C608.826,191.315 608.74,191.385 608.666,191.46C608.33,191.772 607.986,192.085 607.631,192.393L607.62,192.39Z" style="fill-rule:nonzero;"/>
                <path d="M604.991,194.454C605.154,194.665 605.342,194.854 605.55,195.018L605.55,195.023C605.34,194.859 605.15,194.67 604.986,194.458L602.948,196.058C585.546,208.398 555.686,216.937 530.175,222.386L515.081,225.37L510.796,226.144C499.214,228.187 487.003,229.995 474.269,231.55L474.269,347.24C474.269,349.658 472.312,351.615 469.894,351.615C467.476,351.615 465.519,349.658 465.519,347.24L465.523,232.58C437.57,235.693 407.328,237.642 375.925,238.314L357.46,238.568L338.456,238.517L326.257,238.314C276.999,237.26 230.593,233.064 191.417,226.158L178.237,223.682L172.003,222.397C145.937,216.83 115.331,208.038 98.112,195.264L94.139,192.037L94.139,338.737C116.455,357.702 153.694,373.339 202.039,384.022C202.989,384.229 203.957,384.424 204.914,384.631L204.914,279.001C204.914,276.583 206.871,274.626 209.289,274.626C211.707,274.626 213.664,276.583 213.664,279.001L213.664,386.441C256.957,395.02 306.461,399.546 357.734,399.546C413.695,399.546 468.714,393.914 512.674,383.683C558.932,372.913 592.147,357.511 608.904,339.078L608.9,191.245L607.62,192.39L604.991,194.454ZM605.55,198.269L605.554,337.763C588.841,355.431 556.518,370.035 511.915,380.42C468.17,390.6 413.42,396.196 357.734,396.196C307.756,396.196 259.466,391.879 217.016,383.683C217.015,383.682 217.015,279.001 217.015,279.001C217.015,274.732 213.559,271.276 209.289,271.276C205.019,271.276 201.564,274.732 201.564,279.001L201.564,380.483C155.312,370.146 119.439,355.275 97.497,337.178C97.491,337.173 97.49,227.799 97.49,198.945C115.235,211.42 145.446,220.152 171.303,225.673L186.538,228.687L190.844,229.46C230.167,236.391 276.745,240.606 326.185,241.664L344.714,241.919L363.767,241.868L375.858,241.668C375.831,241.669 375.878,241.665 375.925,241.665C375.949,241.665 375.973,241.665 375.997,241.664C406.116,241.02 435.17,239.204 462.172,236.316L462.168,347.24C462.168,351.51 465.624,354.966 469.894,354.966C474.164,354.966 477.62,351.51 477.62,347.24L477.62,234.51C489.355,233.033 500.636,231.338 511.378,229.444L524.633,226.948L530.875,225.663C556.821,220.121 587.158,211.353 604.866,198.805L605.55,198.269Z" style="fill:white;"/>
            </g>
            <g transform="matrix(0.059689,0,0,0.059689,249.281,4.05487)">
                <path d="M357.72,408.29C310.568,408.29 257.19,404.192 208.74,394.372C208.51,394.345 208.291,394.302 208.076,394.239C162.619,384.97 121.564,370.649 94.136,349.927L94.136,383.646C120.39,405.978 166.343,423.33 227.246,433.888C284.262,443.771 350.456,446.865 413.626,442.603C508.552,436.197 581.286,414.326 608.896,383.986L608.896,351.287C589.65,368.209 557.4,382.248 514.65,392.197C469.416,402.724 415.15,408.291 357.72,408.291L357.72,408.29Z" style="fill-rule:nonzero;"/>
                <path d="M354.902,408.285C355.841,408.288 356.782,408.29 357.72,408.29L357.72,408.291C415.15,408.291 469.416,402.724 514.65,392.197C557.4,382.248 589.65,368.209 608.896,351.287L608.896,383.986C581.286,414.326 508.552,436.197 413.626,442.603C350.456,446.865 284.262,443.771 227.246,433.888C166.343,423.33 120.39,405.978 94.136,383.646L94.136,349.927C121.564,370.649 162.619,384.97 208.076,394.239C208.291,394.302 208.51,394.345 208.74,394.372C256.047,403.961 308.051,408.093 354.369,408.282C354.351,409.713 355.137,410.546 355.952,411.024C356.803,411.524 357.686,411.637 357.719,411.641C357.673,411.58 355.832,409.145 354.902,408.285ZM357.719,411.641L360.423,411.638C417.127,411.466 470.665,405.873 515.409,395.46C554.945,386.26 585.605,373.534 605.535,358.357C605.545,358.348 605.545,382.669 605.545,382.669C594.697,394.115 577.182,404.225 554.399,412.743C518.617,426.119 469.974,435.442 413.401,439.26C350.501,443.504 284.59,440.427 227.819,430.587C168.574,420.316 123.607,403.66 97.491,382.086C97.487,382.082 97.487,356.463 97.487,356.463C125.073,375.362 164.212,388.704 207.289,397.498C207.619,397.586 207.955,397.651 208.306,397.695L208.177,397.677C256.816,407.526 310.39,411.641 357.719,411.641Z" style="fill:white;"/>
            </g>
            <g transform="matrix(0.059689,0,0,0.059689,249.281,4.05487)">
                <path d="M415.9,151C386.4,151 368.701,157.266 367.181,160.731C368.693,164.199 386.388,170.473 415.9,170.473C445.396,170.473 463.084,164.199 464.595,160.731C463.079,157.266 445.388,151 415.9,151Z" style="fill-rule:nonzero;"/>
                <path d="M415.9,151C386.4,151 368.701,157.266 367.181,160.731C368.693,164.199 386.388,170.473 415.9,170.473C445.396,170.473 463.084,164.199 464.595,160.731C463.079,157.266 445.388,151 415.9,151ZM458.896,160.733C458.52,160.919 458.129,161.098 457.74,161.254C450.383,164.2 435.946,167.122 415.9,167.122C395.843,167.122 381.398,164.2 374.038,161.254C373.649,161.098 373.259,160.92 372.883,160.734C373.26,160.547 373.652,160.368 374.043,160.212C381.406,157.27 395.85,154.351 415.9,154.351C435.941,154.351 450.379,157.27 457.738,160.212C458.128,160.368 458.519,160.546 458.896,160.733Z" style="fill:white;"/>
            </g>
            <g transform="matrix(0.059689,0,0,0.059689,249.281,4.05487)">
                <path d="M535.5,135.31C486.305,123.97 420.82,117.724 351.09,117.724C281.36,117.724 215.88,123.97 166.68,135.31C120.719,145.904 93.282,160.29 93.282,173.794C93.282,174.935 93.493,176.079 93.88,177.228C93.887,177.247 93.895,177.263 93.903,177.282C100.239,195.368 153.692,214.477 237.623,223.884C238.107,223.939 238.592,223.994 239.076,224.048C239.74,224.123 240.42,224.193 241.088,224.263C271.24,227.494 304.022,229.373 338.01,229.755C338.401,229.759 338.795,229.763 339.186,229.767C340.94,229.787 342.697,229.802 344.459,229.81C346.658,229.822 348.865,229.83 351.084,229.83C353.303,229.83 355.51,229.822 357.709,229.81C359.463,229.798 361.213,229.783 362.963,229.767C363.361,229.763 363.76,229.763 364.158,229.755C398.064,229.373 430.763,227.501 460.853,224.287C461.623,224.205 462.4,224.123 463.166,224.037C463.537,223.998 463.904,223.955 464.275,223.912C548.357,214.517 601.915,195.385 608.255,177.279C608.263,177.259 608.271,177.243 608.279,177.224C608.665,176.076 608.876,174.931 608.876,173.79C608.888,160.29 581.45,145.903 535.493,135.31L535.5,135.31ZM415.9,179.228C394.545,179.228 358.4,175.334 358.4,160.736C358.4,146.15 394.545,142.256 415.9,142.256C437.248,142.256 473.377,146.151 473.377,160.736C473.381,175.334 437.252,179.228 415.9,179.228Z" style="fill-rule:nonzero;"/>
                <path d="M535.833,135.389C581.587,145.975 608.888,160.324 608.876,173.79C608.876,174.931 608.665,176.076 608.279,177.224C608.271,177.243 608.263,177.259 608.255,177.279C601.915,195.385 548.357,214.517 464.275,223.912L460.853,224.287C430.763,227.501 398.064,229.373 364.158,229.755L351.084,229.83L338.01,229.755C304.022,229.373 271.24,227.494 241.088,224.263L237.623,223.884C153.692,214.477 100.239,195.368 93.903,177.282C93.895,177.263 93.887,177.247 93.88,177.228C93.493,176.079 93.282,174.935 93.282,173.794C93.282,160.29 120.719,145.904 166.68,135.31C215.88,123.97 281.36,117.724 351.09,117.724C419.955,117.724 484.68,123.816 533.659,134.891C534.135,136.625 535.398,138.51 535.494,138.652L535.763,136.292C535.789,135.999 535.813,135.695 535.833,135.389ZM535.493,138.661L535.493,138.661C535.24,138.661 534.988,138.632 534.741,138.575C561.813,144.815 582.361,152.336 594.448,160.266C598.189,162.72 601.08,165.185 603.014,167.676C604.611,169.733 605.527,171.755 605.526,173.787C605.526,173.788 605.526,173.789 605.526,173.79C605.526,174.561 605.376,175.333 605.118,176.108L605.093,176.171C604.238,178.611 602.297,181.021 599.464,183.469C594.625,187.648 587.306,191.755 577.766,195.715C553.1,205.955 513.948,214.99 463.903,220.582L460.497,220.955C430.506,224.159 397.915,226.023 364.12,226.405L351.084,226.479L338.047,226.405C304.171,226.023 271.497,224.151 241.445,220.932L237.996,220.554C188.042,214.956 148.964,205.926 124.343,195.696C114.822,191.74 107.516,187.638 102.686,183.463C99.858,181.019 97.919,178.612 97.065,176.174L97.04,176.112C96.783,175.336 96.633,174.565 96.633,173.794C96.633,171.76 97.55,169.737 99.149,167.679C101.085,165.187 103.978,162.721 107.719,160.267C119.809,152.337 140.358,144.816 167.432,138.575C216.432,127.281 281.645,121.075 351.09,121.075C420.535,121.075 485.753,127.281 534.747,138.575C534.992,138.631 535.242,138.66 535.493,138.661ZM415.9,182.579C431.319,182.579 454.188,180.494 466.531,174.148C472.989,170.828 476.729,166.25 476.728,160.736C476.727,155.225 472.986,150.65 466.528,147.332C454.183,140.99 431.315,138.905 415.9,138.905C400.48,138.905 377.603,140.989 365.253,147.331C358.792,150.649 355.049,155.225 355.049,160.736C355.049,166.25 358.792,170.828 365.252,174.148C377.602,180.494 400.48,182.579 415.9,182.579ZM415.9,179.228C394.545,179.228 358.4,175.334 358.4,160.736C358.4,146.15 394.545,142.256 415.9,142.256C437.248,142.256 473.377,146.151 473.377,160.736C473.381,175.334 437.252,179.228 415.9,179.228Z" style="fill:white;"/>
            </g>
        </g>
    </g>
</svg>
