<?xml version="1.0" encoding="UTF-8" standalone="no"?>
<!DOCTYPE svg PUBLIC "-//W3C//DTD SVG 1.1//EN" "http://www.w3.org/Graphics/SVG/1.1/DTD/svg11.dtd">
<svg width="100%" height="100%" viewBox="0 0 43 42" version="1.1" xmlns="http://www.w3.org/2000/svg" xmlns:xlink="http://www.w3.org/1999/xlink" xml:space="preserve" xmlns:serif="http://www.serif.com/" style="fill-rule:evenodd;clip-rule:evenodd;stroke-linecap:round;stroke-linejoin:round;stroke-miterlimit:1.5;">
    <g transform="matrix(1,0,0,1,-379,0)">
        <g id="jidlo-maso-3-b" transform="matrix(1,0,0,1,129.96,0)">
            <rect x="250" y="0" width="41.667" height="41.667" style="fill:none;"/>
            <g transform="matrix(-0.362672,0.628167,0.628167,0.362672,311.516,-114.179)">
                <path d="M187.744,14.562C201.739,23.684 212.461,42.254 213.363,58.936C198.466,66.495 177.022,66.495 162.125,58.936C163.027,42.254 173.748,23.684 187.744,14.562Z" style="fill:rgb(21,195,51);"/>
            </g>
            <g transform="matrix(0.923235,0,0,0.923235,20.7904,1.12142)">
                <g transform="matrix(1.42127,0,0,1.42127,158.288,-6.03495)">
                    <path d="M69.484,14.009C69.758,9.841 75.457,6.402 78.637,6.436C81.818,6.47 87.444,10.16 88.566,14.21C89.7,18.3 87.899,26.63 86.547,29.558C85.842,31.085 81.763,32.836 80.455,31.779C78.705,30.365 76.041,24.937 74.229,22.591C72.766,20.696 69.045,20.669 69.484,14.009Z" style="stroke:white;stroke-width:0.32px;"/>
                </g>
                <g transform="matrix(1.42127,0,0,1.42127,158.288,-6.03495)">
                    <path d="M75.06,20.833C73.108,20.598 71.241,18.27 70.897,16.23C70.484,13.78 71.553,8.568 78.637,7.345C81.388,6.87 86.188,10.744 87.355,13.133C88.074,14.606 88.247,17.296 87.456,18.047C86.665,18.799 84.191,17.288 82.609,17.643C80.543,18.108 77.012,21.069 75.06,20.833Z" style="stroke:white;stroke-width:0.32px;"/>
                </g>
                <g transform="matrix(1.42127,0,0,1.42127,158.288,-6.03495)">
                    <path d="M77.317,24.105C77.76,22.55 81.338,21.225 83.114,20.833C84.706,20.482 86.623,20.048 86.976,21.351C87.33,22.654 86.488,27.18 85.235,28.649C84.15,29.92 82.251,31.301 80.932,30.476C79.612,29.651 76.874,25.66 77.317,24.105Z" style="stroke:white;stroke-width:0.32px;"/>
                </g>
                <g transform="matrix(0.952051,-0.765533,0.765533,0.952051,182.564,59.4348)">
                    <ellipse cx="78.621" cy="14.057" rx="2.777" ry="2.373" style="fill:white;stroke:black;stroke-width:0.37px;"/>
                </g>
            </g>
        </g>
    </g>
</svg>
