<?xml version="1.0" encoding="UTF-8" standalone="no"?>
<!DOCTYPE svg PUBLIC "-//W3C//DTD SVG 1.1//EN" "http://www.w3.org/Graphics/SVG/1.1/DTD/svg11.dtd">
<svg width="100%" height="100%" viewBox="0 0 42 43" version="1.1" xmlns="http://www.w3.org/2000/svg" xmlns:xlink="http://www.w3.org/1999/xlink" xml:space="preserve" xmlns:serif="http://www.serif.com/" style="fill-rule:evenodd;clip-rule:evenodd;stroke-linejoin:round;stroke-miterlimit:2;">
    <g transform="matrix(1,0,0,1,-249.951,0.389)">
        <g id="luxus-sperky-6-a">
            <rect x="250" y="0" width="41.667" height="41.667" style="fill:none;"/>
            <g>
                <g transform="matrix(0.704252,-1.07739e-17,-1.07739e-17,-0.704252,138.614,52.0859)">
                    <path d="M187.744,14.562C196.527,18.901 205.214,23.916 213.363,29.353C213.997,39.129 213.997,49.16 213.363,58.936C205.214,64.373 196.527,69.388 187.744,73.727C178.961,69.388 170.274,64.373 162.125,58.936C161.491,49.16 161.491,39.129 162.125,29.353C170.274,23.916 178.961,18.901 187.744,14.562Z" style="fill:rgb(253,191,51);"/>
                </g>
                <g transform="matrix(0.0241049,0,0,0.0241049,256.791,7.2102)">
                    <path d="M430.63,12.246C543.58,47.629 625.24,154.456 625.24,280.336C625.24,434.796 502.08,559.996 349.66,559.996C337.414,559.996 325.164,559.316 313.598,557.953C313.598,557.953 313.598,557.273 321.762,517.808L322.442,515.085L322.442,514.406L332.649,468.816C351.7,379.679 389.805,201.406 408.86,112.946L414.305,88.45L430.637,14.282L430.637,12.243L430.63,12.246Z" style="stroke:white;stroke-width:16.59px;"/>
                </g>
                <g transform="matrix(0.0241049,0,0,0.0241049,256.791,7.2102)">
                    <path d="M349.66,0C363.269,0 376.879,1.359 390.488,2.723L389.129,6.805L389.129,7.484L388.449,10.207L388.449,12.926L387.769,13.606L387.769,15.645L387.09,17.004L387.09,18.363L386.41,19.723L386.41,22.442L385.73,23.801L385.73,25.844L385.05,27.203L384.371,29.246L384.371,30.606L383.691,32.649L383.691,34.692L383.011,37.415L381.652,41.5L381.652,44.223L378.254,57.836L377.574,61.238L376.894,63.961L375.535,70.766L374.855,74.848L374.175,78.25L373.496,80.293L370.773,93.902C351.039,185.082 312.253,366.082 293.203,456.572L286.398,486.51L285.719,489.912L285.039,492.635C273.473,547.752 273.473,547.752 273.473,548.432L273.473,549.112C158.483,515.089 74.783,407.582 74.783,280.342C74.783,125.202 197.943,0.002 349.683,0.002L349.66,0Z" style="stroke:white;stroke-width:16.59px;"/>
                </g>
                <g transform="matrix(-0.00439303,0.0237012,-0.0237012,-0.00439303,286.782,13.4032)">
                    <path d="M430.63,12.246C543.58,47.629 625.24,154.456 625.24,280.336C625.24,434.796 502.08,559.996 349.66,559.996C337.414,559.996 325.164,559.316 313.598,557.953C313.598,557.953 313.598,557.273 321.762,517.808L322.442,515.085L322.442,514.406L332.649,468.816C351.7,379.679 389.805,201.406 408.86,112.946L414.305,88.45L430.637,14.282L430.637,12.243L430.63,12.246Z" style="stroke:white;stroke-width:16.59px;"/>
                </g>
                <g transform="matrix(-0.00439303,0.0237012,-0.0237012,-0.00439303,286.782,13.4032)">
                    <path d="M349.66,0C363.269,0 376.879,1.359 390.488,2.723L389.129,6.805L389.129,7.484L388.449,10.207L388.449,12.926L387.769,13.606L387.769,15.645L387.09,17.004L387.09,18.363L386.41,19.723L386.41,22.442L385.73,23.801L385.73,25.844L385.05,27.203L384.371,29.246L384.371,30.606L383.691,32.649L383.691,34.692L383.011,37.415L381.652,41.5L381.652,44.223L378.254,57.836L377.574,61.238L376.894,63.961L375.535,70.766L374.855,74.848L374.175,78.25L373.496,80.293L370.773,93.902C351.039,185.082 312.253,366.082 293.203,456.572L286.398,486.51L285.719,489.912L285.039,492.635C273.473,547.752 273.473,547.752 273.473,548.432L273.473,549.112C158.483,515.089 74.783,407.582 74.783,280.342C74.783,125.202 197.943,0.002 349.683,0.002L349.66,0Z" style="stroke:white;stroke-width:16.59px;"/>
                </g>
                <g transform="matrix(-0.0142301,0.0194563,-0.0194563,-0.0142301,276.631,25.5148)">
                    <path d="M430.63,12.246C543.58,47.629 625.24,154.456 625.24,280.336C625.24,434.796 502.08,559.996 349.66,559.996C337.414,559.996 325.164,559.316 313.598,557.953C313.598,557.953 313.598,557.273 321.762,517.808L322.442,515.085L322.442,514.406L332.649,468.816C351.7,379.679 389.805,201.406 408.86,112.946L414.305,88.45L430.637,14.282L430.637,12.243L430.63,12.246Z" style="stroke:white;stroke-width:16.59px;"/>
                </g>
                <g transform="matrix(-0.0142301,0.0194563,-0.0194563,-0.0142301,276.631,25.5148)">
                    <path d="M349.66,0C363.269,0 376.879,1.359 390.488,2.723L389.129,6.805L389.129,7.484L388.449,10.207L388.449,12.926L387.769,13.606L387.769,15.645L387.09,17.004L387.09,18.363L386.41,19.723L386.41,22.442L385.73,23.801L385.73,25.844L385.05,27.203L384.371,29.246L384.371,30.606L383.691,32.649L383.691,34.692L383.011,37.415L381.652,41.5L381.652,44.223L378.254,57.836L377.574,61.238L376.894,63.961L375.535,70.766L374.855,74.848L374.175,78.25L373.496,80.293L370.773,93.902C351.039,185.082 312.253,366.082 293.203,456.572L286.398,486.51L285.719,489.912L285.039,492.635C273.473,547.752 273.473,547.752 273.473,548.432L273.473,549.112C158.483,515.089 74.783,407.582 74.783,280.342C74.783,125.202 197.943,0.002 349.683,0.002L349.66,0Z" style="stroke:white;stroke-width:16.59px;"/>
                </g>
            </g>
        </g>
    </g>
</svg>
