<?xml version="1.0" encoding="UTF-8" standalone="no"?>
<!DOCTYPE svg PUBLIC "-//W3C//DTD SVG 1.1//EN" "http://www.w3.org/Graphics/SVG/1.1/DTD/svg11.dtd">
<svg width="100%" height="100%" viewBox="0 0 43 43" version="1.1" xmlns="http://www.w3.org/2000/svg" xmlns:xlink="http://www.w3.org/1999/xlink" xml:space="preserve" xmlns:serif="http://www.serif.com/" style="fill-rule:evenodd;clip-rule:evenodd;stroke-linejoin:round;stroke-miterlimit:2;">
    <g transform="matrix(1,0,0,1,-249.179,0.847)">
        <g id="luxus-latka-3-a">
            <rect x="250" y="0" width="41.667" height="41.667" style="fill:none;"/>
            <g transform="matrix(-0.362672,0.628167,0.628167,0.362672,311.193,-113.891)">
                <path d="M187.744,14.562C201.739,23.684 212.461,42.254 213.363,58.936C198.466,66.495 177.022,66.495 162.125,58.936C163.027,42.254 173.748,23.684 187.744,14.562Z" style="fill:none;stroke:black;stroke-width:0.55px;"/>
            </g>
            <g transform="matrix(0.0324378,0.0324378,-0.0324342,0.0324342,268.563,1.68314)">
                <path d="M367.73,235.2L306.128,296.802L508.668,500.262C517.066,508.66 528.27,513.328 539.469,513.328C550.668,513.328 561.867,508.66 570.27,500.262C587.071,483.461 587.071,455.461 570.27,438.66L367.73,235.2Z" style="fill:white;fill-rule:nonzero;stroke:black;stroke-width:8.72px;"/>
                <path d="M179.2,65.332C167.067,65.332 156.802,70 148.399,78.398C140.001,85.867 135.333,97.066 135.333,109.199C135.333,121.332 140.001,131.597 148.399,140L151.2,142.801L212.802,81.199L210.001,77.464C201.603,70 190.399,65.331 179.2,65.331L179.2,65.332Z" style="fill:white;fill-rule:nonzero;stroke:black;stroke-width:8.72px;"/>
                <path d="M130.67,257.6L190.404,317.334C199.736,326.666 211.869,331.334 224.939,331.334C238.005,331.334 250.138,326.666 259.474,317.334L387.334,189.464C406.002,170.796 406.002,139.999 387.334,120.398L327.6,60.664C308.932,41.996 278.135,41.996 259.467,60.664L130.667,188.534C111.999,208.132 111.999,238.932 130.667,257.6L130.67,257.6Z" style="fill:white;fill-rule:nonzero;stroke:black;stroke-width:8.72px;"/>
            </g>
        </g>
    </g>
</svg>
