<?xml version="1.0" encoding="UTF-8" standalone="no"?>
<!DOCTYPE svg PUBLIC "-//W3C//DTD SVG 1.1//EN" "http://www.w3.org/Graphics/SVG/1.1/DTD/svg11.dtd">
<svg width="100%" height="100%" viewBox="0 0 42 43" version="1.1" xmlns="http://www.w3.org/2000/svg" xmlns:xlink="http://www.w3.org/1999/xlink" xml:space="preserve" xmlns:serif="http://www.serif.com/" style="fill-rule:evenodd;clip-rule:evenodd;stroke-linejoin:round;stroke-miterlimit:2;">
    <g transform="matrix(1,0,0,1,-249.951,0.389)">
        <g id="luxus-sperky-6-a">
            <rect x="250" y="0" width="41.667" height="41.667" style="fill:none;"/>
            <g transform="matrix(0.704252,-1.07739e-17,-1.07739e-17,-0.704252,138.614,52.0859)">
                <g>
                    <path d="M187.744,14.562C196.527,18.901 205.214,23.916 213.363,29.353C213.997,39.129 213.997,49.16 213.363,58.936C205.214,64.373 196.527,69.388 187.744,73.727C178.961,69.388 170.274,64.373 162.125,58.936C161.491,49.16 161.491,39.129 162.125,29.353C170.274,23.916 178.961,18.901 187.744,14.562Z" style="fill:rgb(51,96,253);"/>
                    <g transform="matrix(0.098325,-1.50421e-18,-1.50421e-18,-0.098325,153.499,71.5139)">
                        <path d="M249.48,283.91C282.929,257.16 309.21,160.15 275.761,145.33C268.593,141.518 276.714,136.728 285.32,141.986C318.289,156.322 292.488,261.926 259.039,288.686C255.214,291.553 245.18,288.69 249.48,283.905L249.48,283.91ZM190.226,214.625C185.445,214.625 180.191,209.848 180.191,203.637C180.191,198.86 184.492,205.075 189.269,205.075C194.523,205.075 200.257,198.86 200.257,203.637C200.261,209.848 195.003,214.625 190.226,214.625L190.226,214.625ZM257.128,449.735L306.347,449.735C312.078,449.735 314.949,445.911 315.902,440.18L326.894,367.543L315.425,368.5C355.566,376.625 402.394,371.368 450.175,365.633L457.343,372.321L446.175,439.942C445.218,445.196 449.999,449.024 455.253,449.024L503.038,449.024C508.296,449.024 511.163,444.242 512.596,438.512L528.057,347.942C526.147,314.501 534.749,280.087 545.26,243.292C552.432,217.968 525.67,175.917 537.616,175.917C550.995,175.917 564.374,184.038 584.444,218.921C593.049,230.859 609.296,219.397 598.303,204.105L583.014,179.738C568.198,157.277 559.119,149.633 528.061,149.633C509.428,147.242 495.569,147.722 471.674,142.465C418.631,130.043 362.244,127.649 303.944,142.465C295.346,134.816 291.999,129.082 279.573,120.485C247.557,98.985 221.276,118.094 184.96,118.094C147.687,118.094 151.511,175.918 146.253,241.394C144.339,259.066 165.366,364.194 150.077,364.194C137.175,364.194 126.663,357.507 126.663,336.96C127.14,332.179 119.019,342.214 115.194,336.483C109.464,328.358 100.382,323.581 98.471,335.046C94.647,370.409 113.76,393.823 150.076,393.823C180.181,393.823 189.74,371.362 189.74,340.78C192.607,283.913 184.006,277.702 186.873,269.104C186.392,260.498 270.021,238.042 240.873,288.694C234.182,299.206 249.471,305.893 255.209,295.862L259.033,361.319L248.045,440.167C247.084,445.913 251.862,449.737 257.119,449.737L257.128,449.735Z" style="fill-rule:nonzero;stroke:white;stroke-width:2.89px;"/>
                    </g>
                </g>
            </g>
        </g>
    </g>
</svg>
