<?xml version="1.0" encoding="UTF-8" standalone="no"?>
<!DOCTYPE svg PUBLIC "-//W3C//DTD SVG 1.1//EN" "http://www.w3.org/Graphics/SVG/1.1/DTD/svg11.dtd">
<svg width="100%" height="100%" viewBox="0 0 43 42" version="1.1" xmlns="http://www.w3.org/2000/svg" xmlns:xlink="http://www.w3.org/1999/xlink" xml:space="preserve" xmlns:serif="http://www.serif.com/" style="fill-rule:evenodd;clip-rule:evenodd;stroke-linejoin:round;stroke-miterlimit:2;">
    <g transform="matrix(1,0,0,1,-430,-162)">
        <g id="jidlo-obili-2-a" transform="matrix(1,0,0,1,180.852,162.138)">
            <rect x="250" y="0" width="41.667" height="41.667" style="fill:none;"/>
            <g transform="matrix(2.38877,0,0,1.84571,316.16,-0.651254)">
                <path d="M-23.076,11.879C-23.092,11.735 -23.1,11.587 -23.1,11.438C-23.1,4.391 -18.976,0.831 -18.976,0.831C-18.976,0.831 -14.853,4.391 -14.853,11.438C-14.853,11.587 -14.86,11.735 -14.876,11.879C-14.86,12.024 -14.853,12.171 -14.853,12.32C-14.853,19.368 -18.976,22.928 -18.976,22.928C-18.976,22.928 -23.1,19.368 -23.1,12.32C-23.1,12.171 -23.092,12.024 -23.076,11.879Z" style="fill:rgb(51,96,253);"/>
            </g>
        </g>
        <g transform="matrix(1,0,0,1,430,162)">
            <path d="M14.903,17.704L22.309,17.114L28.567,17.835L29.321,18.916L29.638,22.573L28.633,26.617L26.798,28.779L20.537,29.185L15.427,27.927L14.608,26.715L13.789,18.851L14.903,17.704Z" style="fill:white;"/>
        </g>
        <g transform="matrix(0.0347227,0,0,0.0347227,439.531,173.668)">
            <path d="M593.25,206.5L593.25,173.25C593.25,150.5 593.25,127.75 588,105C579.25,54.25 551.25,49 535.5,50.75C498.75,52.5 495.25,85.75 493.5,105L491.75,119C490,133 488.25,141.75 486.5,154C407.75,143.5 297.5,141.75 215.25,150.5C215.25,110.25 210,70 190.75,52.5C182,45.5 173.25,42 162.75,43.75C152.25,42 140,56 134.75,64.75C108.5,108.5 105,157.5 105,194.25C105,197.75 106.75,199.5 108.5,203C106.75,210 106.75,217 106.75,225.75C110.25,248.5 112,273 115.5,295.75L124.25,364C126,371 126,379.75 127.75,388.5C129.5,404.25 131.25,420 136.5,435.75C145.25,472.5 176.75,486.5 203,497C246.75,512.75 294,516.25 339.5,518L439.25,518C512.75,518 554.75,488.25 577.5,418.25C582.75,383.25 600.25,259 593.25,206.5ZM518,122.5L519.75,106.75C521.5,84 525,77 537.25,75.25C542.5,75.25 554.75,73.5 560,108.5C563.5,129.5 563.5,148.75 565.25,169.75C551.25,164.5 533.75,161 512.75,157.5C514.5,145.25 516.25,134.75 518,122.5ZM558.25,194.25C434,197.75 262.5,187.25 183.75,180.25C292.25,159.25 500.5,176.75 558.25,194.25ZM157.5,77C159.25,73.5 162.75,70 166.25,68.25C169.75,68.25 171.5,68.25 173.25,71.75C187.25,84 189,129.5 190.75,154C166.25,157.5 147,161 131.25,168C134.75,131.25 143.5,101.5 157.5,77ZM147,332.5L141.75,292.25C162.75,299.25 182,302.75 203,304.5C204.75,316.75 208.25,330.75 210,343C187.25,339.5 169.75,336 155.75,334.25L147,332.5ZM155.75,393.75C155.75,390.25 154,386.75 154,383.25C152.25,374.5 152.25,367.5 150.5,360.5C168,364 189,367.5 218.75,371L229.25,402.5C208.25,400.75 189,397.25 173.25,395.5L162.75,393.75C159.25,392 157.5,392 155.75,393.75ZM549.5,411.25C530.25,467.25 498.75,490 437.5,490L341.25,490C292.25,488.25 250.25,483 213.5,470.75C187.25,458.5 168,449.75 162.75,427C162.75,423.5 161,421.75 161,418.25L168,420C189,423.5 211.75,427 239.75,428.75C243.25,434 245,441 248.5,446.25C250.25,451.5 255.5,453.25 260.75,453.25C262.5,453.25 264.25,453.25 266,451.5C273,448 274.75,441 271.25,434C271.25,432.25 269.5,432.25 269.5,430.5C290.5,432.25 315,434 341.25,435.75C344.75,442.75 346.5,449.75 350,456.75C351.75,462 357,465.5 362.25,465.5C364,465.5 365.75,465.5 367.5,463.75C374.5,460.25 378,453.25 374.5,446.25C372.75,442.75 372.75,439.25 371,435.75L420,435.75C427,435.75 434,430.5 434,421.75C434,413 428.75,407.75 420,407.75C399,407.75 379.75,407.75 360.5,406C358.75,399 355.25,393.75 353.5,386.75C350,388.5 350,385 348.25,379.75L381.5,379.75C388.5,379.75 395.5,374.5 395.5,365.75C395.5,357 390.25,351.75 381.5,351.75L337.75,351.75C336,346.5 332.5,339.5 330.75,334.25C327.25,327.25 320.25,323.75 313.25,327.25C306.25,330.75 302.75,337.75 306.25,344.75C308,346.5 308,350 308,351.75C281.75,350 257.25,348.25 238,346.5C234.5,332.5 231,320.25 229.25,306.25C250.25,308 271.25,308 292.25,308C299.25,308 306.25,302.75 306.25,295.75C306.25,288.75 301,281.75 292.25,281.75C269.5,281.75 246.75,281.75 225.75,280C224,269.5 224,257.25 224,246.75C224,239.75 217,234.5 210,234.5C203,234.5 197.75,241.5 197.75,248.5C197.75,259 199.5,269.5 199.5,278.25C178.5,274.75 159.25,271.25 138.25,262.5L133,220.5C131.25,206.5 134.75,204.75 134.75,203C134.75,203 136.5,201.25 143.5,201.25L147,201.25C197.75,206.5 416.5,224 568.75,218.75C570.5,273 556.5,376.25 549.5,411.25ZM246.75,374.5C267.75,376.25 292.25,378 320.25,379.75C323.75,386.75 325.5,393.75 329,402.5C330.75,406 330.75,407.75 332.5,411.25C304.5,409.5 280,407.75 259,406C253.75,393.75 250.25,385 246.75,374.5Z" style="fill-rule:nonzero;"/>
        </g>
    </g>
</svg>
