<?xml version="1.0" encoding="UTF-8" standalone="no"?>
<!DOCTYPE svg PUBLIC "-//W3C//DTD SVG 1.1//EN" "http://www.w3.org/Graphics/SVG/1.1/DTD/svg11.dtd">
<svg width="100%" height="100%" viewBox="0 0 43 43" version="1.1" xmlns="http://www.w3.org/2000/svg" xmlns:xlink="http://www.w3.org/1999/xlink" xml:space="preserve" xmlns:serif="http://www.serif.com/" style="fill-rule:evenodd;clip-rule:evenodd;stroke-linejoin:round;stroke-miterlimit:2;">
    <g transform="matrix(1,0,0,1,-425,-896)">
        <g id="palivo-tuk-4-b" transform="matrix(1,0,0,1,175.608,896.666)">
            <rect x="250" y="0" width="41.667" height="41.667" style="fill:none;"/>
            <clipPath id="_clip1">
                <rect x="250" y="0" width="41.667" height="41.667"/>
            </clipPath>
            <g clip-path="url(#_clip1)">
                <g transform="matrix(5.36956e-17,0.701622,0.701622,-5.36956e-17,239.861,-110.65)">
                    <path d="M187.744,14.562C200.087,20.643 211.245,31.801 217.326,44.144C211.245,56.488 200.087,67.646 187.744,73.727C175.4,67.646 164.243,56.488 158.162,44.144C164.243,31.801 175.4,20.643 187.744,14.562Z" style="fill:rgb(38,38,38);"/>
                </g>
                <g transform="matrix(0.849981,0.135468,-0.131916,0.827693,297.416,-835.054)">
                    <path d="M111.553,1009.66C112.911,1009.69 114.213,1010.41 114.875,1011.56C116.032,1013.57 114.889,1016.55 112.662,1017.19C110.887,1017.7 108.368,1016.36 108.954,1014.07C109.07,1013.63 109.441,1013.08 109.441,1013.08C109.994,1012.45 111.284,1013.09 110.626,1014.15C110.418,1014.51 110.406,1014.98 110.662,1015.31C111.68,1016.61 114.54,1014.58 113.574,1012.5C112.913,1011.07 110.698,1011.01 109.314,1011.98C107.228,1013.43 106.64,1016.71 108.131,1018.4C109.964,1020.47 113.59,1018.9 114.838,1018.38C115.837,1017.94 117.146,1017.21 117.601,1018.17C117.836,1018.67 117.469,1019.23 116.819,1019.31C114.999,1019.61 113.243,1020.82 110.61,1020.82C109.228,1020.82 107.741,1020.46 106.828,1019.32C104.197,1016.02 106.743,1009.89 111.301,1009.66C111.385,1009.66 111.469,1009.66 111.553,1009.66Z" style="stroke:white;stroke-width:0.49px;"/>
                </g>
                <g transform="matrix(1.29184,0,0,0.872495,110.591,-864.745)">
                    <path d="M121.572,1015.27C121.572,1015.27 121.518,1013.75 121.707,1013.14C121.86,1012.65 122.423,1012.02 122.709,1011.59C123.012,1011.14 122.901,1010.17 123.164,1009.59C123.418,1009.03 123.906,1008.12 124.285,1008.13C124.665,1008.15 125.201,1009.12 125.439,1009.68C125.677,1010.24 125.439,1011.02 125.712,1011.5C125.985,1011.99 126.879,1012.68 127.078,1013.23C127.305,1013.86 127.078,1015.27 127.078,1015.27L121.572,1015.27Z" style="stroke:white;stroke-width:0.38px;stroke-linecap:round;stroke-miterlimit:1.5;"/>
                </g>
                <g transform="matrix(1,0,0,1,147.504,-997.438)">
                    <path d="M113.697,1018.33C114.708,1020.42 115.648,1022.61 117.438,1023.82C118.725,1024.69 120.715,1024.75 122.254,1025.34L125.348,1025.34C125.348,1025.34 132.66,1021.51 135.179,1020.6C136.849,1020 139.275,1019.78 139.275,1019.78L140.64,1017.97L113.697,1018.33Z" style="stroke:white;stroke-width:0.42px;stroke-linecap:round;stroke-miterlimit:1.5;"/>
                </g>
                <g transform="matrix(1,0,0,1,147.595,-994.746)">
                    <path d="M122.162,1022.65L120.251,1025.88L127.078,1025.88L125.105,1022.65L122.162,1022.65Z" style="stroke:white;stroke-width:0.42px;stroke-linecap:round;stroke-miterlimit:1.5;"/>
                </g>
            </g>
        </g>
    </g>
</svg>
