<?xml version="1.0" encoding="UTF-8" standalone="no"?>
<!DOCTYPE svg PUBLIC "-//W3C//DTD SVG 1.1//EN" "http://www.w3.org/Graphics/SVG/1.1/DTD/svg11.dtd">
<svg width="100%" height="100%" viewBox="0 0 43 43" version="1.1" xmlns="http://www.w3.org/2000/svg" xmlns:xlink="http://www.w3.org/1999/xlink" xml:space="preserve" xmlns:serif="http://www.serif.com/" style="fill-rule:evenodd;clip-rule:evenodd;stroke-linecap:round;stroke-linejoin:round;stroke-miterlimit:1.5;">
    <g transform="matrix(1,0,0,1,-371,-896)">
        <g id="palivo-drevo-3-b" transform="matrix(1,0,0,1,371.905,896.615)">
            <rect x="0" y="0" width="41.667" height="41.667" style="fill:none;"/>
            <g transform="matrix(-0.362672,0.628167,0.628167,0.362672,61.1928,-113.735)">
                <path d="M187.744,14.562C201.739,23.684 212.461,42.254 213.363,58.936C198.466,66.495 177.022,66.495 162.125,58.936C163.027,42.254 173.748,23.684 187.744,14.562Z" style="fill:rgb(38,38,38);"/>
            </g>
            <g transform="matrix(0.121505,0.13596,-0.152901,-0.0533588,155.738,51.4135)">
                <path d="M123.517,1001.51C129.56,1004.52 134.943,1010.85 137.498,1017.95C133.082,1022.92 127.789,1029.25 123.517,1034.39C117.475,1031.38 112.092,1025.06 109.536,1017.95C113.935,1013 119.119,1006.47 123.517,1001.51Z" style="stroke:white;stroke-width:6.67px;"/>
            </g>
            <g transform="matrix(0.585853,0.235581,-0.520316,0.209227,477.521,-224.579)">
                <path d="M123.517,1001.51C129.56,1004.52 134.943,1010.85 137.498,1017.95C133.082,1022.92 127.789,1029.25 123.517,1034.39C117.475,1031.38 112.092,1025.06 109.536,1017.95C111.843,1015.35 115.573,1013.68 118.085,1010.67C120.363,1007.94 121.425,1003.87 123.517,1001.51Z" style="stroke:white;stroke-width:1.31px;"/>
            </g>
            <g transform="matrix(0.585853,0.235581,-0.520316,0.209227,477.521,-216.598)">
                <path d="M123.517,1001.51C129.56,1004.52 134.943,1010.85 137.498,1017.95C135.336,1020.39 131.032,1020.97 128.673,1023.76C126.212,1026.66 125.698,1031.77 123.517,1034.39C117.475,1031.38 112.092,1025.06 109.536,1017.95C113.935,1013 119.119,1006.47 123.517,1001.51Z" style="stroke:white;stroke-width:1.31px;"/>
            </g>
            <g transform="matrix(8.59233e-17,1.40323,-1.26766,7.76216e-17,1306.97,-132.371)">
                <path d="M104.532,1008.28C104.532,1008.28 105.445,1009.53 106.806,1009.46C108.169,1009.38 109.006,1008.67 109.006,1008.67" style="fill:none;stroke:white;stroke-width:0.31px;"/>
            </g>
            <g transform="matrix(8.59233e-17,1.40323,-1.26766,7.76216e-17,1306.97,-124.39)">
                <path d="M104.532,1008.28C104.532,1008.28 105.445,1009.53 106.806,1009.46C108.169,1009.38 109.006,1008.67 109.006,1008.67" style="fill:none;stroke:white;stroke-width:0.31px;"/>
            </g>
            <g transform="matrix(0.16841,-0.069904,-0.100772,0.12677,106.509,-102.91)">
                <path d="M123.517,1001.51C129.56,1004.52 134.943,1010.85 137.498,1017.95C133.082,1022.92 127.789,1029.25 123.517,1034.39C117.475,1031.38 112.092,1025.06 109.536,1017.95C113.935,1013 119.119,1006.47 123.517,1001.51Z" style="stroke:white;stroke-width:6.67px;"/>
            </g>
            <g transform="matrix(0.585853,0.235581,-0.520316,0.209227,476.647,-220.53)">
                <path d="M123.517,1001.51C129.56,1004.52 134.943,1010.85 137.498,1017.95C133.082,1022.92 127.789,1029.25 123.517,1034.39C117.475,1031.38 112.092,1025.06 109.536,1017.95C113.935,1013 119.119,1006.47 123.517,1001.51Z" style="stroke:white;stroke-width:1.31px;"/>
            </g>
            <g transform="matrix(8.59233e-17,1.40323,-1.26766,7.76216e-17,1306.1,-128.322)">
                <path d="M104.532,1008.28C104.532,1008.28 105.445,1009.53 106.806,1009.46C108.169,1009.38 109.006,1008.67 109.006,1008.67" style="fill:none;stroke:white;stroke-width:0.31px;"/>
            </g>
            <g transform="matrix(1,0,0,1,-49.7489,-994.392)">
                <path d="M76.198,1015.94L77.691,1015.89L76.521,1014.6" style="fill:white;"/>
            </g>
        </g>
    </g>
</svg>
