<?xml version="1.0" encoding="UTF-8" standalone="no"?>
<!DOCTYPE svg PUBLIC "-//W3C//DTD SVG 1.1//EN" "http://www.w3.org/Graphics/SVG/1.1/DTD/svg11.dtd">
<svg width="100%" height="100%" viewBox="0 0 43 42" version="1.1" xmlns="http://www.w3.org/2000/svg" xmlns:xlink="http://www.w3.org/1999/xlink" xml:space="preserve" xmlns:serif="http://www.serif.com/" style="fill-rule:evenodd;clip-rule:evenodd;stroke-linecap:round;stroke-linejoin:round;stroke-miterlimit:1.5;">
    <g transform="matrix(1,0,0,1,-55,-264)">
        <g id="prace-b" transform="matrix(1,0,0,1,55.8744,264.05)">
            <rect x="0" y="0" width="41.667" height="41.667" style="fill:none;"/>
            <g transform="matrix(0.652689,0.307899,-0.390497,0.827783,64.1447,-190.56)">
                <path d="M72.346,218.414C72.346,217.885 71.801,217.455 71.13,217.455L68.698,217.455C68.027,217.455 67.482,217.885 67.482,218.414L67.482,247.413C67.482,247.942 68.027,248.372 68.698,248.372L71.13,248.372C71.801,248.372 72.346,247.942 72.346,247.413L72.346,218.414Z" style="stroke:white;stroke-width:0.51px;"/>
            </g>
            <g transform="matrix(0.652689,0.307899,-0.307899,0.652689,47.1547,-152.804)">
                <path d="M79.455,215.548C79.455,213.958 78.164,212.667 76.574,212.667L61.195,212.667C59.606,212.667 58.315,213.958 58.315,215.548L58.315,221.309C58.315,222.899 59.606,224.19 61.195,224.19L76.574,224.19C78.164,224.19 79.455,222.899 79.455,221.309L79.455,215.548Z" style="stroke:white;stroke-width:0.58px;"/>
            </g>
            <g transform="matrix(0.457713,0.0677502,-0.0677502,0.457713,-1.3036,-78.7439)">
                <path d="M56.324,230.706C56.632,229.313 60.567,217.145 61.633,213.865C62.471,211.285 68.182,211.337 69.899,211.705C72.752,212.316 82.085,214.404 82.085,214.404C83.628,214.746 84.603,216.276 84.261,217.819C83.965,219.157 82.774,220.068 81.457,220.063C82.44,220.692 82.976,221.889 82.709,223.094C82.389,224.537 81.031,225.483 79.594,225.32C80.862,225.837 81.53,227.193 81.306,228.59C80.997,230.51 79.097,230.865 77.717,230.781C78.966,231.307 79.701,232.667 79.397,234.037C79.055,235.58 77.525,236.555 75.983,236.213L61.533,232.922C59.99,232.581 55.982,232.249 56.324,230.706Z" style="stroke:white;stroke-width:0.9px;"/>
            </g>
        </g>
    </g>
</svg>
