<?xml version="1.0" encoding="UTF-8" standalone="no"?>
<!DOCTYPE svg PUBLIC "-//W3C//DTD SVG 1.1//EN" "http://www.w3.org/Graphics/SVG/1.1/DTD/svg11.dtd">
<svg width="100%" height="100%" viewBox="0 0 43 43" version="1.1" xmlns="http://www.w3.org/2000/svg" xmlns:xlink="http://www.w3.org/1999/xlink" xml:space="preserve" xmlns:serif="http://www.serif.com/" style="fill-rule:evenodd;clip-rule:evenodd;stroke-linejoin:round;stroke-miterlimit:2;">
    <g transform="matrix(1,0,0,1,-249.392,0.666)">
        <g id="palivo-tuk-4-b">
            <rect x="250" y="0" width="41.667" height="41.667" style="fill:none;"/>
            <g>
                <g transform="matrix(5.36956e-17,0.701622,0.701622,-5.36956e-17,239.861,-110.65)">
                    <path d="M187.744,14.562C200.087,20.643 211.245,31.801 217.326,44.144C211.245,56.488 200.087,67.646 187.744,73.727C175.4,67.646 164.243,56.488 158.162,44.144C164.243,31.801 175.4,20.643 187.744,14.562Z" style="fill:rgb(87,87,87);"/>
                </g>
                <g transform="matrix(0.0445657,0,0,0.0445657,255.293,8.35699)">
                    <path d="M624.86,460.36L590.626,426.126L525.11,491.642L559.235,525.767C562.626,529.158 567.11,530.908 571.594,530.908C576.078,530.908 580.563,529.158 583.953,525.767L624.859,484.97C628.14,481.689 630,477.204 630,472.611C630,468.127 628.14,463.642 624.859,460.361L624.86,460.36ZM566.016,401.516L523.36,358.86L564.594,317.626C571.375,310.845 571.375,299.688 564.594,292.907L543.375,271.688C536.594,264.907 525.437,264.797 518.656,271.688C511.875,278.469 511.765,289.626 518.656,296.407L527.515,305.266L515.484,317.297L238.004,39.817C235.051,36.864 231.114,35.005 226.848,34.786L146.567,28.989C141.536,28.661 136.505,30.521 133.005,34.021C129.396,37.63 127.537,42.552 127.974,47.583L133.662,127.864C133.99,132.02 135.74,136.067 138.693,139.02C231.224,231.551 323.643,323.75 416.173,416.289L404.142,428.321L395.283,419.461C388.501,412.68 377.345,412.68 370.564,419.461C363.783,426.242 363.782,437.399 370.564,444.18L391.783,465.399C395.064,468.68 399.548,470.54 404.142,470.54C408.735,470.54 413.22,468.68 416.501,465.399L457.734,424.165L500.501,466.931L566.016,401.516ZM473.922,226.406L561.313,139.015C564.266,136.062 566.126,132.124 566.344,127.859L572.032,47.578C572.36,42.547 570.501,37.516 567.001,34.016C563.391,30.407 558.469,28.547 553.439,28.985L473.157,34.672C469.001,35 465.064,36.75 462.001,39.703L374.61,127.094L473.922,226.406ZM226.082,275.625L184.301,317.406L172.27,305.375L181.129,296.516C187.911,289.734 187.911,278.578 181.129,271.797C174.348,265.016 163.191,265.015 156.41,271.797L135.191,293.016C128.41,299.797 128.41,310.954 135.191,317.735L176.425,358.969L133.878,401.516L199.394,467.032L242.05,424.376L283.284,465.61C286.566,468.891 291.05,470.75 295.643,470.75C300.237,470.75 304.721,468.891 308.002,465.61L329.221,444.391C336.003,437.609 336.003,426.453 329.221,419.672C322.44,412.891 311.283,412.89 304.502,419.672L295.643,428.531L283.612,416.5L325.284,374.828L226.082,275.625ZM109.272,426.125L75.147,460.359C68.366,467.14 68.366,478.297 75.147,485.078L115.944,525.875C119.225,529.156 123.71,531.016 128.303,531.016C132.896,531.016 137.381,529.156 140.662,525.875L174.787,491.641L109.272,426.125Z" style="fill:white;fill-rule:nonzero;stroke:black;stroke-width:8.98px;"/>
                </g>
            </g>
        </g>
    </g>
</svg>
